<?xml version="1.0" encoding="UTF-8" standalone="no"?>
<!DOCTYPE svg PUBLIC "-//W3C//DTD SVG 1.1//EN"
 "http://www.w3.org/Graphics/SVG/1.1/DTD/svg11.dtd">
<!-- Generated by graphviz version 2.34.0 (20130907.0111)
 -->
<!-- Title: NetworkGraph01 Pages: 1 -->
<svg width="1438pt" height="255pt"
 viewBox="0.00 0.00 1438.00 255.49" xmlns="http://www.w3.org/2000/svg" xmlns:xlink="http://www.w3.org/1999/xlink">
<g id="graph0" class="graph" transform="scale(1 1) rotate(0) translate(4 251.485)">
<title>NetworkGraph01</title>
<polygon fill="white" stroke="white" points="-4,4 -4,-251.485 1434,-251.485 1434,4 -4,4"/>
<!-- v1 -->
<g id="node1" class="node"><title>v1</title>
<polygon fill="#f2f4f7" stroke="#3ca186" stroke-width="2" points="0,-61.4455 0,-175.446 158,-175.446 158,-61.4455 0,-61.4455"/>
<text text-anchor="middle" x="26" y="-160.246" font-family="Arial" font-size="14.00"> </text>
<polyline fill="none" stroke="#3ca186" stroke-width="2" points="52,-152.446 52,-175.446 "/>
<text text-anchor="middle" x="78.5" y="-160.246" font-family="Arial" font-size="14.00"> </text>
<polyline fill="none" stroke="#3ca186" stroke-width="2" points="105,-152.446 105,-175.446 "/>
<text text-anchor="middle" x="131.5" y="-160.246" font-family="Arial" font-size="14.00"> </text>
<polyline fill="none" stroke="#3ca186" stroke-width="2" points="0,-152.446 158,-152.446 "/>
<text text-anchor="middle" x="79" y="-137.246" font-family="Arial" font-size="14.00">1. Принятие</text>
<text text-anchor="middle" x="79" y="-122.246" font-family="Arial" font-size="14.00"> решения о создании </text>
<text text-anchor="middle" x="79" y="-107.246" font-family="Arial" font-size="14.00"> локальной </text>
<text text-anchor="middle" x="79" y="-92.2455" font-family="Arial" font-size="14.00"> сети</text>
<polyline fill="none" stroke="#3ca186" stroke-width="2" points="0,-84.4455 158,-84.4455 "/>
<text text-anchor="middle" x="26" y="-69.2455" font-family="Arial" font-size="14.00"> </text>
<polyline fill="none" stroke="#3ca186" stroke-width="2" points="52,-61.4455 52,-84.4455 "/>
<text text-anchor="middle" x="78.5" y="-69.2455" font-family="Arial" font-size="14.00"> </text>
<polyline fill="none" stroke="#3ca186" stroke-width="2" points="105,-61.4455 105,-84.4455 "/>
<text text-anchor="middle" x="131.5" y="-69.2455" font-family="Arial" font-size="14.00"> </text>
</g>
<!-- v2 -->
<g id="node2" class="node"><title>v2</title>
<polygon fill="#f2f4f7" stroke="#63527b" stroke-width="2" points="194.5,-61.4455 194.5,-175.446 313.5,-175.446 313.5,-61.4455 194.5,-61.4455"/>
<text text-anchor="middle" x="214" y="-160.246" font-family="Arial" font-size="14.00"> </text>
<polyline fill="none" stroke="#63527b" stroke-width="2" points="233.5,-152.446 233.5,-175.446 "/>
<text text-anchor="middle" x="253.5" y="-160.246" font-family="Arial" font-size="14.00"> </text>
<polyline fill="none" stroke="#63527b" stroke-width="2" points="273.5,-152.446 273.5,-175.446 "/>
<text text-anchor="middle" x="293.5" y="-160.246" font-family="Arial" font-size="14.00"> </text>
<polyline fill="none" stroke="#63527b" stroke-width="2" points="194.5,-152.446 313.5,-152.446 "/>
<text text-anchor="middle" x="254" y="-137.246" font-family="Arial" font-size="14.00">2. ТЭО</text>
<text text-anchor="middle" x="254" y="-122.246" font-family="Arial" font-size="14.00"> создания </text>
<text text-anchor="middle" x="254" y="-107.246" font-family="Arial" font-size="14.00"> компьютерной </text>
<text text-anchor="middle" x="254" y="-92.2455" font-family="Arial" font-size="14.00"> сети</text>
<polyline fill="none" stroke="#63527b" stroke-width="2" points="194.5,-84.4455 313.5,-84.4455 "/>
<text text-anchor="middle" x="214" y="-69.2455" font-family="Arial" font-size="14.00"> </text>
<polyline fill="none" stroke="#63527b" stroke-width="2" points="233.5,-61.4455 233.5,-84.4455 "/>
<text text-anchor="middle" x="253.5" y="-69.2455" font-family="Arial" font-size="14.00"> </text>
<polyline fill="none" stroke="#63527b" stroke-width="2" points="273.5,-61.4455 273.5,-84.4455 "/>
<text text-anchor="middle" x="293.5" y="-69.2455" font-family="Arial" font-size="14.00"> </text>
</g>
<!-- v1&#45;&gt;v2 -->
<g id="edge1" class="edge"><title>v1:mI1&#45;&gt;v2:mI2</title>
<path fill="none" stroke="#3ca186" stroke-width="2" d="M158,-118.446C170,-118.446 175.25,-118.446 183.875,-118.446"/>
<polygon fill="#3ca186" stroke="#3ca186" points="184,-121.946 194,-118.446 184,-114.946 184,-121.946"/>
</g>
<!-- v3 -->
<g id="node3" class="node"><title>v3</title>
<polygon fill="#f2f4f7" stroke="#bb6998" stroke-width="2" points="350.5,-104.446 350.5,-218.446 471.5,-218.446 471.5,-104.446 350.5,-104.446"/>
<text text-anchor="middle" x="370.5" y="-203.246" font-family="Arial" font-size="14.00"> </text>
<polyline fill="none" stroke="#bb6998" stroke-width="2" points="390.5,-195.446 390.5,-218.446 "/>
<text text-anchor="middle" x="410.5" y="-203.246" font-family="Arial" font-size="14.00"> </text>
<polyline fill="none" stroke="#bb6998" stroke-width="2" points="430.5,-195.446 430.5,-218.446 "/>
<text text-anchor="middle" x="451" y="-203.246" font-family="Arial" font-size="14.00"> </text>
<polyline fill="none" stroke="#bb6998" stroke-width="2" points="350.5,-195.446 471.5,-195.446 "/>
<text text-anchor="middle" x="411" y="-180.246" font-family="Arial" font-size="14.00">3. Закупка</text>
<text text-anchor="middle" x="411" y="-165.246" font-family="Arial" font-size="14.00"> компьютеров </text>
<text text-anchor="middle" x="411" y="-150.246" font-family="Arial" font-size="14.00"> и </text>
<text text-anchor="middle" x="411" y="-135.246" font-family="Arial" font-size="14.00"> комплектующих</text>
<polyline fill="none" stroke="#bb6998" stroke-width="2" points="350.5,-127.446 471.5,-127.446 "/>
<text text-anchor="middle" x="370.5" y="-112.246" font-family="Arial" font-size="14.00"> </text>
<polyline fill="none" stroke="#bb6998" stroke-width="2" points="390.5,-104.446 390.5,-127.446 "/>
<text text-anchor="middle" x="410.5" y="-112.246" font-family="Arial" font-size="14.00"> </text>
<polyline fill="none" stroke="#bb6998" stroke-width="2" points="430.5,-104.446 430.5,-127.446 "/>
<text text-anchor="middle" x="451" y="-112.246" font-family="Arial" font-size="14.00"> </text>
</g>
<!-- v2&#45;&gt;v3 -->
<g id="edge2" class="edge"><title>v2:mI2&#45;&gt;v3:mI3</title>
<path fill="none" stroke="#63527b" stroke-width="2" d="M314,-118.446C334.641,-118.446 328.691,-147.935 340.191,-158.071"/>
<polygon fill="#63527b" stroke="#63527b" points="339.405,-161.502 350,-161.446 341.682,-154.883 339.405,-161.502"/>
</g>
<!-- v4 -->
<g id="node4" class="node"><title>v4</title>
<polygon fill="#f2f4f7" stroke="#458b7b" stroke-width="2" points="508,-152.446 508,-236.446 616,-236.446 616,-152.446 508,-152.446"/>
<text text-anchor="middle" x="526" y="-221.246" font-family="Arial" font-size="14.00"> </text>
<polyline fill="none" stroke="#458b7b" stroke-width="2" points="544,-213.446 544,-236.446 "/>
<text text-anchor="middle" x="562" y="-221.246" font-family="Arial" font-size="14.00"> </text>
<polyline fill="none" stroke="#458b7b" stroke-width="2" points="580,-213.446 580,-236.446 "/>
<text text-anchor="middle" x="598" y="-221.246" font-family="Arial" font-size="14.00"> </text>
<polyline fill="none" stroke="#458b7b" stroke-width="2" points="508,-213.446 616,-213.446 "/>
<text text-anchor="middle" x="562" y="-198.246" font-family="Arial" font-size="14.00">4. Установка</text>
<text text-anchor="middle" x="562" y="-183.246" font-family="Arial" font-size="14.00"> компьютеров</text>
<polyline fill="none" stroke="#458b7b" stroke-width="2" points="508,-175.446 616,-175.446 "/>
<text text-anchor="middle" x="526" y="-160.246" font-family="Arial" font-size="14.00"> </text>
<polyline fill="none" stroke="#458b7b" stroke-width="2" points="544,-152.446 544,-175.446 "/>
<text text-anchor="middle" x="562" y="-160.246" font-family="Arial" font-size="14.00"> </text>
<polyline fill="none" stroke="#458b7b" stroke-width="2" points="580,-152.446 580,-175.446 "/>
<text text-anchor="middle" x="598" y="-160.246" font-family="Arial" font-size="14.00"> </text>
</g>
<!-- v2&#45;&gt;v4 -->
<g id="edge3" class="edge"><title>v2:mI2&#45;&gt;v4:mI4</title>
<path fill="none" stroke="#63527b" stroke-width="2" d="M314,-118.446C365.018,-118.446 308.653,-197.558 350,-227.446 393.944,-259.21 421.466,-247.102 472,-227.446 488.278,-221.114 487.615,-203.604 498.044,-197.006"/>
<polygon fill="#63527b" stroke="#63527b" points="499.187,-200.326 508,-194.446 497.443,-193.546 499.187,-200.326"/>
</g>
<!-- v5 -->
<g id="node5" class="node"><title>v5</title>
<polygon fill="#f2f4f7" stroke="#acd2cf" stroke-width="2" points="652,-88.9455 652,-157.946 786,-157.946 786,-88.9455 652,-88.9455"/>
<text text-anchor="middle" x="674" y="-142.746" font-family="Arial" font-size="14.00"> </text>
<polyline fill="none" stroke="#acd2cf" stroke-width="2" points="696,-134.946 696,-157.946 "/>
<text text-anchor="middle" x="718.5" y="-142.746" font-family="Arial" font-size="14.00"> </text>
<polyline fill="none" stroke="#acd2cf" stroke-width="2" points="741,-134.946 741,-157.946 "/>
<text text-anchor="middle" x="763.5" y="-142.746" font-family="Arial" font-size="14.00"> </text>
<polyline fill="none" stroke="#acd2cf" stroke-width="2" points="652,-134.946 786,-134.946 "/>
<text text-anchor="middle" x="719" y="-119.746" font-family="Arial" font-size="14.00">5. Прокладка сети</text>
<polyline fill="none" stroke="#acd2cf" stroke-width="2" points="652,-111.946 786,-111.946 "/>
<text text-anchor="middle" x="674" y="-96.7455" font-family="Arial" font-size="14.00"> </text>
<polyline fill="none" stroke="#acd2cf" stroke-width="2" points="696,-88.9455 696,-111.946 "/>
<text text-anchor="middle" x="718.5" y="-96.7455" font-family="Arial" font-size="14.00"> </text>
<polyline fill="none" stroke="#acd2cf" stroke-width="2" points="741,-88.9455 741,-111.946 "/>
<text text-anchor="middle" x="763.5" y="-96.7455" font-family="Arial" font-size="14.00"> </text>
</g>
<!-- v2&#45;&gt;v5 -->
<g id="edge6" class="edge"><title>v2:mI2&#45;&gt;v5:mI5</title>
<path fill="none" stroke="#63527b" stroke-width="2" d="M314,-118.446C333.23,-118.446 331.595,-100.018 350,-94.4455 401.896,-78.7328 417.951,-90.1195 472,-94.4455 509.31,-97.4318 596.728,-119.651 641.774,-123.018"/>
<polygon fill="#63527b" stroke="#63527b" points="641.863,-126.525 652,-123.446 642.155,-119.531 641.863,-126.525"/>
</g>
<!-- v7 -->
<g id="node7" class="node"><title>v7</title>
<polygon fill="#f2f4f7" stroke="#787f57" stroke-width="2" points="980,-13.9455 980,-82.9455 1114,-82.9455 1114,-13.9455 980,-13.9455"/>
<text text-anchor="middle" x="1002" y="-67.7455" font-family="Arial" font-size="14.00"> </text>
<polyline fill="none" stroke="#787f57" stroke-width="2" points="1024,-59.9455 1024,-82.9455 "/>
<text text-anchor="middle" x="1046.5" y="-67.7455" font-family="Arial" font-size="14.00"> </text>
<polyline fill="none" stroke="#787f57" stroke-width="2" points="1069,-59.9455 1069,-82.9455 "/>
<text text-anchor="middle" x="1091.5" y="-67.7455" font-family="Arial" font-size="14.00"> </text>
<polyline fill="none" stroke="#787f57" stroke-width="2" points="980,-59.9455 1114,-59.9455 "/>
<text text-anchor="middle" x="1047" y="-44.7455" font-family="Arial" font-size="14.00">7. Настройка сети</text>
<polyline fill="none" stroke="#787f57" stroke-width="2" points="980,-36.9455 1114,-36.9455 "/>
<text text-anchor="middle" x="1002" y="-21.7455" font-family="Arial" font-size="14.00"> </text>
<polyline fill="none" stroke="#787f57" stroke-width="2" points="1024,-13.9455 1024,-36.9455 "/>
<text text-anchor="middle" x="1046.5" y="-21.7455" font-family="Arial" font-size="14.00"> </text>
<polyline fill="none" stroke="#787f57" stroke-width="2" points="1069,-13.9455 1069,-36.9455 "/>
<text text-anchor="middle" x="1091.5" y="-21.7455" font-family="Arial" font-size="14.00"> </text>
</g>
<!-- v2&#45;&gt;v7 -->
<g id="edge10" class="edge"><title>v2:mI2&#45;&gt;v7:mI7</title>
<path fill="none" stroke="#63527b" stroke-width="2" d="M314,-118.446C336.627,-118.446 330.118,-93.2492 350,-82.4455 434.251,-36.6636 465.113,-37.4455 561,-37.4455 561,-37.4455 561,-37.4455 720,-37.4455 832.158,-37.4455 862.525,-47.7896 969.73,-48.4159"/>
<polygon fill="#63527b" stroke="#63527b" points="969.99,-51.9166 980,-48.4455 970.01,-44.9166 969.99,-51.9166"/>
</g>
<!-- v3&#45;&gt;v4 -->
<g id="edge4" class="edge"><title>v3:mI3&#45;&gt;v4:mI4</title>
<path fill="none" stroke="#bb6998" stroke-width="2" d="M472,-161.446C489.466,-161.446 488.079,-182.814 498.18,-191.161"/>
<polygon fill="#bb6998" stroke="#bb6998" points="497.406,-194.592 508,-194.446 499.627,-187.954 497.406,-194.592"/>
</g>
<!-- v3&#45;&gt;v5 -->
<g id="edge5" class="edge"><title>v3:mI3&#45;&gt;v5:mI5</title>
<path fill="none" stroke="#bb6998" stroke-width="2" d="M472,-161.446C490.092,-161.446 490.762,-147.937 508,-142.446 566.145,-123.922 585.353,-123.441 641.813,-123.444"/>
<polygon fill="#bb6998" stroke="#bb6998" points="641.999,-126.944 652,-123.446 642.001,-119.944 641.999,-126.944"/>
</g>
<!-- v4&#45;&gt;v5 -->
<g id="edge7" class="edge"><title>v4:mI4&#45;&gt;v5:mI5</title>
<path fill="none" stroke="#458b7b" stroke-width="2" d="M616,-194.446C647.234,-194.446 623.804,-139.111 642.226,-126.142"/>
<polygon fill="#458b7b" stroke="#458b7b" points="643.291,-129.479 652,-123.446 641.429,-122.731 643.291,-129.479"/>
</g>
<!-- v6 -->
<g id="node6" class="node"><title>v6</title>
<polygon fill="#f2f4f7" stroke="#77d4da" stroke-width="2" points="822,-66.4455 822,-180.446 944,-180.446 944,-66.4455 822,-66.4455"/>
<text text-anchor="middle" x="842" y="-165.246" font-family="Arial" font-size="14.00"> </text>
<polyline fill="none" stroke="#77d4da" stroke-width="2" points="862,-157.446 862,-180.446 "/>
<text text-anchor="middle" x="882.5" y="-165.246" font-family="Arial" font-size="14.00"> </text>
<polyline fill="none" stroke="#77d4da" stroke-width="2" points="903,-157.446 903,-180.446 "/>
<text text-anchor="middle" x="923.5" y="-165.246" font-family="Arial" font-size="14.00"> </text>
<polyline fill="none" stroke="#77d4da" stroke-width="2" points="822,-157.446 944,-157.446 "/>
<text text-anchor="middle" x="883" y="-142.246" font-family="Arial" font-size="14.00">6. Разработка</text>
<text text-anchor="middle" x="883" y="-127.246" font-family="Arial" font-size="14.00"> регламента </text>
<text text-anchor="middle" x="883" y="-112.246" font-family="Arial" font-size="14.00"> использования </text>
<text text-anchor="middle" x="883" y="-97.2455" font-family="Arial" font-size="14.00"> ПО</text>
<polyline fill="none" stroke="#77d4da" stroke-width="2" points="822,-89.4455 944,-89.4455 "/>
<text text-anchor="middle" x="842" y="-74.2455" font-family="Arial" font-size="14.00"> </text>
<polyline fill="none" stroke="#77d4da" stroke-width="2" points="862,-66.4455 862,-89.4455 "/>
<text text-anchor="middle" x="882.5" y="-74.2455" font-family="Arial" font-size="14.00"> </text>
<polyline fill="none" stroke="#77d4da" stroke-width="2" points="903,-66.4455 903,-89.4455 "/>
<text text-anchor="middle" x="923.5" y="-74.2455" font-family="Arial" font-size="14.00"> </text>
</g>
<!-- v5&#45;&gt;v6 -->
<g id="edge8" class="edge"><title>v5:mI5&#45;&gt;v6:mI6</title>
<path fill="none" stroke="#acd2cf" stroke-width="2" d="M786,-123.446C798,-123.446 803.25,-123.446 811.875,-123.446"/>
<polygon fill="#acd2cf" stroke="#acd2cf" points="812,-126.946 822,-123.446 812,-119.946 812,-126.946"/>
</g>
<!-- v6&#45;&gt;v7 -->
<g id="edge9" class="edge"><title>v6:mI6&#45;&gt;v7:mI7</title>
<path fill="none" stroke="#77d4da" stroke-width="2" d="M944,-123.446C976.786,-123.446 950.662,-64.4753 970.101,-51.1148"/>
<polygon fill="#77d4da" stroke="#77d4da" points="971.256,-54.4285 980,-48.4455 969.434,-47.6699 971.256,-54.4285"/>
</g>
<!-- v9 -->
<g id="node9" class="node"><title>v9</title>
<polygon fill="#f2f4f7" stroke="#727a78" stroke-width="2" points="1310.5,-18.4455 1310.5,-102.446 1429.5,-102.446 1429.5,-18.4455 1310.5,-18.4455"/>
<text text-anchor="middle" x="1330" y="-87.2455" font-family="Arial" font-size="14.00"> </text>
<polyline fill="none" stroke="#727a78" stroke-width="2" points="1349.5,-79.4455 1349.5,-102.446 "/>
<text text-anchor="middle" x="1369.5" y="-87.2455" font-family="Arial" font-size="14.00"> </text>
<polyline fill="none" stroke="#727a78" stroke-width="2" points="1389.5,-79.4455 1389.5,-102.446 "/>
<text text-anchor="middle" x="1409.5" y="-87.2455" font-family="Arial" font-size="14.00"> </text>
<polyline fill="none" stroke="#727a78" stroke-width="2" points="1310.5,-79.4455 1429.5,-79.4455 "/>
<text text-anchor="middle" x="1370" y="-64.2455" font-family="Arial" font-size="14.00">9. Обучение</text>
<text text-anchor="middle" x="1370" y="-49.2455" font-family="Arial" font-size="14.00"> пользователей</text>
<polyline fill="none" stroke="#727a78" stroke-width="2" points="1310.5,-41.4455 1429.5,-41.4455 "/>
<text text-anchor="middle" x="1330" y="-26.2455" font-family="Arial" font-size="14.00"> </text>
<polyline fill="none" stroke="#727a78" stroke-width="2" points="1349.5,-18.4455 1349.5,-41.4455 "/>
<text text-anchor="middle" x="1369.5" y="-26.2455" font-family="Arial" font-size="14.00"> </text>
<polyline fill="none" stroke="#727a78" stroke-width="2" points="1389.5,-18.4455 1389.5,-41.4455 "/>
<text text-anchor="middle" x="1409.5" y="-26.2455" font-family="Arial" font-size="14.00"> </text>
</g>
<!-- v6&#45;&gt;v9 -->
<g id="edge12" class="edge"><title>v6:mI6&#45;&gt;v9:mI9</title>
<path fill="none" stroke="#77d4da" stroke-width="2" d="M944,-123.446C1090.91,-123.446 1143.11,-171.148 1274,-104.446 1292.82,-94.8556 1287.68,-70.552 1300.24,-62.8355"/>
<polygon fill="#77d4da" stroke="#77d4da" points="1301.12,-66.2237 1310,-60.4455 1299.45,-59.4246 1301.12,-66.2237"/>
</g>
<!-- v8 -->
<g id="node8" class="node"><title>v8</title>
<polygon fill="#f2f4f7" stroke="#9174ce" stroke-width="2" points="1150,-25.9455 1150,-94.9455 1274,-94.9455 1274,-25.9455 1150,-25.9455"/>
<text text-anchor="middle" x="1170.5" y="-79.7455" font-family="Arial" font-size="14.00"> </text>
<polyline fill="none" stroke="#9174ce" stroke-width="2" points="1191,-71.9455 1191,-94.9455 "/>
<text text-anchor="middle" x="1211.5" y="-79.7455" font-family="Arial" font-size="14.00"> </text>
<polyline fill="none" stroke="#9174ce" stroke-width="2" points="1232,-71.9455 1232,-94.9455 "/>
<text text-anchor="middle" x="1253" y="-79.7455" font-family="Arial" font-size="14.00"> </text>
<polyline fill="none" stroke="#9174ce" stroke-width="2" points="1150,-71.9455 1274,-71.9455 "/>
<text text-anchor="middle" x="1212" y="-56.7455" font-family="Arial" font-size="14.00">8. Установка ПО</text>
<polyline fill="none" stroke="#9174ce" stroke-width="2" points="1150,-48.9455 1274,-48.9455 "/>
<text text-anchor="middle" x="1170.5" y="-33.7455" font-family="Arial" font-size="14.00"> </text>
<polyline fill="none" stroke="#9174ce" stroke-width="2" points="1191,-25.9455 1191,-48.9455 "/>
<text text-anchor="middle" x="1211.5" y="-33.7455" font-family="Arial" font-size="14.00"> </text>
<polyline fill="none" stroke="#9174ce" stroke-width="2" points="1232,-25.9455 1232,-48.9455 "/>
<text text-anchor="middle" x="1253" y="-33.7455" font-family="Arial" font-size="14.00"> </text>
</g>
<!-- v7&#45;&gt;v8 -->
<g id="edge11" class="edge"><title>v7:mI7&#45;&gt;v8:mI8</title>
<path fill="none" stroke="#787f57" stroke-width="2" d="M1114,-48.4455C1126.78,-48.4455 1131.18,-55.3369 1139.9,-58.6749"/>
<polygon fill="#787f57" stroke="#787f57" points="1139.55,-62.1661 1150,-60.4455 1140.75,-55.2713 1139.55,-62.1661"/>
</g>
<!-- v7&#45;&gt;v9 -->
<g id="edge13" class="edge"><title>v7:mI7&#45;&gt;v9:mI9</title>
<path fill="none" stroke="#787f57" stroke-width="2" d="M1114,-48.4455C1135.41,-48.4455 1129.99,-24.0533 1150,-16.4455 1201.51,3.13987 1224.2,7.15469 1274,-16.4455 1293.09,-25.4905 1287.76,-50.1602 1300.26,-58.0115"/>
<polygon fill="#787f57" stroke="#787f57" points="1299.45,-61.4161 1310,-60.4455 1301.15,-54.625 1299.45,-61.4161"/>
</g>
<!-- v8&#45;&gt;v9 -->
<g id="edge14" class="edge"><title>v8:mI8&#45;&gt;v9:mI9</title>
<path fill="none" stroke="#9174ce" stroke-width="2" d="M1274,-60.4455C1286,-60.4455 1291.25,-60.4455 1299.88,-60.4455"/>
<polygon fill="#9174ce" stroke="#9174ce" points="1300,-63.9456 1310,-60.4455 1300,-56.9456 1300,-63.9456"/>
</g>
</g>
</svg>
