<?xml version="1.0" encoding="UTF-8" standalone="no"?>
<!DOCTYPE svg PUBLIC "-//W3C//DTD SVG 1.1//EN"
 "http://www.w3.org/Graphics/SVG/1.1/DTD/svg11.dtd">
<!-- Generated by graphviz version 2.34.0 (20130907.0111)
 -->
<!-- Title: NetworkGraph01 Pages: 1 -->
<svg width="356pt" height="181pt"
 viewBox="0.00 0.00 356.00 180.53" xmlns="http://www.w3.org/2000/svg" xmlns:xlink="http://www.w3.org/1999/xlink">
<g id="graph0" class="graph" transform="scale(1 1) rotate(0) translate(4 176.535)">
<title>NetworkGraph01</title>
<polygon fill="white" stroke="white" points="-4,4 -4,-176.535 352,-176.535 352,4 -4,4"/>
<!-- v1 -->
<g id="node1" class="node"><title>v1</title>
<polygon fill="#f2f4f7" stroke="#91b858" stroke-width="2" points="0,-21.0349 0,-90.0349 60,-90.0349 60,-21.0349 0,-21.0349"/>
<text text-anchor="middle" x="10" y="-74.8349" font-family="Arial" font-size="14.00"> </text>
<polyline fill="none" stroke="#91b858" stroke-width="2" points="20,-67.0349 20,-90.0349 "/>
<text text-anchor="middle" x="30" y="-74.8349" font-family="Arial" font-size="14.00"> </text>
<polyline fill="none" stroke="#91b858" stroke-width="2" points="40,-67.0349 40,-90.0349 "/>
<text text-anchor="middle" x="50" y="-74.8349" font-family="Arial" font-size="14.00"> </text>
<polyline fill="none" stroke="#91b858" stroke-width="2" points="0,-67.0349 60,-67.0349 "/>
<text text-anchor="middle" x="30" y="-51.8349" font-family="Arial" font-size="14.00">1. 1</text>
<polyline fill="none" stroke="#91b858" stroke-width="2" points="0,-44.0349 60,-44.0349 "/>
<text text-anchor="middle" x="10" y="-28.8349" font-family="Arial" font-size="14.00"> </text>
<polyline fill="none" stroke="#91b858" stroke-width="2" points="20,-21.0349 20,-44.0349 "/>
<text text-anchor="middle" x="30" y="-28.8349" font-family="Arial" font-size="14.00"> </text>
<polyline fill="none" stroke="#91b858" stroke-width="2" points="40,-21.0349 40,-44.0349 "/>
<text text-anchor="middle" x="50" y="-28.8349" font-family="Arial" font-size="14.00"> </text>
</g>
<!-- v2 -->
<g id="node2" class="node"><title>v2</title>
<polygon fill="#f2f4f7" stroke="#7ec1df" stroke-width="2" points="96,-21.0349 96,-90.0349 156,-90.0349 156,-21.0349 96,-21.0349"/>
<text text-anchor="middle" x="106" y="-74.8349" font-family="Arial" font-size="14.00"> </text>
<polyline fill="none" stroke="#7ec1df" stroke-width="2" points="116,-67.0349 116,-90.0349 "/>
<text text-anchor="middle" x="126" y="-74.8349" font-family="Arial" font-size="14.00"> </text>
<polyline fill="none" stroke="#7ec1df" stroke-width="2" points="136,-67.0349 136,-90.0349 "/>
<text text-anchor="middle" x="146" y="-74.8349" font-family="Arial" font-size="14.00"> </text>
<polyline fill="none" stroke="#7ec1df" stroke-width="2" points="96,-67.0349 156,-67.0349 "/>
<text text-anchor="middle" x="126" y="-51.8349" font-family="Arial" font-size="14.00">2. 2</text>
<polyline fill="none" stroke="#7ec1df" stroke-width="2" points="96,-44.0349 156,-44.0349 "/>
<text text-anchor="middle" x="106" y="-28.8349" font-family="Arial" font-size="14.00"> </text>
<polyline fill="none" stroke="#7ec1df" stroke-width="2" points="116,-21.0349 116,-44.0349 "/>
<text text-anchor="middle" x="126" y="-28.8349" font-family="Arial" font-size="14.00"> </text>
<polyline fill="none" stroke="#7ec1df" stroke-width="2" points="136,-21.0349 136,-44.0349 "/>
<text text-anchor="middle" x="146" y="-28.8349" font-family="Arial" font-size="14.00"> </text>
</g>
<!-- v1&#45;&gt;v2 -->
<g id="edge1" class="edge"><title>v1:mI1&#45;&gt;v2:mI2</title>
<path fill="none" stroke="#91b858" stroke-width="2" d="M60,-55.5349C72,-55.5349 77.25,-55.5349 85.875,-55.5349"/>
<polygon fill="#91b858" stroke="#91b858" points="86,-59.035 96,-55.5349 86,-52.035 86,-59.035"/>
</g>
<!-- v3 -->
<g id="node3" class="node"><title>v3</title>
<polygon fill="#f2f4f7" stroke="#5cbb54" stroke-width="2" points="192,-103.035 192,-172.035 252,-172.035 252,-103.035 192,-103.035"/>
<text text-anchor="middle" x="202" y="-156.835" font-family="Arial" font-size="14.00"> </text>
<polyline fill="none" stroke="#5cbb54" stroke-width="2" points="212,-149.035 212,-172.035 "/>
<text text-anchor="middle" x="222" y="-156.835" font-family="Arial" font-size="14.00"> </text>
<polyline fill="none" stroke="#5cbb54" stroke-width="2" points="232,-149.035 232,-172.035 "/>
<text text-anchor="middle" x="242" y="-156.835" font-family="Arial" font-size="14.00"> </text>
<polyline fill="none" stroke="#5cbb54" stroke-width="2" points="192,-149.035 252,-149.035 "/>
<text text-anchor="middle" x="222" y="-133.835" font-family="Arial" font-size="14.00">3. 3</text>
<polyline fill="none" stroke="#5cbb54" stroke-width="2" points="192,-126.035 252,-126.035 "/>
<text text-anchor="middle" x="202" y="-110.835" font-family="Arial" font-size="14.00"> </text>
<polyline fill="none" stroke="#5cbb54" stroke-width="2" points="212,-103.035 212,-126.035 "/>
<text text-anchor="middle" x="222" y="-110.835" font-family="Arial" font-size="14.00"> </text>
<polyline fill="none" stroke="#5cbb54" stroke-width="2" points="232,-103.035 232,-126.035 "/>
<text text-anchor="middle" x="242" y="-110.835" font-family="Arial" font-size="14.00"> </text>
</g>
<!-- v1&#45;&gt;v3 -->
<g id="edge2" class="edge"><title>v1:mI1&#45;&gt;v3:mI3</title>
<path fill="none" stroke="#91b858" stroke-width="2" d="M60,-55.5349C85.267,-55.5349 75.5983,-84.6288 96,-99.5349 130.157,-124.491 143.925,-135.729 181.819,-137.332"/>
<polygon fill="#91b858" stroke="#91b858" points="181.932,-140.835 192,-137.535 182.072,-133.837 181.932,-140.835"/>
</g>
<!-- v5 -->
<g id="node5" class="node"><title>v5</title>
<polygon fill="#f2f4f7" stroke="#57dc4c" stroke-width="2" points="288,-15.0349 288,-84.0349 348,-84.0349 348,-15.0349 288,-15.0349"/>
<text text-anchor="middle" x="298" y="-68.8349" font-family="Arial" font-size="14.00"> </text>
<polyline fill="none" stroke="#57dc4c" stroke-width="2" points="308,-61.0349 308,-84.0349 "/>
<text text-anchor="middle" x="318" y="-68.8349" font-family="Arial" font-size="14.00"> </text>
<polyline fill="none" stroke="#57dc4c" stroke-width="2" points="328,-61.0349 328,-84.0349 "/>
<text text-anchor="middle" x="338" y="-68.8349" font-family="Arial" font-size="14.00"> </text>
<polyline fill="none" stroke="#57dc4c" stroke-width="2" points="288,-61.0349 348,-61.0349 "/>
<text text-anchor="middle" x="318" y="-45.8349" font-family="Arial" font-size="14.00">5. 5</text>
<polyline fill="none" stroke="#57dc4c" stroke-width="2" points="288,-38.0349 348,-38.0349 "/>
<text text-anchor="middle" x="298" y="-22.8349" font-family="Arial" font-size="14.00"> </text>
<polyline fill="none" stroke="#57dc4c" stroke-width="2" points="308,-15.0349 308,-38.0349 "/>
<text text-anchor="middle" x="318" y="-22.8349" font-family="Arial" font-size="14.00"> </text>
<polyline fill="none" stroke="#57dc4c" stroke-width="2" points="328,-15.0349 328,-38.0349 "/>
<text text-anchor="middle" x="338" y="-22.8349" font-family="Arial" font-size="14.00"> </text>
</g>
<!-- v1&#45;&gt;v5 -->
<g id="edge5" class="edge"><title>v1:mI1&#45;&gt;v5:mI5</title>
<path fill="none" stroke="#91b858" stroke-width="2" d="M60,-55.5349C85.267,-55.5349 73.5158,-23.0622 96,-11.5349 134.042,7.96847 149.271,-6.86889 192,-5.5349 218.654,-4.70279 227.902,5.88457 252,-5.5349 271.087,-14.5798 265.763,-39.2496 278.262,-47.1009"/>
<polygon fill="#91b858" stroke="#91b858" points="277.45,-50.5055 288,-49.5349 279.147,-43.7144 277.45,-50.5055"/>
</g>
<!-- v2&#45;&gt;v3 -->
<g id="edge3" class="edge"><title>v2:mI2&#45;&gt;v3:mI3</title>
<path fill="none" stroke="#7ec1df" stroke-width="2" d="M156,-55.5349C191.76,-55.5349 160.195,-121.724 182.279,-135.169"/>
<polygon fill="#7ec1df" stroke="#7ec1df" points="181.456,-138.571 192,-137.535 183.111,-131.77 181.456,-138.571"/>
</g>
<!-- v4 -->
<g id="node4" class="node"><title>v4</title>
<polygon fill="#f2f4f7" stroke="#49724f" stroke-width="2" points="192,-15.0349 192,-84.0349 252,-84.0349 252,-15.0349 192,-15.0349"/>
<text text-anchor="middle" x="202" y="-68.8349" font-family="Arial" font-size="14.00"> </text>
<polyline fill="none" stroke="#49724f" stroke-width="2" points="212,-61.0349 212,-84.0349 "/>
<text text-anchor="middle" x="222" y="-68.8349" font-family="Arial" font-size="14.00"> </text>
<polyline fill="none" stroke="#49724f" stroke-width="2" points="232,-61.0349 232,-84.0349 "/>
<text text-anchor="middle" x="242" y="-68.8349" font-family="Arial" font-size="14.00"> </text>
<polyline fill="none" stroke="#49724f" stroke-width="2" points="192,-61.0349 252,-61.0349 "/>
<text text-anchor="middle" x="222" y="-45.8349" font-family="Arial" font-size="14.00">4. 4</text>
<polyline fill="none" stroke="#49724f" stroke-width="2" points="192,-38.0349 252,-38.0349 "/>
<text text-anchor="middle" x="202" y="-22.8349" font-family="Arial" font-size="14.00"> </text>
<polyline fill="none" stroke="#49724f" stroke-width="2" points="212,-15.0349 212,-38.0349 "/>
<text text-anchor="middle" x="222" y="-22.8349" font-family="Arial" font-size="14.00"> </text>
<polyline fill="none" stroke="#49724f" stroke-width="2" points="232,-15.0349 232,-38.0349 "/>
<text text-anchor="middle" x="242" y="-22.8349" font-family="Arial" font-size="14.00"> </text>
</g>
<!-- v2&#45;&gt;v4 -->
<g id="edge4" class="edge"><title>v2:mI2&#45;&gt;v4:mI4</title>
<path fill="none" stroke="#7ec1df" stroke-width="2" d="M156,-55.5349C168.166,-55.5349 173.209,-52.1599 181.813,-50.4724"/>
<polygon fill="#7ec1df" stroke="#7ec1df" points="182.363,-53.9367 192,-49.5349 181.721,-46.9661 182.363,-53.9367"/>
</g>
<!-- v3&#45;&gt;v5 -->
<g id="edge6" class="edge"><title>v3:mI3&#45;&gt;v5:mI5</title>
<path fill="none" stroke="#5cbb54" stroke-width="2" d="M252,-137.535C290.131,-137.535 254.353,-65.8832 278.048,-51.8887"/>
<polygon fill="#5cbb54" stroke="#5cbb54" points="279.074,-55.2426 288,-49.5349 277.463,-48.4306 279.074,-55.2426"/>
</g>
<!-- v4&#45;&gt;v5 -->
<g id="edge7" class="edge"><title>v4:mI4&#45;&gt;v5:mI5</title>
<path fill="none" stroke="#49724f" stroke-width="2" d="M252,-49.5349C264,-49.5349 269.25,-49.5349 277.875,-49.5349"/>
<polygon fill="#49724f" stroke="#49724f" points="278,-53.035 288,-49.5349 278,-46.035 278,-53.035"/>
</g>
</g>
</svg>
