<?xml version="1.0" encoding="UTF-8" standalone="no"?>
<!DOCTYPE svg PUBLIC "-//W3C//DTD SVG 1.1//EN"
 "http://www.w3.org/Graphics/SVG/1.1/DTD/svg11.dtd">
<!-- Generated by graphviz version 2.34.0 (20130907.0111)
 -->
<!-- Title: NetworkGraph02 Pages: 1 -->
<svg width="428pt" height="182pt"
 viewBox="0.00 0.00 428.00 181.98" xmlns="http://www.w3.org/2000/svg" xmlns:xlink="http://www.w3.org/1999/xlink">
<g id="graph0" class="graph" transform="scale(1 1) rotate(0) translate(4 177.978)">
<title>NetworkGraph02</title>
<polygon fill="white" stroke="white" points="-4,4 -4,-177.978 424,-177.978 424,4 -4,4"/>
<!-- v1 -->
<g id="node1" class="node"><title>v1</title>
<polygon fill="#f2f4f7" stroke="#91b858" stroke-width="2" points="0.5,-22.478 0.5,-91.478 75.5,-91.478 75.5,-22.478 0.5,-22.478"/>
<text text-anchor="middle" x="13" y="-76.278" font-family="Arial" font-size="14.00">0</text>
<polyline fill="none" stroke="#91b858" stroke-width="2" points="25.5,-68.478 25.5,-91.478 "/>
<text text-anchor="middle" x="38" y="-76.278" font-family="Arial" font-size="14.00">1</text>
<polyline fill="none" stroke="#91b858" stroke-width="2" points="50.5,-68.478 50.5,-91.478 "/>
<text text-anchor="middle" x="63" y="-76.278" font-family="Arial" font-size="14.00">1</text>
<polyline fill="none" stroke="#91b858" stroke-width="2" points="0.5,-68.478 75.5,-68.478 "/>
<text text-anchor="middle" x="38" y="-53.278" font-family="Arial" font-size="14.00">1. 1</text>
<polyline fill="none" stroke="#91b858" stroke-width="2" points="0.5,-45.478 75.5,-45.478 "/>
<text text-anchor="middle" x="13" y="-30.278" font-family="Arial" font-size="14.00"> </text>
<polyline fill="none" stroke="#91b858" stroke-width="2" points="25.5,-22.478 25.5,-45.478 "/>
<text text-anchor="middle" x="38" y="-30.278" font-family="Arial" font-size="14.00"> </text>
<polyline fill="none" stroke="#91b858" stroke-width="2" points="50.5,-22.478 50.5,-45.478 "/>
<text text-anchor="middle" x="63" y="-30.278" font-family="Arial" font-size="14.00"> </text>
</g>
<!-- v2 -->
<g id="node2" class="node"><title>v2</title>
<polygon fill="#f2f4f7" stroke="#7ec1df" stroke-width="2" points="112.5,-22.478 112.5,-91.478 187.5,-91.478 187.5,-22.478 112.5,-22.478"/>
<text text-anchor="middle" x="125" y="-76.278" font-family="Arial" font-size="14.00">1</text>
<polyline fill="none" stroke="#7ec1df" stroke-width="2" points="137.5,-68.478 137.5,-91.478 "/>
<text text-anchor="middle" x="150" y="-76.278" font-family="Arial" font-size="14.00">2</text>
<polyline fill="none" stroke="#7ec1df" stroke-width="2" points="162.5,-68.478 162.5,-91.478 "/>
<text text-anchor="middle" x="175" y="-76.278" font-family="Arial" font-size="14.00">3</text>
<polyline fill="none" stroke="#7ec1df" stroke-width="2" points="112.5,-68.478 187.5,-68.478 "/>
<text text-anchor="middle" x="150" y="-53.278" font-family="Arial" font-size="14.00">2. 2</text>
<polyline fill="none" stroke="#7ec1df" stroke-width="2" points="112.5,-45.478 187.5,-45.478 "/>
<text text-anchor="middle" x="125" y="-30.278" font-family="Arial" font-size="14.00"> </text>
<polyline fill="none" stroke="#7ec1df" stroke-width="2" points="137.5,-22.478 137.5,-45.478 "/>
<text text-anchor="middle" x="150" y="-30.278" font-family="Arial" font-size="14.00"> </text>
<polyline fill="none" stroke="#7ec1df" stroke-width="2" points="162.5,-22.478 162.5,-45.478 "/>
<text text-anchor="middle" x="175" y="-30.278" font-family="Arial" font-size="14.00"> </text>
</g>
<!-- v1&#45;&gt;v2 -->
<g id="edge1" class="edge"><title>v1:mI1&#45;&gt;v2:mI2</title>
<path fill="none" stroke="#91b858" stroke-width="2" d="M76,-56.978C88,-56.978 93.25,-56.978 101.875,-56.978"/>
<polygon fill="#91b858" stroke="#91b858" points="102,-60.4781 112,-56.978 102,-53.4781 102,-60.4781"/>
</g>
<!-- v3 -->
<g id="node3" class="node"><title>v3</title>
<polygon fill="#f2f4f7" stroke="#5cbb54" stroke-width="2" points="224.5,-104.478 224.5,-173.478 299.5,-173.478 299.5,-104.478 224.5,-104.478"/>
<text text-anchor="middle" x="237" y="-158.278" font-family="Arial" font-size="14.00">3</text>
<polyline fill="none" stroke="#5cbb54" stroke-width="2" points="249.5,-150.478 249.5,-173.478 "/>
<text text-anchor="middle" x="262" y="-158.278" font-family="Arial" font-size="14.00">3</text>
<polyline fill="none" stroke="#5cbb54" stroke-width="2" points="274.5,-150.478 274.5,-173.478 "/>
<text text-anchor="middle" x="287" y="-158.278" font-family="Arial" font-size="14.00">6</text>
<polyline fill="none" stroke="#5cbb54" stroke-width="2" points="224.5,-150.478 299.5,-150.478 "/>
<text text-anchor="middle" x="262" y="-135.278" font-family="Arial" font-size="14.00">3. 3</text>
<polyline fill="none" stroke="#5cbb54" stroke-width="2" points="224.5,-127.478 299.5,-127.478 "/>
<text text-anchor="middle" x="237" y="-112.278" font-family="Arial" font-size="14.00"> </text>
<polyline fill="none" stroke="#5cbb54" stroke-width="2" points="249.5,-104.478 249.5,-127.478 "/>
<text text-anchor="middle" x="262" y="-112.278" font-family="Arial" font-size="14.00"> </text>
<polyline fill="none" stroke="#5cbb54" stroke-width="2" points="274.5,-104.478 274.5,-127.478 "/>
<text text-anchor="middle" x="287" y="-112.278" font-family="Arial" font-size="14.00"> </text>
</g>
<!-- v1&#45;&gt;v3 -->
<g id="edge2" class="edge"><title>v1:mI1&#45;&gt;v3:mI3</title>
<path fill="none" stroke="#91b858" stroke-width="2" d="M76,-56.978C101.267,-56.978 91.2334,-86.5846 112,-100.978 152.333,-128.933 169.16,-137.812 213.99,-138.867"/>
<polygon fill="#91b858" stroke="#91b858" points="213.962,-142.367 224,-138.978 214.039,-135.368 213.962,-142.367"/>
</g>
<!-- v5 -->
<g id="node5" class="node"><title>v5</title>
<polygon fill="#f2f4f7" stroke="#57dc4c" stroke-width="2" points="336.5,-16.478 336.5,-85.478 419.5,-85.478 419.5,-16.478 336.5,-16.478"/>
<text text-anchor="middle" x="349" y="-70.278" font-family="Arial" font-size="14.00">7</text>
<polyline fill="none" stroke="#57dc4c" stroke-width="2" points="361.5,-62.478 361.5,-85.478 "/>
<text text-anchor="middle" x="374" y="-70.278" font-family="Arial" font-size="14.00">5</text>
<polyline fill="none" stroke="#57dc4c" stroke-width="2" points="386.5,-62.478 386.5,-85.478 "/>
<text text-anchor="middle" x="403" y="-70.278" font-family="Arial" font-size="14.00">12</text>
<polyline fill="none" stroke="#57dc4c" stroke-width="2" points="336.5,-62.478 419.5,-62.478 "/>
<text text-anchor="middle" x="378" y="-47.278" font-family="Arial" font-size="14.00">5. 5</text>
<polyline fill="none" stroke="#57dc4c" stroke-width="2" points="336.5,-39.478 419.5,-39.478 "/>
<text text-anchor="middle" x="350" y="-24.278" font-family="Arial" font-size="14.00"> </text>
<polyline fill="none" stroke="#57dc4c" stroke-width="2" points="363.5,-16.478 363.5,-39.478 "/>
<text text-anchor="middle" x="377.5" y="-24.278" font-family="Arial" font-size="14.00"> </text>
<polyline fill="none" stroke="#57dc4c" stroke-width="2" points="391.5,-16.478 391.5,-39.478 "/>
<text text-anchor="middle" x="405.5" y="-24.278" font-family="Arial" font-size="14.00"> </text>
</g>
<!-- v1&#45;&gt;v5 -->
<g id="edge5" class="edge"><title>v1:mI1&#45;&gt;v5:mI5</title>
<path fill="none" stroke="#91b858" stroke-width="2" d="M76,-56.978C101.267,-56.978 89.4647,-24.4052 112,-12.978 156.46,9.56658 174.169,-8.31183 224,-6.97802 257.766,-6.07423 269.476,7.48665 300,-6.97802 319.087,-16.0229 313.763,-40.6927 326.262,-48.544"/>
<polygon fill="#91b858" stroke="#91b858" points="325.45,-51.9486 336,-50.978 327.147,-45.1575 325.45,-51.9486"/>
</g>
<!-- v2&#45;&gt;v3 -->
<g id="edge3" class="edge"><title>v2:mI2&#45;&gt;v3:mI3</title>
<path fill="none" stroke="#7ec1df" stroke-width="2" d="M188,-56.978C223.76,-56.978 192.195,-123.168 214.279,-136.612"/>
<polygon fill="#7ec1df" stroke="#7ec1df" points="213.456,-140.014 224,-138.978 215.111,-133.213 213.456,-140.014"/>
</g>
<!-- v4 -->
<g id="node4" class="node"><title>v4</title>
<polygon fill="#f2f4f7" stroke="#49724f" stroke-width="2" points="224.5,-16.478 224.5,-85.478 299.5,-85.478 299.5,-16.478 224.5,-16.478"/>
<text text-anchor="middle" x="237" y="-70.278" font-family="Arial" font-size="14.00">3</text>
<polyline fill="none" stroke="#49724f" stroke-width="2" points="249.5,-62.478 249.5,-85.478 "/>
<text text-anchor="middle" x="262" y="-70.278" font-family="Arial" font-size="14.00">4</text>
<polyline fill="none" stroke="#49724f" stroke-width="2" points="274.5,-62.478 274.5,-85.478 "/>
<text text-anchor="middle" x="287" y="-70.278" font-family="Arial" font-size="14.00">7</text>
<polyline fill="none" stroke="#49724f" stroke-width="2" points="224.5,-62.478 299.5,-62.478 "/>
<text text-anchor="middle" x="262" y="-47.278" font-family="Arial" font-size="14.00">4. 4</text>
<polyline fill="none" stroke="#49724f" stroke-width="2" points="224.5,-39.478 299.5,-39.478 "/>
<text text-anchor="middle" x="237" y="-24.278" font-family="Arial" font-size="14.00"> </text>
<polyline fill="none" stroke="#49724f" stroke-width="2" points="249.5,-16.478 249.5,-39.478 "/>
<text text-anchor="middle" x="262" y="-24.278" font-family="Arial" font-size="14.00"> </text>
<polyline fill="none" stroke="#49724f" stroke-width="2" points="274.5,-16.478 274.5,-39.478 "/>
<text text-anchor="middle" x="287" y="-24.278" font-family="Arial" font-size="14.00"> </text>
</g>
<!-- v2&#45;&gt;v4 -->
<g id="edge4" class="edge"><title>v2:mI2&#45;&gt;v4:mI4</title>
<path fill="none" stroke="#7ec1df" stroke-width="2" d="M188,-56.978C200.166,-56.978 205.209,-53.603 213.813,-51.9155"/>
<polygon fill="#7ec1df" stroke="#7ec1df" points="214.363,-55.3798 224,-50.978 213.721,-48.4092 214.363,-55.3798"/>
</g>
<!-- v3&#45;&gt;v5 -->
<g id="edge6" class="edge"><title>v3:mI3&#45;&gt;v5:mI5</title>
<path fill="none" stroke="#5cbb54" stroke-width="2" d="M300,-138.978C338.131,-138.978 302.353,-67.3263 326.048,-53.3318"/>
<polygon fill="#5cbb54" stroke="#5cbb54" points="327.074,-56.6857 336,-50.978 325.463,-49.8737 327.074,-56.6857"/>
</g>
<!-- v4&#45;&gt;v5 -->
<g id="edge7" class="edge"><title>v4:mI4&#45;&gt;v5:mI5</title>
<path fill="none" stroke="#49724f" stroke-width="2" d="M300,-50.978C312,-50.978 317.25,-50.978 325.875,-50.978"/>
<polygon fill="#49724f" stroke="#49724f" points="326,-54.4781 336,-50.978 326,-47.4781 326,-54.4781"/>
</g>
</g>
</svg>
