<?xml version="1.0" encoding="UTF-8" standalone="no"?>
<!DOCTYPE svg PUBLIC "-//W3C//DTD SVG 1.1//EN"
 "http://www.w3.org/Graphics/SVG/1.1/DTD/svg11.dtd">
<!-- Generated by graphviz version 2.34.0 (20130907.0111)
 -->
<!-- Title: NetworkGraph Pages: 1 -->
<svg width="428pt" height="166pt"
 viewBox="0.00 0.00 428.00 166.00" xmlns="http://www.w3.org/2000/svg" xmlns:xlink="http://www.w3.org/1999/xlink">
<g id="graph0" class="graph" transform="scale(1 1) rotate(0) translate(4 162)">
<title>NetworkGraph</title>
<polygon fill="white" stroke="white" points="-4,4 -4,-162 424,-162 424,4 -4,4"/>
<!-- v1 -->
<g id="node1" class="node"><title>v1</title>
<polygon fill="#f2f4f7" stroke="#34c381" stroke-width="2" points="0.5,-56.5 0.5,-125.5 75.5,-125.5 75.5,-56.5 0.5,-56.5"/>
<text text-anchor="middle" x="13" y="-110.3" font-family="Arial" font-size="14.00">0</text>
<polyline fill="none" stroke="#34c381" stroke-width="2" points="25.5,-102.5 25.5,-125.5 "/>
<text text-anchor="middle" x="38" y="-110.3" font-family="Arial" font-size="14.00">1</text>
<polyline fill="none" stroke="#34c381" stroke-width="2" points="50.5,-102.5 50.5,-125.5 "/>
<text text-anchor="middle" x="63" y="-110.3" font-family="Arial" font-size="14.00">1</text>
<polyline fill="none" stroke="#34c381" stroke-width="2" points="0.5,-102.5 75.5,-102.5 "/>
<text text-anchor="middle" x="38" y="-87.3" font-family="Arial" font-size="14.00">1. 1</text>
<polyline fill="none" stroke="#34c381" stroke-width="2" points="0.5,-79.5 75.5,-79.5 "/>
<text text-anchor="middle" x="13" y="-64.3" font-family="Arial" font-size="14.00">0</text>
<polyline fill="none" stroke="#34c381" stroke-width="2" points="25.5,-56.5 25.5,-79.5 "/>
<text text-anchor="middle" x="38" y="-64.3" font-family="Arial" font-size="14.00">0</text>
<polyline fill="none" stroke="#34c381" stroke-width="2" points="50.5,-56.5 50.5,-79.5 "/>
<text text-anchor="middle" x="63" y="-64.3" font-family="Arial" font-size="14.00">1</text>
</g>
<!-- v2 -->
<g id="node2" class="node"><title>v2</title>
<polygon fill="#f2f4f7" stroke="#d07a9a" stroke-width="2" points="112.5,-25.5 112.5,-94.5 187.5,-94.5 187.5,-25.5 112.5,-25.5"/>
<text text-anchor="middle" x="125" y="-79.3" font-family="Arial" font-size="14.00">1</text>
<polyline fill="none" stroke="#d07a9a" stroke-width="2" points="137.5,-71.5 137.5,-94.5 "/>
<text text-anchor="middle" x="150" y="-79.3" font-family="Arial" font-size="14.00">2</text>
<polyline fill="none" stroke="#d07a9a" stroke-width="2" points="162.5,-71.5 162.5,-94.5 "/>
<text text-anchor="middle" x="175" y="-79.3" font-family="Arial" font-size="14.00">3</text>
<polyline fill="none" stroke="#d07a9a" stroke-width="2" points="112.5,-71.5 187.5,-71.5 "/>
<text text-anchor="middle" x="150" y="-56.3" font-family="Arial" font-size="14.00">2. 2</text>
<polyline fill="none" stroke="#d07a9a" stroke-width="2" points="112.5,-48.5 187.5,-48.5 "/>
<text text-anchor="middle" x="125" y="-33.3" font-family="Arial" font-size="14.00">1</text>
<polyline fill="none" stroke="#d07a9a" stroke-width="2" points="137.5,-25.5 137.5,-48.5 "/>
<text text-anchor="middle" x="150" y="-33.3" font-family="Arial" font-size="14.00">0</text>
<polyline fill="none" stroke="#d07a9a" stroke-width="2" points="162.5,-25.5 162.5,-48.5 "/>
<text text-anchor="middle" x="175" y="-33.3" font-family="Arial" font-size="14.00">3</text>
</g>
<!-- v1&#45;&gt;v2 -->
<g id="edge1" class="edge"><title>v1:mI1&#45;&gt;v2:mI2</title>
<path fill="none" stroke="#34c381" stroke-width="2" d="M76,-91C92.9907,-91 92.2756,-70.9268 102.35,-63.0857"/>
<polygon fill="#34c381" stroke="#34c381" points="103.541,-66.3795 112,-60 101.409,-59.7121 103.541,-66.3795"/>
</g>
<!-- v3 -->
<g id="node3" class="node"><title>v3</title>
<polygon fill="#f2f4f7" stroke="#86cebe" stroke-width="2" points="224.5,-88.5 224.5,-157.5 299.5,-157.5 299.5,-88.5 224.5,-88.5"/>
<text text-anchor="middle" x="237" y="-142.3" font-family="Arial" font-size="14.00">3</text>
<polyline fill="none" stroke="#86cebe" stroke-width="2" points="249.5,-134.5 249.5,-157.5 "/>
<text text-anchor="middle" x="262" y="-142.3" font-family="Arial" font-size="14.00">3</text>
<polyline fill="none" stroke="#86cebe" stroke-width="2" points="274.5,-134.5 274.5,-157.5 "/>
<text text-anchor="middle" x="287" y="-142.3" font-family="Arial" font-size="14.00">6</text>
<polyline fill="none" stroke="#86cebe" stroke-width="2" points="224.5,-134.5 299.5,-134.5 "/>
<text text-anchor="middle" x="262" y="-119.3" font-family="Arial" font-size="14.00">3. 3</text>
<polyline fill="none" stroke="#86cebe" stroke-width="2" points="224.5,-111.5 299.5,-111.5 "/>
<text text-anchor="middle" x="237" y="-96.3" font-family="Arial" font-size="14.00">4</text>
<polyline fill="none" stroke="#86cebe" stroke-width="2" points="249.5,-88.5 249.5,-111.5 "/>
<text text-anchor="middle" x="262" y="-96.3" font-family="Arial" font-size="14.00">1</text>
<polyline fill="none" stroke="#86cebe" stroke-width="2" points="274.5,-88.5 274.5,-111.5 "/>
<text text-anchor="middle" x="287" y="-96.3" font-family="Arial" font-size="14.00">7</text>
</g>
<!-- v1&#45;&gt;v3 -->
<g id="edge3" class="edge"><title>v1:mI1&#45;&gt;v3:mI3</title>
<path fill="none" stroke="#34c381" stroke-width="2" d="M76,-91C93.0113,-91 95.5487,-99.6713 112,-104 157.394,-115.944 171.549,-122.102 213.885,-122.909"/>
<polygon fill="#34c381" stroke="#34c381" points="213.969,-126.409 224,-123 214.032,-119.41 213.969,-126.409"/>
</g>
<!-- v2&#45;&gt;v3 -->
<g id="edge2" class="edge"><title>v2:mI2&#45;&gt;v3:mI3</title>
<path fill="none" stroke="#d07a9a" stroke-width="2" d="M188,-60C215.966,-60 198.249,-107.377 214.081,-119.961"/>
<polygon fill="#d07a9a" stroke="#d07a9a" points="213.413,-123.417 224,-123 215.464,-116.724 213.413,-123.417"/>
</g>
<!-- v4 -->
<g id="node4" class="node"><title>v4</title>
<polygon fill="#f2f4f7" stroke="#695671" stroke-width="2" points="224.5,-0.5 224.5,-69.5 299.5,-69.5 299.5,-0.5 224.5,-0.5"/>
<text text-anchor="middle" x="237" y="-54.3" font-family="Arial" font-size="14.00">3</text>
<polyline fill="none" stroke="#695671" stroke-width="2" points="249.5,-46.5 249.5,-69.5 "/>
<text text-anchor="middle" x="262" y="-54.3" font-family="Arial" font-size="14.00">4</text>
<polyline fill="none" stroke="#695671" stroke-width="2" points="274.5,-46.5 274.5,-69.5 "/>
<text text-anchor="middle" x="287" y="-54.3" font-family="Arial" font-size="14.00">7</text>
<polyline fill="none" stroke="#695671" stroke-width="2" points="224.5,-46.5 299.5,-46.5 "/>
<text text-anchor="middle" x="262" y="-31.3" font-family="Arial" font-size="14.00">4. 4</text>
<polyline fill="none" stroke="#695671" stroke-width="2" points="224.5,-23.5 299.5,-23.5 "/>
<text text-anchor="middle" x="237" y="-8.3" font-family="Arial" font-size="14.00">3</text>
<polyline fill="none" stroke="#695671" stroke-width="2" points="249.5,-0.5 249.5,-23.5 "/>
<text text-anchor="middle" x="262" y="-8.3" font-family="Arial" font-size="14.00">0</text>
<polyline fill="none" stroke="#695671" stroke-width="2" points="274.5,-0.5 274.5,-23.5 "/>
<text text-anchor="middle" x="287" y="-8.3" font-family="Arial" font-size="14.00">7</text>
</g>
<!-- v2&#45;&gt;v4 -->
<g id="edge4" class="edge"><title>v2:mI2&#45;&gt;v4:mI4</title>
<path fill="none" stroke="#d07a9a" stroke-width="2" d="M188,-60C203.371,-60 204.77,-44.4345 214.247,-37.8678"/>
<polygon fill="#d07a9a" stroke="#d07a9a" points="215.394,-41.179 224,-35 213.419,-34.4633 215.394,-41.179"/>
</g>
<!-- v5 -->
<g id="node5" class="node"><title>v5</title>
<polygon fill="#f2f4f7" stroke="#c8e1a6" stroke-width="2" points="336.5,-44.5 336.5,-113.5 419.5,-113.5 419.5,-44.5 336.5,-44.5"/>
<text text-anchor="middle" x="349" y="-98.3" font-family="Arial" font-size="14.00">7</text>
<polyline fill="none" stroke="#c8e1a6" stroke-width="2" points="361.5,-90.5 361.5,-113.5 "/>
<text text-anchor="middle" x="374" y="-98.3" font-family="Arial" font-size="14.00">5</text>
<polyline fill="none" stroke="#c8e1a6" stroke-width="2" points="386.5,-90.5 386.5,-113.5 "/>
<text text-anchor="middle" x="403" y="-98.3" font-family="Arial" font-size="14.00">12</text>
<polyline fill="none" stroke="#c8e1a6" stroke-width="2" points="336.5,-90.5 419.5,-90.5 "/>
<text text-anchor="middle" x="378" y="-75.3" font-family="Arial" font-size="14.00">5. 5</text>
<polyline fill="none" stroke="#c8e1a6" stroke-width="2" points="336.5,-67.5 419.5,-67.5 "/>
<text text-anchor="middle" x="349" y="-52.3" font-family="Arial" font-size="14.00">7</text>
<polyline fill="none" stroke="#c8e1a6" stroke-width="2" points="361.5,-44.5 361.5,-67.5 "/>
<text text-anchor="middle" x="374" y="-52.3" font-family="Arial" font-size="14.00">0</text>
<polyline fill="none" stroke="#c8e1a6" stroke-width="2" points="386.5,-44.5 386.5,-67.5 "/>
<text text-anchor="middle" x="403" y="-52.3" font-family="Arial" font-size="14.00">12</text>
</g>
<!-- v3&#45;&gt;v5 -->
<g id="edge5" class="edge"><title>v3:mI3&#45;&gt;v5:mI5</title>
<path fill="none" stroke="#86cebe" stroke-width="2" d="M300,-123C321.122,-123 314.431,-92.2532 326.426,-82.1644"/>
<polygon fill="#86cebe" stroke="#86cebe" points="327.604,-85.4615 336,-79 325.407,-78.8152 327.604,-85.4615"/>
</g>
<!-- v4&#45;&gt;v5 -->
<g id="edge6" class="edge"><title>v4:mI4&#45;&gt;v5:mI5</title>
<path fill="none" stroke="#695671" stroke-width="2" d="M300,-35C321.122,-35 314.431,-65.7468 326.426,-75.8356"/>
<polygon fill="#695671" stroke="#695671" points="325.407,-79.1848 336,-79 327.604,-72.5385 325.407,-79.1848"/>
</g>
</g>
</svg>
