<?xml version="1.0" encoding="UTF-8" standalone="no"?>
<!DOCTYPE svg PUBLIC "-//W3C//DTD SVG 1.1//EN"
 "http://www.w3.org/Graphics/SVG/1.1/DTD/svg11.dtd">
<!-- Generated by graphviz version 2.34.0 (20130907.0111)
 -->
<!-- Title: NetworkGraph Pages: 1 -->
<svg width="1268pt" height="222pt"
 viewBox="0.00 0.00 1268.00 222.16" xmlns="http://www.w3.org/2000/svg" xmlns:xlink="http://www.w3.org/1999/xlink">
<g id="graph0" class="graph" transform="scale(1 1) rotate(0) translate(4 218.164)">
<title>NetworkGraph</title>
<polygon fill="white" stroke="white" points="-4,4 -4,-218.164 1264,-218.164 1264,4 -4,4"/>
<!-- v1 -->
<g id="node1" class="node"><title>v1</title>
<polygon fill="#f2f4f7" stroke="#d94fa3" stroke-width="2" points="0.5,-100.664 0.5,-169.664 91.5,-169.664 91.5,-100.664 0.5,-100.664"/>
<text text-anchor="middle" x="13" y="-154.464" font-family="Arial" font-size="14.00">0</text>
<polyline fill="none" stroke="#d94fa3" stroke-width="2" points="25.5,-146.664 25.5,-169.664 "/>
<text text-anchor="middle" x="42" y="-154.464" font-family="Arial" font-size="14.00">12</text>
<polyline fill="none" stroke="#d94fa3" stroke-width="2" points="58.5,-146.664 58.5,-169.664 "/>
<text text-anchor="middle" x="75" y="-154.464" font-family="Arial" font-size="14.00">12</text>
<polyline fill="none" stroke="#d94fa3" stroke-width="2" points="0.5,-146.664 91.5,-146.664 "/>
<text text-anchor="middle" x="46" y="-131.464" font-family="Arial" font-size="14.00">1. 23423</text>
<polyline fill="none" stroke="#d94fa3" stroke-width="2" points="0.5,-123.664 91.5,-123.664 "/>
<text text-anchor="middle" x="14" y="-108.464" font-family="Arial" font-size="14.00">0</text>
<polyline fill="none" stroke="#d94fa3" stroke-width="2" points="27.5,-100.664 27.5,-123.664 "/>
<text text-anchor="middle" x="41.5" y="-108.464" font-family="Arial" font-size="14.00">0</text>
<polyline fill="none" stroke="#d94fa3" stroke-width="2" points="55.5,-100.664 55.5,-123.664 "/>
<text text-anchor="middle" x="73.5" y="-108.464" font-family="Arial" font-size="14.00">12</text>
</g>
<!-- v2 -->
<g id="node2" class="node"><title>v2</title>
<polygon fill="#f2f4f7" stroke="#57e79c" stroke-width="2" points="128.5,-144.664 128.5,-213.664 219.5,-213.664 219.5,-144.664 128.5,-144.664"/>
<text text-anchor="middle" x="145" y="-198.464" font-family="Arial" font-size="14.00">12</text>
<polyline fill="none" stroke="#57e79c" stroke-width="2" points="161.5,-190.664 161.5,-213.664 "/>
<text text-anchor="middle" x="174" y="-198.464" font-family="Arial" font-size="14.00">2</text>
<polyline fill="none" stroke="#57e79c" stroke-width="2" points="186.5,-190.664 186.5,-213.664 "/>
<text text-anchor="middle" x="203" y="-198.464" font-family="Arial" font-size="14.00">14</text>
<polyline fill="none" stroke="#57e79c" stroke-width="2" points="128.5,-190.664 219.5,-190.664 "/>
<text text-anchor="middle" x="174" y="-175.464" font-family="Arial" font-size="14.00">2. 4</text>
<polyline fill="none" stroke="#57e79c" stroke-width="2" points="128.5,-167.664 219.5,-167.664 "/>
<text text-anchor="middle" x="145" y="-152.464" font-family="Arial" font-size="14.00">16</text>
<polyline fill="none" stroke="#57e79c" stroke-width="2" points="161.5,-144.664 161.5,-167.664 "/>
<text text-anchor="middle" x="174" y="-152.464" font-family="Arial" font-size="14.00">4</text>
<polyline fill="none" stroke="#57e79c" stroke-width="2" points="186.5,-144.664 186.5,-167.664 "/>
<text text-anchor="middle" x="203" y="-152.464" font-family="Arial" font-size="14.00">18</text>
</g>
<!-- v1&#45;&gt;v2 -->
<g id="edge5" class="edge"><title>v1:mI1&#45;&gt;v2:mI2</title>
<path fill="none" stroke="#d94fa3" stroke-width="2" d="M92,-135.164C113.122,-135.164 106.431,-165.911 118.426,-176"/>
<polygon fill="#d94fa3" stroke="#d94fa3" points="117.407,-179.349 128,-179.164 119.604,-172.703 117.407,-179.349"/>
</g>
<!-- v4 -->
<g id="node4" class="node"><title>v4</title>
<polygon fill="#f2f4f7" stroke="#d45383" stroke-width="2" points="128.5,-56.6643 128.5,-125.664 219.5,-125.664 219.5,-56.6643 128.5,-56.6643"/>
<text text-anchor="middle" x="145" y="-110.464" font-family="Arial" font-size="14.00">12</text>
<polyline fill="none" stroke="#d45383" stroke-width="2" points="161.5,-102.664 161.5,-125.664 "/>
<text text-anchor="middle" x="174" y="-110.464" font-family="Arial" font-size="14.00">4</text>
<polyline fill="none" stroke="#d45383" stroke-width="2" points="186.5,-102.664 186.5,-125.664 "/>
<text text-anchor="middle" x="203" y="-110.464" font-family="Arial" font-size="14.00">16</text>
<polyline fill="none" stroke="#d45383" stroke-width="2" points="128.5,-102.664 219.5,-102.664 "/>
<text text-anchor="middle" x="174" y="-87.4643" font-family="Arial" font-size="14.00">4. 4324</text>
<polyline fill="none" stroke="#d45383" stroke-width="2" points="128.5,-79.6643 219.5,-79.6643 "/>
<text text-anchor="middle" x="145" y="-64.4643" font-family="Arial" font-size="14.00">12</text>
<polyline fill="none" stroke="#d45383" stroke-width="2" points="161.5,-56.6643 161.5,-79.6643 "/>
<text text-anchor="middle" x="174" y="-64.4643" font-family="Arial" font-size="14.00">0</text>
<polyline fill="none" stroke="#d45383" stroke-width="2" points="186.5,-56.6643 186.5,-79.6643 "/>
<text text-anchor="middle" x="203" y="-64.4643" font-family="Arial" font-size="14.00">16</text>
</g>
<!-- v1&#45;&gt;v4 -->
<g id="edge7" class="edge"><title>v1:mI1&#45;&gt;v4:mI4</title>
<path fill="none" stroke="#d94fa3" stroke-width="2" d="M92,-135.164C113.122,-135.164 106.431,-104.417 118.426,-94.3287"/>
<polygon fill="#d94fa3" stroke="#d94fa3" points="119.604,-97.6258 128,-91.1643 117.407,-90.9795 119.604,-97.6258"/>
</g>
<!-- v3 -->
<g id="node3" class="node"><title>v3</title>
<polygon fill="#f2f4f7" stroke="#a875e1" stroke-width="2" points="256.5,-144.664 256.5,-213.664 347.5,-213.664 347.5,-144.664 256.5,-144.664"/>
<text text-anchor="middle" x="273" y="-198.464" font-family="Arial" font-size="14.00">14</text>
<polyline fill="none" stroke="#a875e1" stroke-width="2" points="289.5,-190.664 289.5,-213.664 "/>
<text text-anchor="middle" x="302" y="-198.464" font-family="Arial" font-size="14.00">3</text>
<polyline fill="none" stroke="#a875e1" stroke-width="2" points="314.5,-190.664 314.5,-213.664 "/>
<text text-anchor="middle" x="331" y="-198.464" font-family="Arial" font-size="14.00">17</text>
<polyline fill="none" stroke="#a875e1" stroke-width="2" points="256.5,-190.664 347.5,-190.664 "/>
<text text-anchor="middle" x="302" y="-175.464" font-family="Arial" font-size="14.00">3. 324324</text>
<polyline fill="none" stroke="#a875e1" stroke-width="2" points="256.5,-167.664 347.5,-167.664 "/>
<text text-anchor="middle" x="273" y="-152.464" font-family="Arial" font-size="14.00">18</text>
<polyline fill="none" stroke="#a875e1" stroke-width="2" points="289.5,-144.664 289.5,-167.664 "/>
<text text-anchor="middle" x="302" y="-152.464" font-family="Arial" font-size="14.00">4</text>
<polyline fill="none" stroke="#a875e1" stroke-width="2" points="314.5,-144.664 314.5,-167.664 "/>
<text text-anchor="middle" x="331" y="-152.464" font-family="Arial" font-size="14.00">21</text>
</g>
<!-- v2&#45;&gt;v3 -->
<g id="edge6" class="edge"><title>v2:mI2&#45;&gt;v3:mI3</title>
<path fill="none" stroke="#57e79c" stroke-width="2" d="M220,-179.164C232,-179.164 237.25,-179.164 245.875,-179.164"/>
<polygon fill="#57e79c" stroke="#57e79c" points="246,-182.664 256,-179.164 246,-175.664 246,-182.664"/>
</g>
<!-- v6 -->
<g id="node6" class="node"><title>v6</title>
<polygon fill="#f2f4f7" stroke="#eee3bd" stroke-width="2" points="384.5,-106.664 384.5,-175.664 475.5,-175.664 475.5,-106.664 384.5,-106.664"/>
<text text-anchor="middle" x="401" y="-160.464" font-family="Arial" font-size="14.00">21</text>
<polyline fill="none" stroke="#eee3bd" stroke-width="2" points="417.5,-152.664 417.5,-175.664 "/>
<text text-anchor="middle" x="430" y="-160.464" font-family="Arial" font-size="14.00">3</text>
<polyline fill="none" stroke="#eee3bd" stroke-width="2" points="442.5,-152.664 442.5,-175.664 "/>
<text text-anchor="middle" x="459" y="-160.464" font-family="Arial" font-size="14.00">24</text>
<polyline fill="none" stroke="#eee3bd" stroke-width="2" points="384.5,-152.664 475.5,-152.664 "/>
<text text-anchor="middle" x="430" y="-137.464" font-family="Arial" font-size="14.00">6. 4324</text>
<polyline fill="none" stroke="#eee3bd" stroke-width="2" points="384.5,-129.664 475.5,-129.664 "/>
<text text-anchor="middle" x="401" y="-114.464" font-family="Arial" font-size="14.00">21</text>
<polyline fill="none" stroke="#eee3bd" stroke-width="2" points="417.5,-106.664 417.5,-129.664 "/>
<text text-anchor="middle" x="430" y="-114.464" font-family="Arial" font-size="14.00">0</text>
<polyline fill="none" stroke="#eee3bd" stroke-width="2" points="442.5,-106.664 442.5,-129.664 "/>
<text text-anchor="middle" x="459" y="-114.464" font-family="Arial" font-size="14.00">24</text>
</g>
<!-- v3&#45;&gt;v6 -->
<g id="edge9" class="edge"><title>v3:mI3&#45;&gt;v6:mI6</title>
<path fill="none" stroke="#a875e1" stroke-width="2" d="M348,-179.164C367.084,-179.164 363.428,-153.594 374.34,-144.404"/>
<polygon fill="#a875e1" stroke="#a875e1" points="375.632,-147.663 384,-141.164 373.406,-141.026 375.632,-147.663"/>
</g>
<!-- v5 -->
<g id="node5" class="node"><title>v5</title>
<polygon fill="#f2f4f7" stroke="#449b5e" stroke-width="2" points="256.5,-56.6643 256.5,-125.664 347.5,-125.664 347.5,-56.6643 256.5,-56.6643"/>
<text text-anchor="middle" x="273" y="-110.464" font-family="Arial" font-size="14.00">16</text>
<polyline fill="none" stroke="#449b5e" stroke-width="2" points="289.5,-102.664 289.5,-125.664 "/>
<text text-anchor="middle" x="302" y="-110.464" font-family="Arial" font-size="14.00">5</text>
<polyline fill="none" stroke="#449b5e" stroke-width="2" points="314.5,-102.664 314.5,-125.664 "/>
<text text-anchor="middle" x="331" y="-110.464" font-family="Arial" font-size="14.00">21</text>
<polyline fill="none" stroke="#449b5e" stroke-width="2" points="256.5,-102.664 347.5,-102.664 "/>
<text text-anchor="middle" x="302" y="-87.4643" font-family="Arial" font-size="14.00">5. 4</text>
<polyline fill="none" stroke="#449b5e" stroke-width="2" points="256.5,-79.6643 347.5,-79.6643 "/>
<text text-anchor="middle" x="273" y="-64.4643" font-family="Arial" font-size="14.00">16</text>
<polyline fill="none" stroke="#449b5e" stroke-width="2" points="289.5,-56.6643 289.5,-79.6643 "/>
<text text-anchor="middle" x="302" y="-64.4643" font-family="Arial" font-size="14.00">0</text>
<polyline fill="none" stroke="#449b5e" stroke-width="2" points="314.5,-56.6643 314.5,-79.6643 "/>
<text text-anchor="middle" x="331" y="-64.4643" font-family="Arial" font-size="14.00">21</text>
</g>
<!-- v4&#45;&gt;v5 -->
<g id="edge8" class="edge"><title>v4:mI4&#45;&gt;v5:mI5</title>
<path fill="none" stroke="#d45383" stroke-width="2" d="M220,-91.1643C232,-91.1643 237.25,-91.1643 245.875,-91.1643"/>
<polygon fill="#d45383" stroke="#d45383" points="246,-94.6644 256,-91.1643 246,-87.6644 246,-94.6644"/>
</g>
<!-- v7 -->
<g id="node7" class="node"><title>v7</title>
<polygon fill="#f2f4f7" stroke="#b4eaef" stroke-width="2" points="512.5,-43.6643 512.5,-112.664 619.5,-112.664 619.5,-43.6643 512.5,-43.6643"/>
<text text-anchor="middle" x="531.5" y="-97.4643" font-family="Arial" font-size="14.00">24</text>
<polyline fill="none" stroke="#b4eaef" stroke-width="2" points="550.5,-89.6643 550.5,-112.664 "/>
<text text-anchor="middle" x="565.5" y="-97.4643" font-family="Arial" font-size="14.00">4</text>
<polyline fill="none" stroke="#b4eaef" stroke-width="2" points="580.5,-89.6643 580.5,-112.664 "/>
<text text-anchor="middle" x="600" y="-97.4643" font-family="Arial" font-size="14.00">28</text>
<polyline fill="none" stroke="#b4eaef" stroke-width="2" points="512.5,-89.6643 619.5,-89.6643 "/>
<text text-anchor="middle" x="566" y="-74.4643" font-family="Arial" font-size="14.00">7. 432432432</text>
<polyline fill="none" stroke="#b4eaef" stroke-width="2" points="512.5,-66.6643 619.5,-66.6643 "/>
<text text-anchor="middle" x="531.5" y="-51.4643" font-family="Arial" font-size="14.00">24</text>
<polyline fill="none" stroke="#b4eaef" stroke-width="2" points="550.5,-43.6643 550.5,-66.6643 "/>
<text text-anchor="middle" x="565.5" y="-51.4643" font-family="Arial" font-size="14.00">0</text>
<polyline fill="none" stroke="#b4eaef" stroke-width="2" points="580.5,-43.6643 580.5,-66.6643 "/>
<text text-anchor="middle" x="600" y="-51.4643" font-family="Arial" font-size="14.00">28</text>
</g>
<!-- v4&#45;&gt;v7 -->
<g id="edge13" class="edge"><title>v4:mI4&#45;&gt;v7:mI7</title>
<path fill="none" stroke="#d45383" stroke-width="2" d="M220,-91.1643C245.267,-91.1643 233.167,-57.9844 256,-47.1643 304.952,-23.9668 438.912,-72.3292 501.825,-77.6882"/>
<polygon fill="#d45383" stroke="#d45383" points="501.847,-81.193 512,-78.1643 502.175,-74.2006 501.847,-81.193"/>
</g>
<!-- v5&#45;&gt;v6 -->
<g id="edge10" class="edge"><title>v5:mI5&#45;&gt;v6:mI6</title>
<path fill="none" stroke="#449b5e" stroke-width="2" d="M348,-91.1643C371.104,-91.1643 361.355,-126.76 374.192,-137.884"/>
<polygon fill="#449b5e" stroke="#449b5e" points="373.406,-141.311 384,-141.164 375.627,-134.673 373.406,-141.311"/>
</g>
<!-- v5&#45;&gt;v7 -->
<g id="edge11" class="edge"><title>v5:mI5&#45;&gt;v7:mI7</title>
<path fill="none" stroke="#449b5e" stroke-width="2" d="M348,-91.1643C417.547,-91.1643 437.016,-79.4028 501.672,-78.2542"/>
<polygon fill="#449b5e" stroke="#449b5e" points="502.031,-81.7514 512,-78.1643 501.97,-74.7516 502.031,-81.7514"/>
</g>
<!-- v6&#45;&gt;v7 -->
<g id="edge12" class="edge"><title>v6:mI6&#45;&gt;v7:mI7</title>
<path fill="none" stroke="#eee3bd" stroke-width="2" d="M476,-141.164C503.966,-141.164 486.249,-93.7874 502.081,-81.2029"/>
<polygon fill="#eee3bd" stroke="#eee3bd" points="503.464,-84.4399 512,-78.1643 501.413,-77.7469 503.464,-84.4399"/>
</g>
<!-- v8 -->
<g id="node8" class="node"><title>v8</title>
<polygon fill="#f2f4f7" stroke="#78da67" stroke-width="2" points="656.5,-75.6643 656.5,-144.664 747.5,-144.664 747.5,-75.6643 656.5,-75.6643"/>
<text text-anchor="middle" x="673" y="-129.464" font-family="Arial" font-size="14.00">28</text>
<polyline fill="none" stroke="#78da67" stroke-width="2" points="689.5,-121.664 689.5,-144.664 "/>
<text text-anchor="middle" x="702" y="-129.464" font-family="Arial" font-size="14.00">3</text>
<polyline fill="none" stroke="#78da67" stroke-width="2" points="714.5,-121.664 714.5,-144.664 "/>
<text text-anchor="middle" x="731" y="-129.464" font-family="Arial" font-size="14.00">31</text>
<polyline fill="none" stroke="#78da67" stroke-width="2" points="656.5,-121.664 747.5,-121.664 "/>
<text text-anchor="middle" x="702" y="-106.464" font-family="Arial" font-size="14.00">8. 32</text>
<polyline fill="none" stroke="#78da67" stroke-width="2" points="656.5,-98.6643 747.5,-98.6643 "/>
<text text-anchor="middle" x="673" y="-83.4643" font-family="Arial" font-size="14.00">28</text>
<polyline fill="none" stroke="#78da67" stroke-width="2" points="689.5,-75.6643 689.5,-98.6643 "/>
<text text-anchor="middle" x="702" y="-83.4643" font-family="Arial" font-size="14.00">0</text>
<polyline fill="none" stroke="#78da67" stroke-width="2" points="714.5,-75.6643 714.5,-98.6643 "/>
<text text-anchor="middle" x="731" y="-83.4643" font-family="Arial" font-size="14.00">31</text>
</g>
<!-- v7&#45;&gt;v8 -->
<g id="edge14" class="edge"><title>v7:mI7&#45;&gt;v8:mI8</title>
<path fill="none" stroke="#b4eaef" stroke-width="2" d="M620,-78.1643C637.226,-78.1643 636.178,-98.885 646.266,-106.979"/>
<polygon fill="#b4eaef" stroke="#b4eaef" points="645.407,-110.381 656,-110.164 647.584,-103.728 645.407,-110.381"/>
</g>
<!-- v9 -->
<g id="node9" class="node"><title>v9</title>
<polygon fill="#f2f4f7" stroke="#44dab0" stroke-width="2" points="784.5,-12.6643 784.5,-81.6643 875.5,-81.6643 875.5,-12.6643 784.5,-12.6643"/>
<text text-anchor="middle" x="801" y="-66.4643" font-family="Arial" font-size="14.00">31</text>
<polyline fill="none" stroke="#44dab0" stroke-width="2" points="817.5,-58.6643 817.5,-81.6643 "/>
<text text-anchor="middle" x="830" y="-66.4643" font-family="Arial" font-size="14.00">2</text>
<polyline fill="none" stroke="#44dab0" stroke-width="2" points="842.5,-58.6643 842.5,-81.6643 "/>
<text text-anchor="middle" x="859" y="-66.4643" font-family="Arial" font-size="14.00">33</text>
<polyline fill="none" stroke="#44dab0" stroke-width="2" points="784.5,-58.6643 875.5,-58.6643 "/>
<text text-anchor="middle" x="830" y="-43.4643" font-family="Arial" font-size="14.00">9. 32</text>
<polyline fill="none" stroke="#44dab0" stroke-width="2" points="784.5,-35.6643 875.5,-35.6643 "/>
<text text-anchor="middle" x="801" y="-20.4643" font-family="Arial" font-size="14.00">31</text>
<polyline fill="none" stroke="#44dab0" stroke-width="2" points="817.5,-12.6643 817.5,-35.6643 "/>
<text text-anchor="middle" x="830" y="-20.4643" font-family="Arial" font-size="14.00">0</text>
<polyline fill="none" stroke="#44dab0" stroke-width="2" points="842.5,-12.6643 842.5,-35.6643 "/>
<text text-anchor="middle" x="859" y="-20.4643" font-family="Arial" font-size="14.00">33</text>
</g>
<!-- v7&#45;&gt;v9 -->
<g id="edge15" class="edge"><title>v7:mI7&#45;&gt;v9:mI9</title>
<path fill="none" stroke="#b4eaef" stroke-width="2" d="M620,-78.1643C636.865,-78.1643 639.596,-70.084 656,-66.1643 708.441,-53.6332 724.507,-47.8987 773.699,-47.2308"/>
<polygon fill="#b4eaef" stroke="#b4eaef" points="774.023,-50.7289 784,-47.1643 773.978,-43.729 774.023,-50.7289"/>
</g>
<!-- v8&#45;&gt;v9 -->
<g id="edge16" class="edge"><title>v8:mI8&#45;&gt;v9:mI9</title>
<path fill="none" stroke="#78da67" stroke-width="2" d="M748,-110.164C775.966,-110.164 758.249,-62.7874 774.081,-50.2029"/>
<polygon fill="#78da67" stroke="#78da67" points="775.464,-53.4399 784,-47.1643 773.413,-46.7469 775.464,-53.4399"/>
</g>
<!-- v10 -->
<g id="node10" class="node"><title>v10</title>
<polygon fill="#f2f4f7" stroke="#cdc54e" stroke-width="2" points="912.5,-75.6643 912.5,-144.664 1003.5,-144.664 1003.5,-75.6643 912.5,-75.6643"/>
<text text-anchor="middle" x="929" y="-129.464" font-family="Arial" font-size="14.00">33</text>
<polyline fill="none" stroke="#cdc54e" stroke-width="2" points="945.5,-121.664 945.5,-144.664 "/>
<text text-anchor="middle" x="958" y="-129.464" font-family="Arial" font-size="14.00">2</text>
<polyline fill="none" stroke="#cdc54e" stroke-width="2" points="970.5,-121.664 970.5,-144.664 "/>
<text text-anchor="middle" x="987" y="-129.464" font-family="Arial" font-size="14.00">35</text>
<polyline fill="none" stroke="#cdc54e" stroke-width="2" points="912.5,-121.664 1003.5,-121.664 "/>
<text text-anchor="middle" x="958" y="-106.464" font-family="Arial" font-size="14.00">10. 32</text>
<polyline fill="none" stroke="#cdc54e" stroke-width="2" points="912.5,-98.6643 1003.5,-98.6643 "/>
<text text-anchor="middle" x="929" y="-83.4643" font-family="Arial" font-size="14.00">33</text>
<polyline fill="none" stroke="#cdc54e" stroke-width="2" points="945.5,-75.6643 945.5,-98.6643 "/>
<text text-anchor="middle" x="958" y="-83.4643" font-family="Arial" font-size="14.00">0</text>
<polyline fill="none" stroke="#cdc54e" stroke-width="2" points="970.5,-75.6643 970.5,-98.6643 "/>
<text text-anchor="middle" x="987" y="-83.4643" font-family="Arial" font-size="14.00">35</text>
</g>
<!-- v8&#45;&gt;v10 -->
<g id="edge2" class="edge"><title>v8:mI8&#45;&gt;v10:mI10</title>
<path fill="none" stroke="#78da67" stroke-width="2" d="M748,-110.164C817.33,-110.164 837.201,-110.164 901.701,-110.164"/>
<polygon fill="#78da67" stroke="#78da67" points="902,-113.664 912,-110.164 902,-106.664 902,-113.664"/>
</g>
<!-- v9&#45;&gt;v10 -->
<g id="edge4" class="edge"><title>v9:mI9&#45;&gt;v10:mI10</title>
<path fill="none" stroke="#44dab0" stroke-width="2" d="M876,-47.1643C903.966,-47.1643 886.249,-94.5412 902.081,-107.126"/>
<polygon fill="#44dab0" stroke="#44dab0" points="901.413,-110.582 912,-110.164 903.464,-103.889 901.413,-110.582"/>
</g>
<!-- v11 -->
<g id="node11" class="node"><title>v11</title>
<polygon fill="#f2f4f7" stroke="#d8794e" stroke-width="2" points="1040.5,-25.6643 1040.5,-94.6643 1131.5,-94.6643 1131.5,-25.6643 1040.5,-25.6643"/>
<text text-anchor="middle" x="1057" y="-79.4643" font-family="Arial" font-size="14.00">35</text>
<polyline fill="none" stroke="#d8794e" stroke-width="2" points="1073.5,-71.6643 1073.5,-94.6643 "/>
<text text-anchor="middle" x="1086" y="-79.4643" font-family="Arial" font-size="14.00">3</text>
<polyline fill="none" stroke="#d8794e" stroke-width="2" points="1098.5,-71.6643 1098.5,-94.6643 "/>
<text text-anchor="middle" x="1115" y="-79.4643" font-family="Arial" font-size="14.00">38</text>
<polyline fill="none" stroke="#d8794e" stroke-width="2" points="1040.5,-71.6643 1131.5,-71.6643 "/>
<text text-anchor="middle" x="1086" y="-56.4643" font-family="Arial" font-size="14.00">11. 423423</text>
<polyline fill="none" stroke="#d8794e" stroke-width="2" points="1040.5,-48.6643 1131.5,-48.6643 "/>
<text text-anchor="middle" x="1057" y="-33.4643" font-family="Arial" font-size="14.00">35</text>
<polyline fill="none" stroke="#d8794e" stroke-width="2" points="1073.5,-25.6643 1073.5,-48.6643 "/>
<text text-anchor="middle" x="1086" y="-33.4643" font-family="Arial" font-size="14.00">0</text>
<polyline fill="none" stroke="#d8794e" stroke-width="2" points="1098.5,-25.6643 1098.5,-48.6643 "/>
<text text-anchor="middle" x="1115" y="-33.4643" font-family="Arial" font-size="14.00">38</text>
</g>
<!-- v9&#45;&gt;v11 -->
<g id="edge1" class="edge"><title>v9:mI9&#45;&gt;v11:mI11</title>
<path fill="none" stroke="#44dab0" stroke-width="2" d="M876,-47.1643C945.547,-47.1643 965.016,-58.9258 1029.67,-60.0743"/>
<polygon fill="#44dab0" stroke="#44dab0" points="1029.97,-63.577 1040,-60.1643 1030.03,-56.5772 1029.97,-63.577"/>
</g>
<!-- v12 -->
<g id="node12" class="node"><title>v12</title>
<polygon fill="#f2f4f7" stroke="#e3637a" stroke-width="2" points="1168.5,-25.6643 1168.5,-94.6643 1259.5,-94.6643 1259.5,-25.6643 1168.5,-25.6643"/>
<text text-anchor="middle" x="1185" y="-79.4643" font-family="Arial" font-size="14.00">38</text>
<polyline fill="none" stroke="#e3637a" stroke-width="2" points="1201.5,-71.6643 1201.5,-94.6643 "/>
<text text-anchor="middle" x="1214" y="-79.4643" font-family="Arial" font-size="14.00">4</text>
<polyline fill="none" stroke="#e3637a" stroke-width="2" points="1226.5,-71.6643 1226.5,-94.6643 "/>
<text text-anchor="middle" x="1243" y="-79.4643" font-family="Arial" font-size="14.00">42</text>
<polyline fill="none" stroke="#e3637a" stroke-width="2" points="1168.5,-71.6643 1259.5,-71.6643 "/>
<text text-anchor="middle" x="1214" y="-56.4643" font-family="Arial" font-size="14.00">12. 234</text>
<polyline fill="none" stroke="#e3637a" stroke-width="2" points="1168.5,-48.6643 1259.5,-48.6643 "/>
<text text-anchor="middle" x="1185" y="-33.4643" font-family="Arial" font-size="14.00">38</text>
<polyline fill="none" stroke="#e3637a" stroke-width="2" points="1201.5,-25.6643 1201.5,-48.6643 "/>
<text text-anchor="middle" x="1214" y="-33.4643" font-family="Arial" font-size="14.00">0</text>
<polyline fill="none" stroke="#e3637a" stroke-width="2" points="1226.5,-25.6643 1226.5,-48.6643 "/>
<text text-anchor="middle" x="1243" y="-33.4643" font-family="Arial" font-size="14.00">42</text>
</g>
<!-- v9&#45;&gt;v12 -->
<g id="edge3" class="edge"><title>v9:mI9&#45;&gt;v12:mI12</title>
<path fill="none" stroke="#44dab0" stroke-width="2" d="M876,-47.1643C990.609,-47.1643 1028.43,32.9147 1132,-16.1643 1151.09,-25.2092 1145.76,-49.879 1158.26,-57.7303"/>
<polygon fill="#44dab0" stroke="#44dab0" points="1157.45,-61.1349 1168,-60.1643 1159.15,-54.3438 1157.45,-61.1349"/>
</g>
<!-- v10&#45;&gt;v11 -->
<g id="edge19" class="edge"><title>v10:mI10&#45;&gt;v11:mI11</title>
<path fill="none" stroke="#cdc54e" stroke-width="2" d="M1004,-110.164C1027.1,-110.164 1017.35,-74.5686 1030.19,-63.4449"/>
<polygon fill="#cdc54e" stroke="#cdc54e" points="1031.63,-66.6558 1040,-60.1643 1029.41,-60.0173 1031.63,-66.6558"/>
</g>
<!-- v10&#45;&gt;v12 -->
<g id="edge18" class="edge"><title>v10:mI10&#45;&gt;v12:mI12</title>
<path fill="none" stroke="#cdc54e" stroke-width="2" d="M1004,-110.164C1060.95,-110.164 1081.12,-129.751 1132,-104.164 1150.87,-94.6749 1145.69,-70.3038 1158.24,-62.5624"/>
<polygon fill="#cdc54e" stroke="#cdc54e" points="1159.12,-65.9503 1168,-60.1643 1157.45,-59.1527 1159.12,-65.9503"/>
</g>
<!-- v11&#45;&gt;v12 -->
<g id="edge17" class="edge"><title>v11:mI11&#45;&gt;v12:mI12</title>
<path fill="none" stroke="#d8794e" stroke-width="2" d="M1132,-60.1643C1144,-60.1643 1149.25,-60.1643 1157.88,-60.1643"/>
<polygon fill="#d8794e" stroke="#d8794e" points="1158,-63.6644 1168,-60.1643 1158,-56.6644 1158,-63.6644"/>
</g>
</g>
</svg>
