<?xml version="1.0" encoding="UTF-8" standalone="no"?>
<!DOCTYPE svg PUBLIC "-//W3C//DTD SVG 1.1//EN"
 "http://www.w3.org/Graphics/SVG/1.1/DTD/svg11.dtd">
<!-- Generated by graphviz version 2.34.0 (20130907.0111)
 -->
<!-- Title: NetworkGraph01 Pages: 1 -->
<svg width="356pt" height="166pt"
 viewBox="0.00 0.00 356.00 166.00" xmlns="http://www.w3.org/2000/svg" xmlns:xlink="http://www.w3.org/1999/xlink">
<g id="graph0" class="graph" transform="scale(1 1) rotate(0) translate(4 162)">
<title>NetworkGraph01</title>
<polygon fill="white" stroke="white" points="-4,4 -4,-162 352,-162 352,4 -4,4"/>
<!-- v1 -->
<g id="node1" class="node"><title>v1</title>
<polygon fill="#f2f4f7" stroke="#34c381" stroke-width="2" points="0,-56.5 0,-125.5 60,-125.5 60,-56.5 0,-56.5"/>
<text text-anchor="middle" x="10" y="-110.3" font-family="Arial" font-size="14.00"> </text>
<polyline fill="none" stroke="#34c381" stroke-width="2" points="20,-102.5 20,-125.5 "/>
<text text-anchor="middle" x="30" y="-110.3" font-family="Arial" font-size="14.00"> </text>
<polyline fill="none" stroke="#34c381" stroke-width="2" points="40,-102.5 40,-125.5 "/>
<text text-anchor="middle" x="50" y="-110.3" font-family="Arial" font-size="14.00"> </text>
<polyline fill="none" stroke="#34c381" stroke-width="2" points="0,-102.5 60,-102.5 "/>
<text text-anchor="middle" x="30" y="-87.3" font-family="Arial" font-size="14.00">1. 1</text>
<polyline fill="none" stroke="#34c381" stroke-width="2" points="0,-79.5 60,-79.5 "/>
<text text-anchor="middle" x="10" y="-64.3" font-family="Arial" font-size="14.00"> </text>
<polyline fill="none" stroke="#34c381" stroke-width="2" points="20,-56.5 20,-79.5 "/>
<text text-anchor="middle" x="30" y="-64.3" font-family="Arial" font-size="14.00"> </text>
<polyline fill="none" stroke="#34c381" stroke-width="2" points="40,-56.5 40,-79.5 "/>
<text text-anchor="middle" x="50" y="-64.3" font-family="Arial" font-size="14.00"> </text>
</g>
<!-- v2 -->
<g id="node2" class="node"><title>v2</title>
<polygon fill="#f2f4f7" stroke="#d07a9a" stroke-width="2" points="96,-25.5 96,-94.5 156,-94.5 156,-25.5 96,-25.5"/>
<text text-anchor="middle" x="106" y="-79.3" font-family="Arial" font-size="14.00"> </text>
<polyline fill="none" stroke="#d07a9a" stroke-width="2" points="116,-71.5 116,-94.5 "/>
<text text-anchor="middle" x="126" y="-79.3" font-family="Arial" font-size="14.00"> </text>
<polyline fill="none" stroke="#d07a9a" stroke-width="2" points="136,-71.5 136,-94.5 "/>
<text text-anchor="middle" x="146" y="-79.3" font-family="Arial" font-size="14.00"> </text>
<polyline fill="none" stroke="#d07a9a" stroke-width="2" points="96,-71.5 156,-71.5 "/>
<text text-anchor="middle" x="126" y="-56.3" font-family="Arial" font-size="14.00">2. 2</text>
<polyline fill="none" stroke="#d07a9a" stroke-width="2" points="96,-48.5 156,-48.5 "/>
<text text-anchor="middle" x="106" y="-33.3" font-family="Arial" font-size="14.00"> </text>
<polyline fill="none" stroke="#d07a9a" stroke-width="2" points="116,-25.5 116,-48.5 "/>
<text text-anchor="middle" x="126" y="-33.3" font-family="Arial" font-size="14.00"> </text>
<polyline fill="none" stroke="#d07a9a" stroke-width="2" points="136,-25.5 136,-48.5 "/>
<text text-anchor="middle" x="146" y="-33.3" font-family="Arial" font-size="14.00"> </text>
</g>
<!-- v1&#45;&gt;v2 -->
<g id="edge1" class="edge"><title>v1:mI1&#45;&gt;v2:mI2</title>
<path fill="none" stroke="#34c381" stroke-width="2" d="M60,-91C76.9907,-91 76.2756,-70.9268 86.35,-63.0857"/>
<polygon fill="#34c381" stroke="#34c381" points="87.5411,-66.3795 96,-60 85.4091,-59.7121 87.5411,-66.3795"/>
</g>
<!-- v3 -->
<g id="node3" class="node"><title>v3</title>
<polygon fill="#f2f4f7" stroke="#86cebe" stroke-width="2" points="192,-88.5 192,-157.5 252,-157.5 252,-88.5 192,-88.5"/>
<text text-anchor="middle" x="202" y="-142.3" font-family="Arial" font-size="14.00"> </text>
<polyline fill="none" stroke="#86cebe" stroke-width="2" points="212,-134.5 212,-157.5 "/>
<text text-anchor="middle" x="222" y="-142.3" font-family="Arial" font-size="14.00"> </text>
<polyline fill="none" stroke="#86cebe" stroke-width="2" points="232,-134.5 232,-157.5 "/>
<text text-anchor="middle" x="242" y="-142.3" font-family="Arial" font-size="14.00"> </text>
<polyline fill="none" stroke="#86cebe" stroke-width="2" points="192,-134.5 252,-134.5 "/>
<text text-anchor="middle" x="222" y="-119.3" font-family="Arial" font-size="14.00">3. 3</text>
<polyline fill="none" stroke="#86cebe" stroke-width="2" points="192,-111.5 252,-111.5 "/>
<text text-anchor="middle" x="202" y="-96.3" font-family="Arial" font-size="14.00"> </text>
<polyline fill="none" stroke="#86cebe" stroke-width="2" points="212,-88.5 212,-111.5 "/>
<text text-anchor="middle" x="222" y="-96.3" font-family="Arial" font-size="14.00"> </text>
<polyline fill="none" stroke="#86cebe" stroke-width="2" points="232,-88.5 232,-111.5 "/>
<text text-anchor="middle" x="242" y="-96.3" font-family="Arial" font-size="14.00"> </text>
</g>
<!-- v1&#45;&gt;v3 -->
<g id="edge3" class="edge"><title>v1:mI1&#45;&gt;v3:mI3</title>
<path fill="none" stroke="#34c381" stroke-width="2" d="M60,-91C77.0113,-91 79.6094,-99.4467 96,-104 134.47,-114.687 146.556,-121.764 181.925,-122.853"/>
<polygon fill="#34c381" stroke="#34c381" points="181.95,-126.354 192,-123 182.052,-119.355 181.95,-126.354"/>
</g>
<!-- v2&#45;&gt;v3 -->
<g id="edge2" class="edge"><title>v2:mI2&#45;&gt;v3:mI3</title>
<path fill="none" stroke="#d07a9a" stroke-width="2" d="M156,-60C183.966,-60 166.249,-107.377 182.081,-119.961"/>
<polygon fill="#d07a9a" stroke="#d07a9a" points="181.413,-123.417 192,-123 183.464,-116.724 181.413,-123.417"/>
</g>
<!-- v4 -->
<g id="node4" class="node"><title>v4</title>
<polygon fill="#f2f4f7" stroke="#695671" stroke-width="2" points="192,-0.5 192,-69.5 252,-69.5 252,-0.5 192,-0.5"/>
<text text-anchor="middle" x="202" y="-54.3" font-family="Arial" font-size="14.00"> </text>
<polyline fill="none" stroke="#695671" stroke-width="2" points="212,-46.5 212,-69.5 "/>
<text text-anchor="middle" x="222" y="-54.3" font-family="Arial" font-size="14.00"> </text>
<polyline fill="none" stroke="#695671" stroke-width="2" points="232,-46.5 232,-69.5 "/>
<text text-anchor="middle" x="242" y="-54.3" font-family="Arial" font-size="14.00"> </text>
<polyline fill="none" stroke="#695671" stroke-width="2" points="192,-46.5 252,-46.5 "/>
<text text-anchor="middle" x="222" y="-31.3" font-family="Arial" font-size="14.00">4. 4</text>
<polyline fill="none" stroke="#695671" stroke-width="2" points="192,-23.5 252,-23.5 "/>
<text text-anchor="middle" x="202" y="-8.3" font-family="Arial" font-size="14.00"> </text>
<polyline fill="none" stroke="#695671" stroke-width="2" points="212,-0.5 212,-23.5 "/>
<text text-anchor="middle" x="222" y="-8.3" font-family="Arial" font-size="14.00"> </text>
<polyline fill="none" stroke="#695671" stroke-width="2" points="232,-0.5 232,-23.5 "/>
<text text-anchor="middle" x="242" y="-8.3" font-family="Arial" font-size="14.00"> </text>
</g>
<!-- v2&#45;&gt;v4 -->
<g id="edge4" class="edge"><title>v2:mI2&#45;&gt;v4:mI4</title>
<path fill="none" stroke="#d07a9a" stroke-width="2" d="M156,-60C171.371,-60 172.77,-44.4345 182.247,-37.8678"/>
<polygon fill="#d07a9a" stroke="#d07a9a" points="183.394,-41.179 192,-35 181.419,-34.4633 183.394,-41.179"/>
</g>
<!-- v5 -->
<g id="node5" class="node"><title>v5</title>
<polygon fill="#f2f4f7" stroke="#c8e1a6" stroke-width="2" points="288,-44.5 288,-113.5 348,-113.5 348,-44.5 288,-44.5"/>
<text text-anchor="middle" x="298" y="-98.3" font-family="Arial" font-size="14.00"> </text>
<polyline fill="none" stroke="#c8e1a6" stroke-width="2" points="308,-90.5 308,-113.5 "/>
<text text-anchor="middle" x="318" y="-98.3" font-family="Arial" font-size="14.00"> </text>
<polyline fill="none" stroke="#c8e1a6" stroke-width="2" points="328,-90.5 328,-113.5 "/>
<text text-anchor="middle" x="338" y="-98.3" font-family="Arial" font-size="14.00"> </text>
<polyline fill="none" stroke="#c8e1a6" stroke-width="2" points="288,-90.5 348,-90.5 "/>
<text text-anchor="middle" x="318" y="-75.3" font-family="Arial" font-size="14.00">5. 5</text>
<polyline fill="none" stroke="#c8e1a6" stroke-width="2" points="288,-67.5 348,-67.5 "/>
<text text-anchor="middle" x="298" y="-52.3" font-family="Arial" font-size="14.00"> </text>
<polyline fill="none" stroke="#c8e1a6" stroke-width="2" points="308,-44.5 308,-67.5 "/>
<text text-anchor="middle" x="318" y="-52.3" font-family="Arial" font-size="14.00"> </text>
<polyline fill="none" stroke="#c8e1a6" stroke-width="2" points="328,-44.5 328,-67.5 "/>
<text text-anchor="middle" x="338" y="-52.3" font-family="Arial" font-size="14.00"> </text>
</g>
<!-- v3&#45;&gt;v5 -->
<g id="edge5" class="edge"><title>v3:mI3&#45;&gt;v5:mI5</title>
<path fill="none" stroke="#86cebe" stroke-width="2" d="M252,-123C273.122,-123 266.431,-92.2532 278.426,-82.1644"/>
<polygon fill="#86cebe" stroke="#86cebe" points="279.604,-85.4615 288,-79 277.407,-78.8152 279.604,-85.4615"/>
</g>
<!-- v4&#45;&gt;v5 -->
<g id="edge6" class="edge"><title>v4:mI4&#45;&gt;v5:mI5</title>
<path fill="none" stroke="#695671" stroke-width="2" d="M252,-35C273.122,-35 266.431,-65.7468 278.426,-75.8356"/>
<polygon fill="#695671" stroke="#695671" points="277.407,-79.1848 288,-79 279.604,-72.5385 277.407,-79.1848"/>
</g>
</g>
</svg>
