<?xml version="1.0" encoding="UTF-8" standalone="no"?>
<!DOCTYPE svg PUBLIC "-//W3C//DTD SVG 1.1//EN"
 "http://www.w3.org/Graphics/SVG/1.1/DTD/svg11.dtd">
<!-- Generated by graphviz version 2.34.0 (20130907.0111)
 -->
<!-- Title: NetworkGraph01 Pages: 1 -->
<svg width="1220pt" height="678pt"
 viewBox="0.00 0.00 1220.00 678.00" xmlns="http://www.w3.org/2000/svg" xmlns:xlink="http://www.w3.org/1999/xlink">
<g id="graph0" class="graph" transform="scale(1 1) rotate(0) translate(4 674)">
<title>NetworkGraph01</title>
<polygon fill="white" stroke="white" points="-4,4 -4,-674 1216,-674 1216,4 -4,4"/>
<!-- v1 -->
<g id="node1" class="node"><title>v1</title>
<polygon fill="#f2f4f7" stroke="#82e88b" stroke-width="2" points="0,-256.5 0,-325.5 60,-325.5 60,-256.5 0,-256.5"/>
<text text-anchor="middle" x="10" y="-310.3" font-family="Arial" font-size="14.00"> </text>
<polyline fill="none" stroke="#82e88b" stroke-width="2" points="20,-302.5 20,-325.5 "/>
<text text-anchor="middle" x="30" y="-310.3" font-family="Arial" font-size="14.00"> </text>
<polyline fill="none" stroke="#82e88b" stroke-width="2" points="40,-302.5 40,-325.5 "/>
<text text-anchor="middle" x="50" y="-310.3" font-family="Arial" font-size="14.00"> </text>
<polyline fill="none" stroke="#82e88b" stroke-width="2" points="0,-302.5 60,-302.5 "/>
<text text-anchor="middle" x="30" y="-287.3" font-family="Arial" font-size="14.00">1. 1</text>
<polyline fill="none" stroke="#82e88b" stroke-width="2" points="0,-279.5 60,-279.5 "/>
<text text-anchor="middle" x="10" y="-264.3" font-family="Arial" font-size="14.00"> </text>
<polyline fill="none" stroke="#82e88b" stroke-width="2" points="20,-256.5 20,-279.5 "/>
<text text-anchor="middle" x="30" y="-264.3" font-family="Arial" font-size="14.00"> </text>
<polyline fill="none" stroke="#82e88b" stroke-width="2" points="40,-256.5 40,-279.5 "/>
<text text-anchor="middle" x="50" y="-264.3" font-family="Arial" font-size="14.00"> </text>
</g>
<!-- v2 -->
<g id="node2" class="node"><title>v2</title>
<polygon fill="#f2f4f7" stroke="#5f9d9a" stroke-width="2" points="96,-174.5 96,-243.5 156,-243.5 156,-174.5 96,-174.5"/>
<text text-anchor="middle" x="106" y="-228.3" font-family="Arial" font-size="14.00"> </text>
<polyline fill="none" stroke="#5f9d9a" stroke-width="2" points="116,-220.5 116,-243.5 "/>
<text text-anchor="middle" x="126" y="-228.3" font-family="Arial" font-size="14.00"> </text>
<polyline fill="none" stroke="#5f9d9a" stroke-width="2" points="136,-220.5 136,-243.5 "/>
<text text-anchor="middle" x="146" y="-228.3" font-family="Arial" font-size="14.00"> </text>
<polyline fill="none" stroke="#5f9d9a" stroke-width="2" points="96,-220.5 156,-220.5 "/>
<text text-anchor="middle" x="126" y="-205.3" font-family="Arial" font-size="14.00">2. 2</text>
<polyline fill="none" stroke="#5f9d9a" stroke-width="2" points="96,-197.5 156,-197.5 "/>
<text text-anchor="middle" x="106" y="-182.3" font-family="Arial" font-size="14.00"> </text>
<polyline fill="none" stroke="#5f9d9a" stroke-width="2" points="116,-174.5 116,-197.5 "/>
<text text-anchor="middle" x="126" y="-182.3" font-family="Arial" font-size="14.00"> </text>
<polyline fill="none" stroke="#5f9d9a" stroke-width="2" points="136,-174.5 136,-197.5 "/>
<text text-anchor="middle" x="146" y="-182.3" font-family="Arial" font-size="14.00"> </text>
</g>
<!-- v1&#45;&gt;v2 -->
<g id="edge16" class="edge"><title>v1:mI1&#45;&gt;v2:mI2</title>
<path fill="none" stroke="#82e88b" stroke-width="2" d="M60,-291C95.7596,-291 64.1947,-224.81 86.2791,-211.366"/>
<polygon fill="#82e88b" stroke="#82e88b" points="87.1112,-214.765 96,-209 85.456,-207.964 87.1112,-214.765"/>
</g>
<!-- v5 -->
<g id="node5" class="node"><title>v5</title>
<polygon fill="#f2f4f7" stroke="#e4cfb3" stroke-width="2" points="384,-457.5 384,-526.5 444,-526.5 444,-457.5 384,-457.5"/>
<text text-anchor="middle" x="394" y="-511.3" font-family="Arial" font-size="14.00"> </text>
<polyline fill="none" stroke="#e4cfb3" stroke-width="2" points="404,-503.5 404,-526.5 "/>
<text text-anchor="middle" x="414" y="-511.3" font-family="Arial" font-size="14.00"> </text>
<polyline fill="none" stroke="#e4cfb3" stroke-width="2" points="424,-503.5 424,-526.5 "/>
<text text-anchor="middle" x="434" y="-511.3" font-family="Arial" font-size="14.00"> </text>
<polyline fill="none" stroke="#e4cfb3" stroke-width="2" points="384,-503.5 444,-503.5 "/>
<text text-anchor="middle" x="414" y="-488.3" font-family="Arial" font-size="14.00">5. 5</text>
<polyline fill="none" stroke="#e4cfb3" stroke-width="2" points="384,-480.5 444,-480.5 "/>
<text text-anchor="middle" x="394" y="-465.3" font-family="Arial" font-size="14.00"> </text>
<polyline fill="none" stroke="#e4cfb3" stroke-width="2" points="404,-457.5 404,-480.5 "/>
<text text-anchor="middle" x="414" y="-465.3" font-family="Arial" font-size="14.00"> </text>
<polyline fill="none" stroke="#e4cfb3" stroke-width="2" points="424,-457.5 424,-480.5 "/>
<text text-anchor="middle" x="434" y="-465.3" font-family="Arial" font-size="14.00"> </text>
</g>
<!-- v1&#45;&gt;v5 -->
<g id="edge21" class="edge"><title>v1:mI1&#45;&gt;v5:mI5</title>
<path fill="none" stroke="#82e88b" stroke-width="2" d="M60,-291C105.568,-291 63.6313,-354.927 96,-387 190.321,-480.46 244.939,-491.482 373.777,-491.981"/>
<polygon fill="#82e88b" stroke="#82e88b" points="373.994,-495.481 384,-492 374.007,-488.481 373.994,-495.481"/>
</g>
<!-- v6 -->
<g id="node6" class="node"><title>v6</title>
<polygon fill="#f2f4f7" stroke="#656acb" stroke-width="2" points="384,-66.5 384,-135.5 444,-135.5 444,-66.5 384,-66.5"/>
<text text-anchor="middle" x="394" y="-120.3" font-family="Arial" font-size="14.00"> </text>
<polyline fill="none" stroke="#656acb" stroke-width="2" points="404,-112.5 404,-135.5 "/>
<text text-anchor="middle" x="414" y="-120.3" font-family="Arial" font-size="14.00"> </text>
<polyline fill="none" stroke="#656acb" stroke-width="2" points="424,-112.5 424,-135.5 "/>
<text text-anchor="middle" x="434" y="-120.3" font-family="Arial" font-size="14.00"> </text>
<polyline fill="none" stroke="#656acb" stroke-width="2" points="384,-112.5 444,-112.5 "/>
<text text-anchor="middle" x="414" y="-97.3" font-family="Arial" font-size="14.00">6. 6</text>
<polyline fill="none" stroke="#656acb" stroke-width="2" points="384,-89.5 444,-89.5 "/>
<text text-anchor="middle" x="394" y="-74.3" font-family="Arial" font-size="14.00"> </text>
<polyline fill="none" stroke="#656acb" stroke-width="2" points="404,-66.5 404,-89.5 "/>
<text text-anchor="middle" x="414" y="-74.3" font-family="Arial" font-size="14.00"> </text>
<polyline fill="none" stroke="#656acb" stroke-width="2" points="424,-66.5 424,-89.5 "/>
<text text-anchor="middle" x="434" y="-74.3" font-family="Arial" font-size="14.00"> </text>
</g>
<!-- v1&#45;&gt;v6 -->
<g id="edge23" class="edge"><title>v1:mI1&#45;&gt;v6:mI6</title>
<path fill="none" stroke="#82e88b" stroke-width="2" d="M60,-291C118.241,-291 55.7218,-207.067 96,-165 184.29,-72.7874 249.37,-99.4677 373.762,-100.939"/>
<polygon fill="#82e88b" stroke="#82e88b" points="373.979,-104.44 384,-101 374.021,-97.4402 373.979,-104.44"/>
</g>
<!-- v8 -->
<g id="node8" class="node"><title>v8</title>
<polygon fill="#f2f4f7" stroke="#3b4ac1" stroke-width="2" points="576,-268.5 576,-337.5 636,-337.5 636,-268.5 576,-268.5"/>
<text text-anchor="middle" x="586" y="-322.3" font-family="Arial" font-size="14.00"> </text>
<polyline fill="none" stroke="#3b4ac1" stroke-width="2" points="596,-314.5 596,-337.5 "/>
<text text-anchor="middle" x="606" y="-322.3" font-family="Arial" font-size="14.00"> </text>
<polyline fill="none" stroke="#3b4ac1" stroke-width="2" points="616,-314.5 616,-337.5 "/>
<text text-anchor="middle" x="626" y="-322.3" font-family="Arial" font-size="14.00"> </text>
<polyline fill="none" stroke="#3b4ac1" stroke-width="2" points="576,-314.5 636,-314.5 "/>
<text text-anchor="middle" x="606" y="-299.3" font-family="Arial" font-size="14.00">8. 8</text>
<polyline fill="none" stroke="#3b4ac1" stroke-width="2" points="576,-291.5 636,-291.5 "/>
<text text-anchor="middle" x="586" y="-276.3" font-family="Arial" font-size="14.00"> </text>
<polyline fill="none" stroke="#3b4ac1" stroke-width="2" points="596,-268.5 596,-291.5 "/>
<text text-anchor="middle" x="606" y="-276.3" font-family="Arial" font-size="14.00"> </text>
<polyline fill="none" stroke="#3b4ac1" stroke-width="2" points="616,-268.5 616,-291.5 "/>
<text text-anchor="middle" x="626" y="-276.3" font-family="Arial" font-size="14.00"> </text>
</g>
<!-- v1&#45;&gt;v8 -->
<g id="edge31" class="edge"><title>v1:mI1&#45;&gt;v8:mI8</title>
<path fill="none" stroke="#82e88b" stroke-width="2" d="M60,-291C119.71,-291 132.663,-309.338 192,-316 345.707,-333.258 389.398,-354.252 540,-319 553.053,-315.945 556.957,-308.189 565.929,-304.721"/>
<polygon fill="#82e88b" stroke="#82e88b" points="566.733,-308.135 576,-303 565.553,-301.235 566.733,-308.135"/>
</g>
<!-- v11 -->
<g id="node11" class="node"><title>v11</title>
<polygon fill="#f2f4f7" stroke="#a3ae99" stroke-width="2" points="864,-154.5 864,-223.5 924,-223.5 924,-154.5 864,-154.5"/>
<text text-anchor="middle" x="874" y="-208.3" font-family="Arial" font-size="14.00"> </text>
<polyline fill="none" stroke="#a3ae99" stroke-width="2" points="884,-200.5 884,-223.5 "/>
<text text-anchor="middle" x="894" y="-208.3" font-family="Arial" font-size="14.00"> </text>
<polyline fill="none" stroke="#a3ae99" stroke-width="2" points="904,-200.5 904,-223.5 "/>
<text text-anchor="middle" x="914" y="-208.3" font-family="Arial" font-size="14.00"> </text>
<polyline fill="none" stroke="#a3ae99" stroke-width="2" points="864,-200.5 924,-200.5 "/>
<text text-anchor="middle" x="894" y="-185.3" font-family="Arial" font-size="14.00">11. 11</text>
<polyline fill="none" stroke="#a3ae99" stroke-width="2" points="864,-177.5 924,-177.5 "/>
<text text-anchor="middle" x="874" y="-162.3" font-family="Arial" font-size="14.00"> </text>
<polyline fill="none" stroke="#a3ae99" stroke-width="2" points="884,-154.5 884,-177.5 "/>
<text text-anchor="middle" x="894" y="-162.3" font-family="Arial" font-size="14.00"> </text>
<polyline fill="none" stroke="#a3ae99" stroke-width="2" points="904,-154.5 904,-177.5 "/>
<text text-anchor="middle" x="914" y="-162.3" font-family="Arial" font-size="14.00"> </text>
</g>
<!-- v1&#45;&gt;v11 -->
<g id="edge12" class="edge"><title>v1:mI1&#45;&gt;v11:mI11</title>
<path fill="none" stroke="#82e88b" stroke-width="2" d="M60,-291C140.277,-291 39.9385,-171.459 96,-114 112.721,-96.8623 295.014,-65.0444 384,-57 600.911,-37.391 641.503,-184.294 853.761,-188.89"/>
<polygon fill="#82e88b" stroke="#82e88b" points="853.963,-192.392 864,-189 854.038,-185.393 853.963,-192.392"/>
</g>
<!-- v13 -->
<g id="node13" class="node"><title>v13</title>
<polygon fill="#f2f4f7" stroke="#b08baa" stroke-width="2" points="1056,-344.5 1056,-413.5 1116,-413.5 1116,-344.5 1056,-344.5"/>
<text text-anchor="middle" x="1066" y="-398.3" font-family="Arial" font-size="14.00"> </text>
<polyline fill="none" stroke="#b08baa" stroke-width="2" points="1076,-390.5 1076,-413.5 "/>
<text text-anchor="middle" x="1086" y="-398.3" font-family="Arial" font-size="14.00"> </text>
<polyline fill="none" stroke="#b08baa" stroke-width="2" points="1096,-390.5 1096,-413.5 "/>
<text text-anchor="middle" x="1106" y="-398.3" font-family="Arial" font-size="14.00"> </text>
<polyline fill="none" stroke="#b08baa" stroke-width="2" points="1056,-390.5 1116,-390.5 "/>
<text text-anchor="middle" x="1086" y="-375.3" font-family="Arial" font-size="14.00">13. 13</text>
<polyline fill="none" stroke="#b08baa" stroke-width="2" points="1056,-367.5 1116,-367.5 "/>
<text text-anchor="middle" x="1066" y="-352.3" font-family="Arial" font-size="14.00"> </text>
<polyline fill="none" stroke="#b08baa" stroke-width="2" points="1076,-344.5 1076,-367.5 "/>
<text text-anchor="middle" x="1086" y="-352.3" font-family="Arial" font-size="14.00"> </text>
<polyline fill="none" stroke="#b08baa" stroke-width="2" points="1096,-344.5 1096,-367.5 "/>
<text text-anchor="middle" x="1106" y="-352.3" font-family="Arial" font-size="14.00"> </text>
</g>
<!-- v1&#45;&gt;v13 -->
<g id="edge13" class="edge"><title>v1:mI1&#45;&gt;v13:mI13</title>
<path fill="none" stroke="#82e88b" stroke-width="2" d="M60,-291C122.097,-291 73.7176,-368.039 96,-426 139.723,-539.732 99.1533,-670 221,-670 221,-670 221,-670 703,-670 751.052,-670 978.278,-409.958 1045.93,-381.516"/>
<polygon fill="#82e88b" stroke="#82e88b" points="1047.15,-384.819 1056,-379 1045.45,-378.027 1047.15,-384.819"/>
</g>
<!-- v3 -->
<g id="node3" class="node"><title>v3</title>
<polygon fill="#f2f4f7" stroke="#9dda79" stroke-width="2" points="192,-237.5 192,-306.5 252,-306.5 252,-237.5 192,-237.5"/>
<text text-anchor="middle" x="202" y="-291.3" font-family="Arial" font-size="14.00"> </text>
<polyline fill="none" stroke="#9dda79" stroke-width="2" points="212,-283.5 212,-306.5 "/>
<text text-anchor="middle" x="222" y="-291.3" font-family="Arial" font-size="14.00"> </text>
<polyline fill="none" stroke="#9dda79" stroke-width="2" points="232,-283.5 232,-306.5 "/>
<text text-anchor="middle" x="242" y="-291.3" font-family="Arial" font-size="14.00"> </text>
<polyline fill="none" stroke="#9dda79" stroke-width="2" points="192,-283.5 252,-283.5 "/>
<text text-anchor="middle" x="222" y="-268.3" font-family="Arial" font-size="14.00">3. 3</text>
<polyline fill="none" stroke="#9dda79" stroke-width="2" points="192,-260.5 252,-260.5 "/>
<text text-anchor="middle" x="202" y="-245.3" font-family="Arial" font-size="14.00"> </text>
<polyline fill="none" stroke="#9dda79" stroke-width="2" points="212,-237.5 212,-260.5 "/>
<text text-anchor="middle" x="222" y="-245.3" font-family="Arial" font-size="14.00"> </text>
<polyline fill="none" stroke="#9dda79" stroke-width="2" points="232,-237.5 232,-260.5 "/>
<text text-anchor="middle" x="242" y="-245.3" font-family="Arial" font-size="14.00"> </text>
</g>
<!-- v2&#45;&gt;v3 -->
<g id="edge17" class="edge"><title>v2:mI2&#45;&gt;v3:mI3</title>
<path fill="none" stroke="#5f9d9a" stroke-width="2" d="M156,-209C183.966,-209 166.249,-256.377 182.081,-268.961"/>
<polygon fill="#5f9d9a" stroke="#5f9d9a" points="181.413,-272.417 192,-272 183.464,-265.724 181.413,-272.417"/>
</g>
<!-- v4 -->
<g id="node4" class="node"><title>v4</title>
<polygon fill="#f2f4f7" stroke="#936ccb" stroke-width="2" points="288,-212.5 288,-281.5 348,-281.5 348,-212.5 288,-212.5"/>
<text text-anchor="middle" x="298" y="-266.3" font-family="Arial" font-size="14.00"> </text>
<polyline fill="none" stroke="#936ccb" stroke-width="2" points="308,-258.5 308,-281.5 "/>
<text text-anchor="middle" x="318" y="-266.3" font-family="Arial" font-size="14.00"> </text>
<polyline fill="none" stroke="#936ccb" stroke-width="2" points="328,-258.5 328,-281.5 "/>
<text text-anchor="middle" x="338" y="-266.3" font-family="Arial" font-size="14.00"> </text>
<polyline fill="none" stroke="#936ccb" stroke-width="2" points="288,-258.5 348,-258.5 "/>
<text text-anchor="middle" x="318" y="-243.3" font-family="Arial" font-size="14.00">4. 4</text>
<polyline fill="none" stroke="#936ccb" stroke-width="2" points="288,-235.5 348,-235.5 "/>
<text text-anchor="middle" x="298" y="-220.3" font-family="Arial" font-size="14.00"> </text>
<polyline fill="none" stroke="#936ccb" stroke-width="2" points="308,-212.5 308,-235.5 "/>
<text text-anchor="middle" x="318" y="-220.3" font-family="Arial" font-size="14.00"> </text>
<polyline fill="none" stroke="#936ccb" stroke-width="2" points="328,-212.5 328,-235.5 "/>
<text text-anchor="middle" x="338" y="-220.3" font-family="Arial" font-size="14.00"> </text>
</g>
<!-- v2&#45;&gt;v4 -->
<g id="edge18" class="edge"><title>v2:mI2&#45;&gt;v4:mI4</title>
<path fill="none" stroke="#5f9d9a" stroke-width="2" d="M156,-209C199.494,-209 211.003,-213.474 252,-228 265.189,-232.673 268.689,-241.483 277.969,-245.236"/>
<polygon fill="#5f9d9a" stroke="#5f9d9a" points="277.545,-248.715 288,-247 278.757,-241.821 277.545,-248.715"/>
</g>
<!-- v2&#45;&gt;v6 -->
<g id="edge24" class="edge"><title>v2:mI2&#45;&gt;v6:mI6</title>
<path fill="none" stroke="#5f9d9a" stroke-width="2" d="M156,-209C184.109,-209 169.197,-173.436 192,-157 199.957,-151.265 334.842,-112.012 373.991,-102.891"/>
<polygon fill="#5f9d9a" stroke="#5f9d9a" points="374.823,-106.295 384,-101 373.524,-99.417 374.823,-106.295"/>
</g>
<!-- v9 -->
<g id="node9" class="node"><title>v9</title>
<polygon fill="#f2f4f7" stroke="#a8d753" stroke-width="2" points="672,-268.5 672,-337.5 732,-337.5 732,-268.5 672,-268.5"/>
<text text-anchor="middle" x="682" y="-322.3" font-family="Arial" font-size="14.00"> </text>
<polyline fill="none" stroke="#a8d753" stroke-width="2" points="692,-314.5 692,-337.5 "/>
<text text-anchor="middle" x="702" y="-322.3" font-family="Arial" font-size="14.00"> </text>
<polyline fill="none" stroke="#a8d753" stroke-width="2" points="712,-314.5 712,-337.5 "/>
<text text-anchor="middle" x="722" y="-322.3" font-family="Arial" font-size="14.00"> </text>
<polyline fill="none" stroke="#a8d753" stroke-width="2" points="672,-314.5 732,-314.5 "/>
<text text-anchor="middle" x="702" y="-299.3" font-family="Arial" font-size="14.00">9. 9</text>
<polyline fill="none" stroke="#a8d753" stroke-width="2" points="672,-291.5 732,-291.5 "/>
<text text-anchor="middle" x="682" y="-276.3" font-family="Arial" font-size="14.00"> </text>
<polyline fill="none" stroke="#a8d753" stroke-width="2" points="692,-268.5 692,-291.5 "/>
<text text-anchor="middle" x="702" y="-276.3" font-family="Arial" font-size="14.00"> </text>
<polyline fill="none" stroke="#a8d753" stroke-width="2" points="712,-268.5 712,-291.5 "/>
<text text-anchor="middle" x="722" y="-276.3" font-family="Arial" font-size="14.00"> </text>
</g>
<!-- v2&#45;&gt;v9 -->
<g id="edge34" class="edge"><title>v2:mI2&#45;&gt;v9:mI9</title>
<path fill="none" stroke="#5f9d9a" stroke-width="2" d="M156,-209C172.055,-209 175.971,-206.918 192,-206 261.233,-202.036 278.973,-196.351 348,-203 477.797,-215.502 524.061,-192.119 636,-259 654.132,-269.833 649.45,-293.301 662.185,-300.71"/>
<polygon fill="#5f9d9a" stroke="#5f9d9a" points="661.466,-304.137 672,-303 663.057,-297.32 661.466,-304.137"/>
</g>
<!-- v10 -->
<g id="node10" class="node"><title>v10</title>
<polygon fill="#f2f4f7" stroke="#8c70b5" stroke-width="2" points="768,-407.5 768,-476.5 828,-476.5 828,-407.5 768,-407.5"/>
<text text-anchor="middle" x="778" y="-461.3" font-family="Arial" font-size="14.00"> </text>
<polyline fill="none" stroke="#8c70b5" stroke-width="2" points="788,-453.5 788,-476.5 "/>
<text text-anchor="middle" x="798" y="-461.3" font-family="Arial" font-size="14.00"> </text>
<polyline fill="none" stroke="#8c70b5" stroke-width="2" points="808,-453.5 808,-476.5 "/>
<text text-anchor="middle" x="818" y="-461.3" font-family="Arial" font-size="14.00"> </text>
<polyline fill="none" stroke="#8c70b5" stroke-width="2" points="768,-453.5 828,-453.5 "/>
<text text-anchor="middle" x="798" y="-438.3" font-family="Arial" font-size="14.00">10. 10</text>
<polyline fill="none" stroke="#8c70b5" stroke-width="2" points="768,-430.5 828,-430.5 "/>
<text text-anchor="middle" x="778" y="-415.3" font-family="Arial" font-size="14.00"> </text>
<polyline fill="none" stroke="#8c70b5" stroke-width="2" points="788,-407.5 788,-430.5 "/>
<text text-anchor="middle" x="798" y="-415.3" font-family="Arial" font-size="14.00"> </text>
<polyline fill="none" stroke="#8c70b5" stroke-width="2" points="808,-407.5 808,-430.5 "/>
<text text-anchor="middle" x="818" y="-415.3" font-family="Arial" font-size="14.00"> </text>
</g>
<!-- v2&#45;&gt;v10 -->
<g id="edge7" class="edge"><title>v2:mI2&#45;&gt;v10:mI10</title>
<path fill="none" stroke="#5f9d9a" stroke-width="2" d="M156,-209C206.175,-209 175.128,-268.747 192,-316 232.582,-429.655 206.995,-480.543 288,-570 329.625,-615.968 350.986,-632 413,-632 413,-632 413,-632 511,-632 629.96,-632 641.971,-558.758 732,-481 746.784,-468.231 745.593,-449.865 758.144,-443.929"/>
<polygon fill="#5f9d9a" stroke="#5f9d9a" points="758.858,-447.355 768,-442 757.514,-440.486 758.858,-447.355"/>
</g>
<!-- v12 -->
<g id="node12" class="node"><title>v12</title>
<polygon fill="#f2f4f7" stroke="#a18d95" stroke-width="2" points="960,-122.5 960,-191.5 1020,-191.5 1020,-122.5 960,-122.5"/>
<text text-anchor="middle" x="970" y="-176.3" font-family="Arial" font-size="14.00"> </text>
<polyline fill="none" stroke="#a18d95" stroke-width="2" points="980,-168.5 980,-191.5 "/>
<text text-anchor="middle" x="990" y="-176.3" font-family="Arial" font-size="14.00"> </text>
<polyline fill="none" stroke="#a18d95" stroke-width="2" points="1000,-168.5 1000,-191.5 "/>
<text text-anchor="middle" x="1010" y="-176.3" font-family="Arial" font-size="14.00"> </text>
<polyline fill="none" stroke="#a18d95" stroke-width="2" points="960,-168.5 1020,-168.5 "/>
<text text-anchor="middle" x="990" y="-153.3" font-family="Arial" font-size="14.00">12. 12</text>
<polyline fill="none" stroke="#a18d95" stroke-width="2" points="960,-145.5 1020,-145.5 "/>
<text text-anchor="middle" x="970" y="-130.3" font-family="Arial" font-size="14.00"> </text>
<polyline fill="none" stroke="#a18d95" stroke-width="2" points="980,-122.5 980,-145.5 "/>
<text text-anchor="middle" x="990" y="-130.3" font-family="Arial" font-size="14.00"> </text>
<polyline fill="none" stroke="#a18d95" stroke-width="2" points="1000,-122.5 1000,-145.5 "/>
<text text-anchor="middle" x="1010" y="-130.3" font-family="Arial" font-size="14.00"> </text>
</g>
<!-- v2&#45;&gt;v12 -->
<g id="edge11" class="edge"><title>v2:mI2&#45;&gt;v12:mI12</title>
<path fill="none" stroke="#5f9d9a" stroke-width="2" d="M156,-209C193.376,-209 164.982,-158.826 192,-133 302.446,-27.4281 356.213,-9.76996e-015 509,-0 509,-0 509,-0 799,-0 866.183,-4.44089e-015 879.769,-34.4308 924,-85 944.886,-108.879 928.907,-147.022 949.963,-155.357"/>
<polygon fill="#5f9d9a" stroke="#5f9d9a" points="949.566,-158.838 960,-157 950.697,-151.93 949.566,-158.838"/>
</g>
<!-- v3&#45;&gt;v4 -->
<g id="edge19" class="edge"><title>v3:mI3&#45;&gt;v4:mI4</title>
<path fill="none" stroke="#9dda79" stroke-width="2" d="M252,-272C267.371,-272 268.77,-256.435 278.247,-249.868"/>
<polygon fill="#9dda79" stroke="#9dda79" points="279.394,-253.179 288,-247 277.419,-246.463 279.394,-253.179"/>
</g>
<!-- v3&#45;&gt;v8 -->
<g id="edge27" class="edge"><title>v3:mI3&#45;&gt;v8:mI8</title>
<path fill="none" stroke="#9dda79" stroke-width="2" d="M252,-272C270.092,-272 270.571,-286.15 288,-291 408.046,-324.408 445.83,-304.18 565.693,-303.049"/>
<polygon fill="#9dda79" stroke="#9dda79" points="566.017,-306.547 576,-303 565.984,-299.547 566.017,-306.547"/>
</g>
<!-- v14 -->
<g id="node14" class="node"><title>v14</title>
<polygon fill="#f2f4f7" stroke="#42cedd" stroke-width="2" points="1152,-450.5 1152,-519.5 1212,-519.5 1212,-450.5 1152,-450.5"/>
<text text-anchor="middle" x="1162" y="-504.3" font-family="Arial" font-size="14.00"> </text>
<polyline fill="none" stroke="#42cedd" stroke-width="2" points="1172,-496.5 1172,-519.5 "/>
<text text-anchor="middle" x="1182" y="-504.3" font-family="Arial" font-size="14.00"> </text>
<polyline fill="none" stroke="#42cedd" stroke-width="2" points="1192,-496.5 1192,-519.5 "/>
<text text-anchor="middle" x="1202" y="-504.3" font-family="Arial" font-size="14.00"> </text>
<polyline fill="none" stroke="#42cedd" stroke-width="2" points="1152,-496.5 1212,-496.5 "/>
<text text-anchor="middle" x="1182" y="-481.3" font-family="Arial" font-size="14.00">14. 14</text>
<polyline fill="none" stroke="#42cedd" stroke-width="2" points="1152,-473.5 1212,-473.5 "/>
<text text-anchor="middle" x="1162" y="-458.3" font-family="Arial" font-size="14.00"> </text>
<polyline fill="none" stroke="#42cedd" stroke-width="2" points="1172,-450.5 1172,-473.5 "/>
<text text-anchor="middle" x="1182" y="-458.3" font-family="Arial" font-size="14.00"> </text>
<polyline fill="none" stroke="#42cedd" stroke-width="2" points="1192,-450.5 1192,-473.5 "/>
<text text-anchor="middle" x="1202" y="-458.3" font-family="Arial" font-size="14.00"> </text>
</g>
<!-- v3&#45;&gt;v14 -->
<g id="edge14" class="edge"><title>v3:mI3&#45;&gt;v14:mI14</title>
<path fill="none" stroke="#9dda79" stroke-width="2" d="M252,-272C284.796,-272 358.217,-515.732 384,-536 495.821,-623.904 883.867,-649.218 1020,-608 1069.08,-593.14 1080.48,-580.98 1116,-544 1134.45,-524.79 1124.87,-494.528 1142.04,-486.829"/>
<polygon fill="#9dda79" stroke="#9dda79" points="1142.8,-490.248 1152,-485 1141.53,-483.363 1142.8,-490.248"/>
</g>
<!-- v4&#45;&gt;v5 -->
<g id="edge20" class="edge"><title>v4:mI4&#45;&gt;v5:mI5</title>
<path fill="none" stroke="#936ccb" stroke-width="2" d="M348,-247C399.16,-247 338.747,-458.758 374.217,-488.537"/>
<polygon fill="#936ccb" stroke="#936ccb" points="373.405,-491.962 384,-492 375.741,-485.363 373.405,-491.962"/>
</g>
<!-- v4&#45;&gt;v6 -->
<g id="edge22" class="edge"><title>v4:mI4&#45;&gt;v6:mI6</title>
<path fill="none" stroke="#936ccb" stroke-width="2" d="M348,-247C410.916,-247 328.048,-117.608 373.88,-102.445"/>
<polygon fill="#936ccb" stroke="#936ccb" points="374.595,-105.879 384,-101 373.606,-98.9488 374.595,-105.879"/>
</g>
<!-- v7 -->
<g id="node7" class="node"><title>v7</title>
<polygon fill="#f2f4f7" stroke="#379d89" stroke-width="2" points="480,-420.5 480,-489.5 540,-489.5 540,-420.5 480,-420.5"/>
<text text-anchor="middle" x="490" y="-474.3" font-family="Arial" font-size="14.00"> </text>
<polyline fill="none" stroke="#379d89" stroke-width="2" points="500,-466.5 500,-489.5 "/>
<text text-anchor="middle" x="510" y="-474.3" font-family="Arial" font-size="14.00"> </text>
<polyline fill="none" stroke="#379d89" stroke-width="2" points="520,-466.5 520,-489.5 "/>
<text text-anchor="middle" x="530" y="-474.3" font-family="Arial" font-size="14.00"> </text>
<polyline fill="none" stroke="#379d89" stroke-width="2" points="480,-466.5 540,-466.5 "/>
<text text-anchor="middle" x="510" y="-451.3" font-family="Arial" font-size="14.00">7. 7</text>
<polyline fill="none" stroke="#379d89" stroke-width="2" points="480,-443.5 540,-443.5 "/>
<text text-anchor="middle" x="490" y="-428.3" font-family="Arial" font-size="14.00"> </text>
<polyline fill="none" stroke="#379d89" stroke-width="2" points="500,-420.5 500,-443.5 "/>
<text text-anchor="middle" x="510" y="-428.3" font-family="Arial" font-size="14.00"> </text>
<polyline fill="none" stroke="#379d89" stroke-width="2" points="520,-420.5 520,-443.5 "/>
<text text-anchor="middle" x="530" y="-428.3" font-family="Arial" font-size="14.00"> </text>
</g>
<!-- v4&#45;&gt;v7 -->
<g id="edge25" class="edge"><title>v4:mI4&#45;&gt;v7:mI7</title>
<path fill="none" stroke="#936ccb" stroke-width="2" d="M348,-247C372.806,-247 438.581,-417.828 471.068,-449.858"/>
<polygon fill="#936ccb" stroke="#936ccb" points="469.587,-453.044 480,-455 473.08,-446.978 469.587,-453.044"/>
</g>
<!-- v4&#45;&gt;v8 -->
<g id="edge28" class="edge"><title>v4:mI4&#45;&gt;v8:mI8</title>
<path fill="none" stroke="#936ccb" stroke-width="2" d="M348,-247C371.794,-247 520.163,-293.589 565.855,-301.778"/>
<polygon fill="#936ccb" stroke="#936ccb" points="565.653,-305.279 576,-303 566.49,-298.329 565.653,-305.279"/>
</g>
<!-- v4&#45;&gt;v12 -->
<g id="edge6" class="edge"><title>v4:mI4&#45;&gt;v12:mI12</title>
<path fill="none" stroke="#936ccb" stroke-width="2" d="M348,-247C366.523,-247 366.675,-232.555 384,-226 586.348,-149.435 648.244,-161.018 864,-145 890.593,-143.026 897.678,-140.728 924,-145 936.616,-147.047 941.099,-152.883 949.871,-155.59"/>
<polygon fill="#936ccb" stroke="#936ccb" points="949.613,-159.087 960,-157 950.578,-152.154 949.613,-159.087"/>
</g>
<!-- v4&#45;&gt;v13 -->
<g id="edge15" class="edge"><title>v4:mI4&#45;&gt;v13:mI13</title>
<path fill="none" stroke="#936ccb" stroke-width="2" d="M348,-247C518.75,-247 564.419,-226.254 732,-259 804.117,-273.092 964.629,-370.12 1045.59,-378.432"/>
<polygon fill="#936ccb" stroke="#936ccb" points="1045.82,-381.95 1056,-379 1046.21,-374.961 1045.82,-381.95"/>
</g>
<!-- v5&#45;&gt;v7 -->
<g id="edge26" class="edge"><title>v5:mI5&#45;&gt;v7:mI7</title>
<path fill="none" stroke="#e4cfb3" stroke-width="2" d="M444,-492C462.821,-492 459.549,-467.102 470.431,-458.155"/>
<polygon fill="#e4cfb3" stroke="#e4cfb3" points="471.599,-461.455 480,-455 469.407,-454.807 471.599,-461.455"/>
</g>
<!-- v5&#45;&gt;v9 -->
<g id="edge32" class="edge"><title>v5:mI5&#45;&gt;v9:mI9</title>
<path fill="none" stroke="#e4cfb3" stroke-width="2" d="M444,-492C483.395,-492 451.744,-438.451 480,-411 533.752,-358.78 575.764,-391.586 636,-347 652.977,-334.434 649.071,-312.13 662.092,-305.15"/>
<polygon fill="#e4cfb3" stroke="#e4cfb3" points="662.969,-308.541 672,-303 661.485,-301.7 662.969,-308.541"/>
</g>
<!-- v5&#45;&gt;v10 -->
<g id="edge8" class="edge"><title>v5:mI5&#45;&gt;v10:mI10</title>
<path fill="none" stroke="#e4cfb3" stroke-width="2" d="M444,-492C460.3,-492 463.775,-497.437 480,-499 506.544,-501.557 513.481,-501.8 540,-499 626.775,-489.838 649.017,-484.976 732,-458 744.749,-453.856 748.815,-446.678 757.879,-443.542"/>
<polygon fill="#e4cfb3" stroke="#e4cfb3" points="758.641,-446.966 768,-442 757.587,-440.046 758.641,-446.966"/>
</g>
<!-- v5&#45;&gt;v14 -->
<g id="edge5" class="edge"><title>v5:mI5&#45;&gt;v14:mI14</title>
<path fill="none" stroke="#e4cfb3" stroke-width="2" d="M444,-492C462.751,-492 462.714,-506.735 480,-514 613.956,-570.301 651.694,-594 797,-594 797,-594 797,-594 991,-594 992.166,-594 1110.3,-512.767 1143.45,-490.555"/>
<polygon fill="#e4cfb3" stroke="#e4cfb3" points="1145.52,-493.382 1152,-485 1141.71,-487.512 1145.52,-493.382"/>
</g>
<!-- v6&#45;&gt;v8 -->
<g id="edge29" class="edge"><title>v6:mI6&#45;&gt;v8:mI8</title>
<path fill="none" stroke="#656acb" stroke-width="2" d="M444,-101C468.298,-101 534.946,-266.9 567.185,-298.007"/>
<polygon fill="#656acb" stroke="#656acb" points="565.574,-301.117 576,-303 569.024,-295.026 565.574,-301.117"/>
</g>
<!-- v6&#45;&gt;v12 -->
<g id="edge9" class="edge"><title>v6:mI6&#45;&gt;v12:mI12</title>
<path fill="none" stroke="#656acb" stroke-width="2" d="M444,-101C515.788,-101 533.212,-88 605,-88 605,-88 605,-88 799,-88 855.57,-88 875.563,-82.7759 924,-112 942.332,-123.061 937.274,-147.075 950.082,-154.657"/>
<polygon fill="#656acb" stroke="#656acb" points="949.463,-158.107 960,-157 951.073,-151.294 949.463,-158.107"/>
</g>
<!-- v7&#45;&gt;v8 -->
<g id="edge30" class="edge"><title>v7:mI7&#45;&gt;v8:mI8</title>
<path fill="none" stroke="#379d89" stroke-width="2" d="M540,-455C605.492,-455 517.674,-319.731 565.799,-304.408"/>
<polygon fill="#379d89" stroke="#379d89" points="566.572,-307.834 576,-303 565.615,-300.9 566.572,-307.834"/>
</g>
<!-- v7&#45;&gt;v10 -->
<g id="edge1" class="edge"><title>v7:mI7&#45;&gt;v10:mI10</title>
<path fill="none" stroke="#379d89" stroke-width="2" d="M540,-455C638.029,-455 664.703,-442.873 757.854,-442.045"/>
<polygon fill="#379d89" stroke="#379d89" points="758.015,-445.544 768,-442 757.985,-438.544 758.015,-445.544"/>
</g>
<!-- v7&#45;&gt;v13 -->
<g id="edge10" class="edge"><title>v7:mI7&#45;&gt;v13:mI13</title>
<path fill="none" stroke="#379d89" stroke-width="2" d="M540,-455C540,-455 768,-398 768,-398 891.267,-378.685 925.848,-378.969 1045.69,-378.999"/>
<polygon fill="#379d89" stroke="#379d89" points="1046,-382.498 1056,-379 1046,-375.498 1046,-382.498"/>
</g>
<!-- v7&#45;&gt;v14 -->
<g id="edge4" class="edge"><title>v7:mI7&#45;&gt;v14:mI14</title>
<path fill="none" stroke="#379d89" stroke-width="2" d="M540,-455C556.73,-455 559.635,-462.521 576,-466 714.848,-495.519 751.049,-505 893,-505 893,-505 893,-505 991,-505 1046.9,-505 1060.63,-498.709 1116,-491 1128.05,-489.322 1133.15,-486.786 1141.79,-485.623"/>
<polygon fill="#379d89" stroke="#379d89" points="1142.23,-489.103 1152,-485 1141.81,-482.116 1142.23,-489.103"/>
</g>
<!-- v8&#45;&gt;v9 -->
<g id="edge33" class="edge"><title>v8:mI8&#45;&gt;v9:mI9</title>
<path fill="none" stroke="#3b4ac1" stroke-width="2" d="M636,-303C648,-303 653.25,-303 661.875,-303"/>
<polygon fill="#3b4ac1" stroke="#3b4ac1" points="662,-306.5 672,-303 662,-299.5 662,-306.5"/>
</g>
<!-- v9&#45;&gt;v10 -->
<g id="edge2" class="edge"><title>v9:mI9&#45;&gt;v10:mI10</title>
<path fill="none" stroke="#a8d753" stroke-width="2" d="M732,-303C791.952,-303 714.71,-425.678 758.049,-440.533"/>
<polygon fill="#a8d753" stroke="#a8d753" points="757.596,-444.004 768,-442 758.617,-437.079 757.596,-444.004"/>
</g>
<!-- v9&#45;&gt;v11 -->
<g id="edge3" class="edge"><title>v9:mI9&#45;&gt;v11:mI11</title>
<path fill="none" stroke="#a8d753" stroke-width="2" d="M732,-303C805.883,-303 788.421,-199.437 853.741,-189.728"/>
<polygon fill="#a8d753" stroke="#a8d753" points="854.273,-193.199 864,-189 853.777,-186.217 854.273,-193.199"/>
</g>
<!-- v10&#45;&gt;v11 -->
<g id="edge35" class="edge"><title>v10:mI10&#45;&gt;v11:mI11</title>
<path fill="none" stroke="#8c70b5" stroke-width="2" d="M828,-442C881.017,-442 816.922,-221.486 854.386,-192.199"/>
<polygon fill="#8c70b5" stroke="#8c70b5" points="855.616,-195.478 864,-189 853.406,-188.836 855.616,-195.478"/>
</g>
<!-- v10&#45;&gt;v14 -->
<g id="edge40" class="edge"><title>v10:mI10&#45;&gt;v14:mI14</title>
<path fill="none" stroke="#8c70b5" stroke-width="2" d="M828,-442C969.858,-442 1005.11,-483.008 1141.97,-484.93"/>
<polygon fill="#8c70b5" stroke="#8c70b5" points="1141.98,-488.43 1152,-485 1142.02,-481.43 1141.98,-488.43"/>
</g>
<!-- v11&#45;&gt;v12 -->
<g id="edge36" class="edge"><title>v11:mI11&#45;&gt;v12:mI12</title>
<path fill="none" stroke="#a3ae99" stroke-width="2" d="M924,-189C941.226,-189 940.178,-168.279 950.266,-160.185"/>
<polygon fill="#a3ae99" stroke="#a3ae99" points="951.584,-163.437 960,-157 949.407,-156.784 951.584,-163.437"/>
</g>
<!-- v12&#45;&gt;v13 -->
<g id="edge37" class="edge"><title>v12:mI12&#45;&gt;v13:mI13</title>
<path fill="none" stroke="#a18d95" stroke-width="2" d="M1020,-157C1116.25,-157 967.846,-362.829 1045.94,-378.106"/>
<polygon fill="#a18d95" stroke="#a18d95" points="1045.73,-381.601 1056,-379 1046.35,-374.628 1045.73,-381.601"/>
</g>
<!-- v12&#45;&gt;v14 -->
<g id="edge39" class="edge"><title>v12:mI12&#45;&gt;v14:mI14</title>
<path fill="none" stroke="#a18d95" stroke-width="2" d="M1020,-157C1109.88,-157 1083.91,-251.04 1116,-335 1139.14,-395.539 1089.43,-475.664 1141.84,-484.246"/>
<polygon fill="#a18d95" stroke="#a18d95" points="1141.77,-487.75 1152,-485 1142.29,-480.769 1141.77,-487.75"/>
</g>
<!-- v13&#45;&gt;v14 -->
<g id="edge38" class="edge"><title>v13:mI13&#45;&gt;v14:mI14</title>
<path fill="none" stroke="#b08baa" stroke-width="2" d="M1116,-379C1161.67,-379 1111.9,-468.323 1141.92,-482.977"/>
<polygon fill="#b08baa" stroke="#b08baa" points="1141.51,-486.464 1152,-485 1142.88,-479.601 1141.51,-486.464"/>
</g>
</g>
</svg>
