<?xml version="1.0" encoding="UTF-8" standalone="no"?>
<!DOCTYPE svg PUBLIC "-//W3C//DTD SVG 1.1//EN"
 "http://www.w3.org/Graphics/SVG/1.1/DTD/svg11.dtd">
<!-- Generated by graphviz version 2.34.0 (20130907.0111)
 -->
<!-- Title: NetworkGraph02 Pages: 1 -->
<svg width="1620pt" height="678pt"
 viewBox="0.00 0.00 1620.00 678.00" xmlns="http://www.w3.org/2000/svg" xmlns:xlink="http://www.w3.org/1999/xlink">
<g id="graph0" class="graph" transform="scale(1 1) rotate(0) translate(4 674)">
<title>NetworkGraph02</title>
<polygon fill="white" stroke="white" points="-4,4 -4,-674 1616,-674 1616,4 -4,4"/>
<!-- v1 -->
<g id="node1" class="node"><title>v1</title>
<polygon fill="#f2f4f7" stroke="#82e88b" stroke-width="2" points="0.5,-256.5 0.5,-325.5 75.5,-325.5 75.5,-256.5 0.5,-256.5"/>
<text text-anchor="middle" x="13" y="-310.3" font-family="Arial" font-size="14.00">0</text>
<polyline fill="none" stroke="#82e88b" stroke-width="2" points="25.5,-302.5 25.5,-325.5 "/>
<text text-anchor="middle" x="38" y="-310.3" font-family="Arial" font-size="14.00">1</text>
<polyline fill="none" stroke="#82e88b" stroke-width="2" points="50.5,-302.5 50.5,-325.5 "/>
<text text-anchor="middle" x="63" y="-310.3" font-family="Arial" font-size="14.00">1</text>
<polyline fill="none" stroke="#82e88b" stroke-width="2" points="0.5,-302.5 75.5,-302.5 "/>
<text text-anchor="middle" x="38" y="-287.3" font-family="Arial" font-size="14.00">1. 1</text>
<polyline fill="none" stroke="#82e88b" stroke-width="2" points="0.5,-279.5 75.5,-279.5 "/>
<text text-anchor="middle" x="13" y="-264.3" font-family="Arial" font-size="14.00"> </text>
<polyline fill="none" stroke="#82e88b" stroke-width="2" points="25.5,-256.5 25.5,-279.5 "/>
<text text-anchor="middle" x="38" y="-264.3" font-family="Arial" font-size="14.00"> </text>
<polyline fill="none" stroke="#82e88b" stroke-width="2" points="50.5,-256.5 50.5,-279.5 "/>
<text text-anchor="middle" x="63" y="-264.3" font-family="Arial" font-size="14.00"> </text>
</g>
<!-- v2 -->
<g id="node2" class="node"><title>v2</title>
<polygon fill="#f2f4f7" stroke="#5f9d9a" stroke-width="2" points="112.5,-174.5 112.5,-243.5 187.5,-243.5 187.5,-174.5 112.5,-174.5"/>
<text text-anchor="middle" x="125" y="-228.3" font-family="Arial" font-size="14.00">1</text>
<polyline fill="none" stroke="#5f9d9a" stroke-width="2" points="137.5,-220.5 137.5,-243.5 "/>
<text text-anchor="middle" x="150" y="-228.3" font-family="Arial" font-size="14.00">2</text>
<polyline fill="none" stroke="#5f9d9a" stroke-width="2" points="162.5,-220.5 162.5,-243.5 "/>
<text text-anchor="middle" x="175" y="-228.3" font-family="Arial" font-size="14.00">3</text>
<polyline fill="none" stroke="#5f9d9a" stroke-width="2" points="112.5,-220.5 187.5,-220.5 "/>
<text text-anchor="middle" x="150" y="-205.3" font-family="Arial" font-size="14.00">2. 2</text>
<polyline fill="none" stroke="#5f9d9a" stroke-width="2" points="112.5,-197.5 187.5,-197.5 "/>
<text text-anchor="middle" x="125" y="-182.3" font-family="Arial" font-size="14.00"> </text>
<polyline fill="none" stroke="#5f9d9a" stroke-width="2" points="137.5,-174.5 137.5,-197.5 "/>
<text text-anchor="middle" x="150" y="-182.3" font-family="Arial" font-size="14.00"> </text>
<polyline fill="none" stroke="#5f9d9a" stroke-width="2" points="162.5,-174.5 162.5,-197.5 "/>
<text text-anchor="middle" x="175" y="-182.3" font-family="Arial" font-size="14.00"> </text>
</g>
<!-- v1&#45;&gt;v2 -->
<g id="edge16" class="edge"><title>v1:mI1&#45;&gt;v2:mI2</title>
<path fill="none" stroke="#82e88b" stroke-width="2" d="M76,-291C111.76,-291 80.1947,-224.81 102.279,-211.366"/>
<polygon fill="#82e88b" stroke="#82e88b" points="103.111,-214.765 112,-209 101.456,-207.964 103.111,-214.765"/>
</g>
<!-- v5 -->
<g id="node5" class="node"><title>v5</title>
<polygon fill="#f2f4f7" stroke="#e4cfb3" stroke-width="2" points="456.5,-457.5 456.5,-526.5 547.5,-526.5 547.5,-457.5 456.5,-457.5"/>
<text text-anchor="middle" x="473" y="-511.3" font-family="Arial" font-size="14.00">10</text>
<polyline fill="none" stroke="#e4cfb3" stroke-width="2" points="489.5,-503.5 489.5,-526.5 "/>
<text text-anchor="middle" x="502" y="-511.3" font-family="Arial" font-size="14.00">5</text>
<polyline fill="none" stroke="#e4cfb3" stroke-width="2" points="514.5,-503.5 514.5,-526.5 "/>
<text text-anchor="middle" x="531" y="-511.3" font-family="Arial" font-size="14.00">15</text>
<polyline fill="none" stroke="#e4cfb3" stroke-width="2" points="456.5,-503.5 547.5,-503.5 "/>
<text text-anchor="middle" x="502" y="-488.3" font-family="Arial" font-size="14.00">5. 5</text>
<polyline fill="none" stroke="#e4cfb3" stroke-width="2" points="456.5,-480.5 547.5,-480.5 "/>
<text text-anchor="middle" x="471.5" y="-465.3" font-family="Arial" font-size="14.00"> </text>
<polyline fill="none" stroke="#e4cfb3" stroke-width="2" points="486.5,-457.5 486.5,-480.5 "/>
<text text-anchor="middle" x="501.5" y="-465.3" font-family="Arial" font-size="14.00"> </text>
<polyline fill="none" stroke="#e4cfb3" stroke-width="2" points="516.5,-457.5 516.5,-480.5 "/>
<text text-anchor="middle" x="532" y="-465.3" font-family="Arial" font-size="14.00"> </text>
</g>
<!-- v1&#45;&gt;v5 -->
<g id="edge21" class="edge"><title>v1:mI1&#45;&gt;v5:mI5</title>
<path fill="none" stroke="#82e88b" stroke-width="2" d="M76,-291C121.568,-291 78.7872,-355.801 112,-387 226.007,-494.093 293.219,-492.138 445.823,-492.005"/>
<polygon fill="#82e88b" stroke="#82e88b" points="446.002,-495.505 456,-492 445.998,-488.505 446.002,-495.505"/>
</g>
<!-- v6 -->
<g id="node6" class="node"><title>v6</title>
<polygon fill="#f2f4f7" stroke="#656acb" stroke-width="2" points="456.5,-66.5 456.5,-135.5 547.5,-135.5 547.5,-66.5 456.5,-66.5"/>
<text text-anchor="middle" x="473" y="-120.3" font-family="Arial" font-size="14.00">10</text>
<polyline fill="none" stroke="#656acb" stroke-width="2" points="489.5,-112.5 489.5,-135.5 "/>
<text text-anchor="middle" x="502" y="-120.3" font-family="Arial" font-size="14.00">6</text>
<polyline fill="none" stroke="#656acb" stroke-width="2" points="514.5,-112.5 514.5,-135.5 "/>
<text text-anchor="middle" x="531" y="-120.3" font-family="Arial" font-size="14.00">16</text>
<polyline fill="none" stroke="#656acb" stroke-width="2" points="456.5,-112.5 547.5,-112.5 "/>
<text text-anchor="middle" x="502" y="-97.3" font-family="Arial" font-size="14.00">6. 6</text>
<polyline fill="none" stroke="#656acb" stroke-width="2" points="456.5,-89.5 547.5,-89.5 "/>
<text text-anchor="middle" x="471.5" y="-74.3" font-family="Arial" font-size="14.00"> </text>
<polyline fill="none" stroke="#656acb" stroke-width="2" points="486.5,-66.5 486.5,-89.5 "/>
<text text-anchor="middle" x="501.5" y="-74.3" font-family="Arial" font-size="14.00"> </text>
<polyline fill="none" stroke="#656acb" stroke-width="2" points="516.5,-66.5 516.5,-89.5 "/>
<text text-anchor="middle" x="532" y="-74.3" font-family="Arial" font-size="14.00"> </text>
</g>
<!-- v1&#45;&gt;v6 -->
<g id="edge23" class="edge"><title>v1:mI1&#45;&gt;v6:mI6</title>
<path fill="none" stroke="#82e88b" stroke-width="2" d="M76,-291C134.241,-291 70.6475,-206.012 112,-165 219.938,-57.9517 296.964,-99.0339 445.637,-100.933"/>
<polygon fill="#82e88b" stroke="#82e88b" points="445.978,-104.436 456,-101 446.023,-97.4357 445.978,-104.436"/>
</g>
<!-- v8 -->
<g id="node8" class="node"><title>v8</title>
<polygon fill="#f2f4f7" stroke="#3b4ac1" stroke-width="2" points="712.5,-268.5 712.5,-337.5 803.5,-337.5 803.5,-268.5 712.5,-268.5"/>
<text text-anchor="middle" x="729" y="-322.3" font-family="Arial" font-size="14.00">22</text>
<polyline fill="none" stroke="#3b4ac1" stroke-width="2" points="745.5,-314.5 745.5,-337.5 "/>
<text text-anchor="middle" x="758" y="-322.3" font-family="Arial" font-size="14.00">8</text>
<polyline fill="none" stroke="#3b4ac1" stroke-width="2" points="770.5,-314.5 770.5,-337.5 "/>
<text text-anchor="middle" x="787" y="-322.3" font-family="Arial" font-size="14.00">30</text>
<polyline fill="none" stroke="#3b4ac1" stroke-width="2" points="712.5,-314.5 803.5,-314.5 "/>
<text text-anchor="middle" x="758" y="-299.3" font-family="Arial" font-size="14.00">8. 8</text>
<polyline fill="none" stroke="#3b4ac1" stroke-width="2" points="712.5,-291.5 803.5,-291.5 "/>
<text text-anchor="middle" x="727.5" y="-276.3" font-family="Arial" font-size="14.00"> </text>
<polyline fill="none" stroke="#3b4ac1" stroke-width="2" points="742.5,-268.5 742.5,-291.5 "/>
<text text-anchor="middle" x="757.5" y="-276.3" font-family="Arial" font-size="14.00"> </text>
<polyline fill="none" stroke="#3b4ac1" stroke-width="2" points="772.5,-268.5 772.5,-291.5 "/>
<text text-anchor="middle" x="788" y="-276.3" font-family="Arial" font-size="14.00"> </text>
</g>
<!-- v1&#45;&gt;v8 -->
<g id="edge31" class="edge"><title>v1:mI1&#45;&gt;v8:mI8</title>
<path fill="none" stroke="#82e88b" stroke-width="2" d="M76,-291C142.71,-291 157.548,-310.138 224,-316 367.446,-328.653 404.002,-319.125 548,-318 604.894,-317.556 620.034,-326.247 676,-316 688.811,-313.654 693.136,-307.28 702.094,-304.421"/>
<polygon fill="#82e88b" stroke="#82e88b" points="702.598,-307.885 712,-303 701.604,-300.956 702.598,-307.885"/>
</g>
<!-- v11 -->
<g id="node11" class="node"><title>v11</title>
<polygon fill="#f2f4f7" stroke="#a3ae99" stroke-width="2" points="1104.5,-154.5 1104.5,-223.5 1203.5,-223.5 1203.5,-154.5 1104.5,-154.5"/>
<text text-anchor="middle" x="1121" y="-208.3" font-family="Arial" font-size="14.00">49</text>
<polyline fill="none" stroke="#a3ae99" stroke-width="2" points="1137.5,-200.5 1137.5,-223.5 "/>
<text text-anchor="middle" x="1154" y="-208.3" font-family="Arial" font-size="14.00">11</text>
<polyline fill="none" stroke="#a3ae99" stroke-width="2" points="1170.5,-200.5 1170.5,-223.5 "/>
<text text-anchor="middle" x="1187" y="-208.3" font-family="Arial" font-size="14.00">60</text>
<polyline fill="none" stroke="#a3ae99" stroke-width="2" points="1104.5,-200.5 1203.5,-200.5 "/>
<text text-anchor="middle" x="1154" y="-185.3" font-family="Arial" font-size="14.00">11. 11</text>
<polyline fill="none" stroke="#a3ae99" stroke-width="2" points="1104.5,-177.5 1203.5,-177.5 "/>
<text text-anchor="middle" x="1121" y="-162.3" font-family="Arial" font-size="14.00"> </text>
<polyline fill="none" stroke="#a3ae99" stroke-width="2" points="1137.5,-154.5 1137.5,-177.5 "/>
<text text-anchor="middle" x="1154" y="-162.3" font-family="Arial" font-size="14.00"> </text>
<polyline fill="none" stroke="#a3ae99" stroke-width="2" points="1170.5,-154.5 1170.5,-177.5 "/>
<text text-anchor="middle" x="1187" y="-162.3" font-family="Arial" font-size="14.00"> </text>
</g>
<!-- v1&#45;&gt;v11 -->
<g id="edge12" class="edge"><title>v1:mI1&#45;&gt;v11:mI11</title>
<path fill="none" stroke="#82e88b" stroke-width="2" d="M76,-291C159.328,-291 52.5938,-165.434 112,-107 130.915,-88.3944 336.874,-64.6702 456,-57 745.87,-38.3361 808.629,-185.487 1093.76,-188.938"/>
<polygon fill="#82e88b" stroke="#82e88b" points="1093.98,-192.44 1104,-189 1094.02,-185.44 1093.98,-192.44"/>
</g>
<!-- v13 -->
<g id="node13" class="node"><title>v13</title>
<polygon fill="#f2f4f7" stroke="#b08baa" stroke-width="2" points="1376.5,-344.5 1376.5,-413.5 1475.5,-413.5 1475.5,-344.5 1376.5,-344.5"/>
<text text-anchor="middle" x="1393" y="-398.3" font-family="Arial" font-size="14.00">72</text>
<polyline fill="none" stroke="#b08baa" stroke-width="2" points="1409.5,-390.5 1409.5,-413.5 "/>
<text text-anchor="middle" x="1426" y="-398.3" font-family="Arial" font-size="14.00">13</text>
<polyline fill="none" stroke="#b08baa" stroke-width="2" points="1442.5,-390.5 1442.5,-413.5 "/>
<text text-anchor="middle" x="1459" y="-398.3" font-family="Arial" font-size="14.00">85</text>
<polyline fill="none" stroke="#b08baa" stroke-width="2" points="1376.5,-390.5 1475.5,-390.5 "/>
<text text-anchor="middle" x="1426" y="-375.3" font-family="Arial" font-size="14.00">13. 13</text>
<polyline fill="none" stroke="#b08baa" stroke-width="2" points="1376.5,-367.5 1475.5,-367.5 "/>
<text text-anchor="middle" x="1393" y="-352.3" font-family="Arial" font-size="14.00"> </text>
<polyline fill="none" stroke="#b08baa" stroke-width="2" points="1409.5,-344.5 1409.5,-367.5 "/>
<text text-anchor="middle" x="1426" y="-352.3" font-family="Arial" font-size="14.00"> </text>
<polyline fill="none" stroke="#b08baa" stroke-width="2" points="1442.5,-344.5 1442.5,-367.5 "/>
<text text-anchor="middle" x="1459" y="-352.3" font-family="Arial" font-size="14.00"> </text>
</g>
<!-- v1&#45;&gt;v13 -->
<g id="edge13" class="edge"><title>v1:mI1&#45;&gt;v13:mI13</title>
<path fill="none" stroke="#82e88b" stroke-width="2" d="M76,-291C139.816,-291 86.884,-371.334 112,-430 161.413,-545.419 135.449,-670 261,-670 261,-670 261,-670 887,-670 916.699,-670 1294.27,-413.171 1366.1,-382.071"/>
<polygon fill="#82e88b" stroke="#82e88b" points="1367.49,-385.305 1376,-379 1365.41,-378.619 1367.49,-385.305"/>
</g>
<!-- v3 -->
<g id="node3" class="node"><title>v3</title>
<polygon fill="#f2f4f7" stroke="#9dda79" stroke-width="2" points="224.5,-237.5 224.5,-306.5 299.5,-306.5 299.5,-237.5 224.5,-237.5"/>
<text text-anchor="middle" x="237" y="-291.3" font-family="Arial" font-size="14.00">3</text>
<polyline fill="none" stroke="#9dda79" stroke-width="2" points="249.5,-283.5 249.5,-306.5 "/>
<text text-anchor="middle" x="262" y="-291.3" font-family="Arial" font-size="14.00">3</text>
<polyline fill="none" stroke="#9dda79" stroke-width="2" points="274.5,-283.5 274.5,-306.5 "/>
<text text-anchor="middle" x="287" y="-291.3" font-family="Arial" font-size="14.00">6</text>
<polyline fill="none" stroke="#9dda79" stroke-width="2" points="224.5,-283.5 299.5,-283.5 "/>
<text text-anchor="middle" x="262" y="-268.3" font-family="Arial" font-size="14.00">3. 3</text>
<polyline fill="none" stroke="#9dda79" stroke-width="2" points="224.5,-260.5 299.5,-260.5 "/>
<text text-anchor="middle" x="237" y="-245.3" font-family="Arial" font-size="14.00"> </text>
<polyline fill="none" stroke="#9dda79" stroke-width="2" points="249.5,-237.5 249.5,-260.5 "/>
<text text-anchor="middle" x="262" y="-245.3" font-family="Arial" font-size="14.00"> </text>
<polyline fill="none" stroke="#9dda79" stroke-width="2" points="274.5,-237.5 274.5,-260.5 "/>
<text text-anchor="middle" x="287" y="-245.3" font-family="Arial" font-size="14.00"> </text>
</g>
<!-- v2&#45;&gt;v3 -->
<g id="edge17" class="edge"><title>v2:mI2&#45;&gt;v3:mI3</title>
<path fill="none" stroke="#5f9d9a" stroke-width="2" d="M188,-209C215.966,-209 198.249,-256.377 214.081,-268.961"/>
<polygon fill="#5f9d9a" stroke="#5f9d9a" points="213.413,-272.417 224,-272 215.464,-265.724 213.413,-272.417"/>
</g>
<!-- v4 -->
<g id="node4" class="node"><title>v4</title>
<polygon fill="#f2f4f7" stroke="#936ccb" stroke-width="2" points="336.5,-212.5 336.5,-281.5 419.5,-281.5 419.5,-212.5 336.5,-212.5"/>
<text text-anchor="middle" x="349" y="-266.3" font-family="Arial" font-size="14.00">6</text>
<polyline fill="none" stroke="#936ccb" stroke-width="2" points="361.5,-258.5 361.5,-281.5 "/>
<text text-anchor="middle" x="374" y="-266.3" font-family="Arial" font-size="14.00">4</text>
<polyline fill="none" stroke="#936ccb" stroke-width="2" points="386.5,-258.5 386.5,-281.5 "/>
<text text-anchor="middle" x="403" y="-266.3" font-family="Arial" font-size="14.00">10</text>
<polyline fill="none" stroke="#936ccb" stroke-width="2" points="336.5,-258.5 419.5,-258.5 "/>
<text text-anchor="middle" x="378" y="-243.3" font-family="Arial" font-size="14.00">4. 4</text>
<polyline fill="none" stroke="#936ccb" stroke-width="2" points="336.5,-235.5 419.5,-235.5 "/>
<text text-anchor="middle" x="350" y="-220.3" font-family="Arial" font-size="14.00"> </text>
<polyline fill="none" stroke="#936ccb" stroke-width="2" points="363.5,-212.5 363.5,-235.5 "/>
<text text-anchor="middle" x="377.5" y="-220.3" font-family="Arial" font-size="14.00"> </text>
<polyline fill="none" stroke="#936ccb" stroke-width="2" points="391.5,-212.5 391.5,-235.5 "/>
<text text-anchor="middle" x="405.5" y="-220.3" font-family="Arial" font-size="14.00"> </text>
</g>
<!-- v2&#45;&gt;v4 -->
<g id="edge18" class="edge"><title>v2:mI2&#45;&gt;v4:mI4</title>
<path fill="none" stroke="#5f9d9a" stroke-width="2" d="M188,-209C238.489,-209 252.184,-211.791 300,-228 313.252,-232.492 316.718,-241.401 325.978,-245.208"/>
<polygon fill="#5f9d9a" stroke="#5f9d9a" points="325.54,-248.685 336,-247 326.772,-241.794 325.54,-248.685"/>
</g>
<!-- v2&#45;&gt;v6 -->
<g id="edge24" class="edge"><title>v2:mI2&#45;&gt;v6:mI6</title>
<path fill="none" stroke="#5f9d9a" stroke-width="2" d="M188,-209C216.109,-209 200.817,-172.896 224,-157 226.408,-155.349 402.014,-113.155 446.089,-103.125"/>
<polygon fill="#5f9d9a" stroke="#5f9d9a" points="446.956,-106.519 456,-101 445.488,-99.6742 446.956,-106.519"/>
</g>
<!-- v9 -->
<g id="node9" class="node"><title>v9</title>
<polygon fill="#f2f4f7" stroke="#a8d753" stroke-width="2" points="840.5,-268.5 840.5,-337.5 931.5,-337.5 931.5,-268.5 840.5,-268.5"/>
<text text-anchor="middle" x="857" y="-322.3" font-family="Arial" font-size="14.00">30</text>
<polyline fill="none" stroke="#a8d753" stroke-width="2" points="873.5,-314.5 873.5,-337.5 "/>
<text text-anchor="middle" x="886" y="-322.3" font-family="Arial" font-size="14.00">9</text>
<polyline fill="none" stroke="#a8d753" stroke-width="2" points="898.5,-314.5 898.5,-337.5 "/>
<text text-anchor="middle" x="915" y="-322.3" font-family="Arial" font-size="14.00">39</text>
<polyline fill="none" stroke="#a8d753" stroke-width="2" points="840.5,-314.5 931.5,-314.5 "/>
<text text-anchor="middle" x="886" y="-299.3" font-family="Arial" font-size="14.00">9. 9</text>
<polyline fill="none" stroke="#a8d753" stroke-width="2" points="840.5,-291.5 931.5,-291.5 "/>
<text text-anchor="middle" x="855.5" y="-276.3" font-family="Arial" font-size="14.00"> </text>
<polyline fill="none" stroke="#a8d753" stroke-width="2" points="870.5,-268.5 870.5,-291.5 "/>
<text text-anchor="middle" x="885.5" y="-276.3" font-family="Arial" font-size="14.00"> </text>
<polyline fill="none" stroke="#a8d753" stroke-width="2" points="900.5,-268.5 900.5,-291.5 "/>
<text text-anchor="middle" x="916" y="-276.3" font-family="Arial" font-size="14.00"> </text>
</g>
<!-- v2&#45;&gt;v9 -->
<g id="edge34" class="edge"><title>v2:mI2&#45;&gt;v9:mI9</title>
<path fill="none" stroke="#5f9d9a" stroke-width="2" d="M188,-209C204.055,-209 207.969,-206.882 224,-206 310.99,-201.214 333.107,-196.697 420,-203 592.02,-215.477 653.894,-174.061 804,-259 822.383,-269.402 817.532,-293.16 830.205,-300.676"/>
<polygon fill="#5f9d9a" stroke="#5f9d9a" points="829.462,-304.096 840,-303 831.078,-297.286 829.462,-304.096"/>
</g>
<!-- v10 -->
<g id="node10" class="node"><title>v10</title>
<polygon fill="#f2f4f7" stroke="#8c70b5" stroke-width="2" points="968.5,-407.5 968.5,-476.5 1067.5,-476.5 1067.5,-407.5 968.5,-407.5"/>
<text text-anchor="middle" x="985" y="-461.3" font-family="Arial" font-size="14.00">39</text>
<polyline fill="none" stroke="#8c70b5" stroke-width="2" points="1001.5,-453.5 1001.5,-476.5 "/>
<text text-anchor="middle" x="1018" y="-461.3" font-family="Arial" font-size="14.00">10</text>
<polyline fill="none" stroke="#8c70b5" stroke-width="2" points="1034.5,-453.5 1034.5,-476.5 "/>
<text text-anchor="middle" x="1051" y="-461.3" font-family="Arial" font-size="14.00">49</text>
<polyline fill="none" stroke="#8c70b5" stroke-width="2" points="968.5,-453.5 1067.5,-453.5 "/>
<text text-anchor="middle" x="1018" y="-438.3" font-family="Arial" font-size="14.00">10. 10</text>
<polyline fill="none" stroke="#8c70b5" stroke-width="2" points="968.5,-430.5 1067.5,-430.5 "/>
<text text-anchor="middle" x="985" y="-415.3" font-family="Arial" font-size="14.00"> </text>
<polyline fill="none" stroke="#8c70b5" stroke-width="2" points="1001.5,-407.5 1001.5,-430.5 "/>
<text text-anchor="middle" x="1018" y="-415.3" font-family="Arial" font-size="14.00"> </text>
<polyline fill="none" stroke="#8c70b5" stroke-width="2" points="1034.5,-407.5 1034.5,-430.5 "/>
<text text-anchor="middle" x="1051" y="-415.3" font-family="Arial" font-size="14.00"> </text>
</g>
<!-- v2&#45;&gt;v10 -->
<g id="edge7" class="edge"><title>v2:mI2&#45;&gt;v10:mI10</title>
<path fill="none" stroke="#5f9d9a" stroke-width="2" d="M188,-209C238.175,-209 205.859,-269.219 224,-316 268.606,-431.031 246.357,-485.23 336,-570 392.92,-623.826 422.66,-632 501,-632 501,-632 501,-632 631,-632 780.271,-632 813.616,-573.924 932,-483 947.926,-470.768 945.533,-450.678 958.012,-444.133"/>
<polygon fill="#5f9d9a" stroke="#5f9d9a" points="958.952,-447.511 968,-442 957.49,-440.666 958.952,-447.511"/>
</g>
<!-- v12 -->
<g id="node12" class="node"><title>v12</title>
<polygon fill="#f2f4f7" stroke="#a18d95" stroke-width="2" points="1240.5,-122.5 1240.5,-191.5 1339.5,-191.5 1339.5,-122.5 1240.5,-122.5"/>
<text text-anchor="middle" x="1257" y="-176.3" font-family="Arial" font-size="14.00">60</text>
<polyline fill="none" stroke="#a18d95" stroke-width="2" points="1273.5,-168.5 1273.5,-191.5 "/>
<text text-anchor="middle" x="1290" y="-176.3" font-family="Arial" font-size="14.00">12</text>
<polyline fill="none" stroke="#a18d95" stroke-width="2" points="1306.5,-168.5 1306.5,-191.5 "/>
<text text-anchor="middle" x="1323" y="-176.3" font-family="Arial" font-size="14.00">72</text>
<polyline fill="none" stroke="#a18d95" stroke-width="2" points="1240.5,-168.5 1339.5,-168.5 "/>
<text text-anchor="middle" x="1290" y="-153.3" font-family="Arial" font-size="14.00">12. 12</text>
<polyline fill="none" stroke="#a18d95" stroke-width="2" points="1240.5,-145.5 1339.5,-145.5 "/>
<text text-anchor="middle" x="1257" y="-130.3" font-family="Arial" font-size="14.00"> </text>
<polyline fill="none" stroke="#a18d95" stroke-width="2" points="1273.5,-122.5 1273.5,-145.5 "/>
<text text-anchor="middle" x="1290" y="-130.3" font-family="Arial" font-size="14.00"> </text>
<polyline fill="none" stroke="#a18d95" stroke-width="2" points="1306.5,-122.5 1306.5,-145.5 "/>
<text text-anchor="middle" x="1323" y="-130.3" font-family="Arial" font-size="14.00"> </text>
</g>
<!-- v2&#45;&gt;v12 -->
<g id="edge11" class="edge"><title>v2:mI2&#45;&gt;v12:mI12</title>
<path fill="none" stroke="#5f9d9a" stroke-width="2" d="M188,-209C224.974,-209 196.248,-158.432 224,-134 366.306,-8.71707 439.403,-1.15463e-014 629,-0 629,-0 629,-0 1019,-0 1108.58,-5.32907e-015 1139.74,-17.5881 1204,-80 1228.24,-103.544 1207.69,-146.581 1230.13,-155.397"/>
<polygon fill="#5f9d9a" stroke="#5f9d9a" points="1229.57,-158.852 1240,-157 1230.69,-151.942 1229.57,-158.852"/>
</g>
<!-- v3&#45;&gt;v4 -->
<g id="edge19" class="edge"><title>v3:mI3&#45;&gt;v4:mI4</title>
<path fill="none" stroke="#9dda79" stroke-width="2" d="M300,-272C315.371,-272 316.77,-256.435 326.247,-249.868"/>
<polygon fill="#9dda79" stroke="#9dda79" points="327.394,-253.179 336,-247 325.419,-246.463 327.394,-253.179"/>
</g>
<!-- v3&#45;&gt;v8 -->
<g id="edge27" class="edge"><title>v3:mI3&#45;&gt;v8:mI8</title>
<path fill="none" stroke="#9dda79" stroke-width="2" d="M300,-272C318.092,-272 318.54,-286.262 336,-291 442.48,-319.894 473.707,-299.124 584,-302 637.317,-303.39 653.163,-303.053 701.812,-303.005"/>
<polygon fill="#9dda79" stroke="#9dda79" points="702.002,-306.505 712,-303 701.998,-299.505 702.002,-306.505"/>
</g>
<!-- v14 -->
<g id="node14" class="node"><title>v14</title>
<polygon fill="#f2f4f7" stroke="#42cedd" stroke-width="2" points="1512.5,-450.5 1512.5,-519.5 1611.5,-519.5 1611.5,-450.5 1512.5,-450.5"/>
<text text-anchor="middle" x="1529" y="-504.3" font-family="Arial" font-size="14.00">85</text>
<polyline fill="none" stroke="#42cedd" stroke-width="2" points="1545.5,-496.5 1545.5,-519.5 "/>
<text text-anchor="middle" x="1562" y="-504.3" font-family="Arial" font-size="14.00">14</text>
<polyline fill="none" stroke="#42cedd" stroke-width="2" points="1578.5,-496.5 1578.5,-519.5 "/>
<text text-anchor="middle" x="1595" y="-504.3" font-family="Arial" font-size="14.00">99</text>
<polyline fill="none" stroke="#42cedd" stroke-width="2" points="1512.5,-496.5 1611.5,-496.5 "/>
<text text-anchor="middle" x="1562" y="-481.3" font-family="Arial" font-size="14.00">14. 14</text>
<polyline fill="none" stroke="#42cedd" stroke-width="2" points="1512.5,-473.5 1611.5,-473.5 "/>
<text text-anchor="middle" x="1529" y="-458.3" font-family="Arial" font-size="14.00"> </text>
<polyline fill="none" stroke="#42cedd" stroke-width="2" points="1545.5,-450.5 1545.5,-473.5 "/>
<text text-anchor="middle" x="1562" y="-458.3" font-family="Arial" font-size="14.00"> </text>
<polyline fill="none" stroke="#42cedd" stroke-width="2" points="1578.5,-450.5 1578.5,-473.5 "/>
<text text-anchor="middle" x="1595" y="-458.3" font-family="Arial" font-size="14.00"> </text>
</g>
<!-- v3&#45;&gt;v14 -->
<g id="edge14" class="edge"><title>v3:mI3&#45;&gt;v14:mI14</title>
<path fill="none" stroke="#9dda79" stroke-width="2" d="M300,-272C334.072,-272 427.779,-516.909 456,-536 619.249,-646.436 1146.18,-643.79 1340,-608 1403.64,-596.249 1427.92,-599.317 1476,-556 1499.2,-535.093 1481.92,-495.765 1501.89,-486.835"/>
<polygon fill="#9dda79" stroke="#9dda79" points="1502.79,-490.231 1512,-485 1501.54,-483.343 1502.79,-490.231"/>
</g>
<!-- v4&#45;&gt;v5 -->
<g id="edge20" class="edge"><title>v4:mI4&#45;&gt;v5:mI5</title>
<path fill="none" stroke="#936ccb" stroke-width="2" d="M420,-247C471.16,-247 410.747,-458.758 446.217,-488.537"/>
<polygon fill="#936ccb" stroke="#936ccb" points="445.405,-491.962 456,-492 447.741,-485.363 445.405,-491.962"/>
</g>
<!-- v4&#45;&gt;v6 -->
<g id="edge22" class="edge"><title>v4:mI4&#45;&gt;v6:mI6</title>
<path fill="none" stroke="#936ccb" stroke-width="2" d="M420,-247C482.916,-247 400.048,-117.608 445.88,-102.445"/>
<polygon fill="#936ccb" stroke="#936ccb" points="446.595,-105.879 456,-101 445.606,-98.9488 446.595,-105.879"/>
</g>
<!-- v7 -->
<g id="node7" class="node"><title>v7</title>
<polygon fill="#f2f4f7" stroke="#379d89" stroke-width="2" points="584.5,-420.5 584.5,-489.5 675.5,-489.5 675.5,-420.5 584.5,-420.5"/>
<text text-anchor="middle" x="601" y="-474.3" font-family="Arial" font-size="14.00">15</text>
<polyline fill="none" stroke="#379d89" stroke-width="2" points="617.5,-466.5 617.5,-489.5 "/>
<text text-anchor="middle" x="630" y="-474.3" font-family="Arial" font-size="14.00">7</text>
<polyline fill="none" stroke="#379d89" stroke-width="2" points="642.5,-466.5 642.5,-489.5 "/>
<text text-anchor="middle" x="659" y="-474.3" font-family="Arial" font-size="14.00">22</text>
<polyline fill="none" stroke="#379d89" stroke-width="2" points="584.5,-466.5 675.5,-466.5 "/>
<text text-anchor="middle" x="630" y="-451.3" font-family="Arial" font-size="14.00">7. 7</text>
<polyline fill="none" stroke="#379d89" stroke-width="2" points="584.5,-443.5 675.5,-443.5 "/>
<text text-anchor="middle" x="599.5" y="-428.3" font-family="Arial" font-size="14.00"> </text>
<polyline fill="none" stroke="#379d89" stroke-width="2" points="614.5,-420.5 614.5,-443.5 "/>
<text text-anchor="middle" x="629.5" y="-428.3" font-family="Arial" font-size="14.00"> </text>
<polyline fill="none" stroke="#379d89" stroke-width="2" points="644.5,-420.5 644.5,-443.5 "/>
<text text-anchor="middle" x="660" y="-428.3" font-family="Arial" font-size="14.00"> </text>
</g>
<!-- v4&#45;&gt;v7 -->
<g id="edge25" class="edge"><title>v4:mI4&#45;&gt;v7:mI7</title>
<path fill="none" stroke="#936ccb" stroke-width="2" d="M420,-247C421.624,-247 546.762,-409.106 577.334,-447.1"/>
<polygon fill="#936ccb" stroke="#936ccb" points="574.876,-449.614 584,-455 580.226,-445.1 574.876,-449.614"/>
</g>
<!-- v4&#45;&gt;v8 -->
<g id="edge28" class="edge"><title>v4:mI4&#45;&gt;v8:mI8</title>
<path fill="none" stroke="#936ccb" stroke-width="2" d="M420,-247C436.3,-247 439.995,-250.912 456,-254 509.763,-264.372 638.886,-298.922 701.777,-302.669"/>
<polygon fill="#936ccb" stroke="#936ccb" points="701.892,-306.175 712,-303 702.118,-299.179 701.892,-306.175"/>
</g>
<!-- v4&#45;&gt;v12 -->
<g id="edge6" class="edge"><title>v4:mI4&#45;&gt;v12:mI12</title>
<path fill="none" stroke="#936ccb" stroke-width="2" d="M420,-247C438.523,-247 438.523,-232.137 456,-226 541.191,-196.083 1086.54,-145.955 1104,-145 1148.38,-142.573 1160.13,-137.881 1204,-145 1216.62,-147.047 1221.1,-152.883 1229.87,-155.59"/>
<polygon fill="#936ccb" stroke="#936ccb" points="1229.61,-159.087 1240,-157 1230.58,-152.154 1229.61,-159.087"/>
</g>
<!-- v4&#45;&gt;v13 -->
<g id="edge15" class="edge"><title>v4:mI4&#45;&gt;v13:mI13</title>
<path fill="none" stroke="#936ccb" stroke-width="2" d="M420,-247C647.618,-247 706.728,-226.404 932,-259 979.91,-265.932 1289.6,-367.409 1365.57,-378.092"/>
<polygon fill="#936ccb" stroke="#936ccb" points="1365.73,-381.619 1376,-379 1366.34,-374.646 1365.73,-381.619"/>
</g>
<!-- v5&#45;&gt;v7 -->
<g id="edge26" class="edge"><title>v5:mI5&#45;&gt;v7:mI7</title>
<path fill="none" stroke="#e4cfb3" stroke-width="2" d="M548,-492C566.821,-492 563.549,-467.102 574.431,-458.155"/>
<polygon fill="#e4cfb3" stroke="#e4cfb3" points="575.599,-461.455 584,-455 573.407,-454.807 575.599,-461.455"/>
</g>
<!-- v5&#45;&gt;v9 -->
<g id="edge32" class="edge"><title>v5:mI5&#45;&gt;v9:mI9</title>
<path fill="none" stroke="#e4cfb3" stroke-width="2" d="M548,-492C587.395,-492 554.326,-436.913 584,-411 660.702,-344.02 719.051,-403.153 804,-347 821.62,-335.353 817.282,-312.431 830.144,-305.224"/>
<polygon fill="#e4cfb3" stroke="#e4cfb3" points="831.016,-308.615 840,-303 829.475,-301.787 831.016,-308.615"/>
</g>
<!-- v5&#45;&gt;v10 -->
<g id="edge8" class="edge"><title>v5:mI5&#45;&gt;v10:mI10</title>
<path fill="none" stroke="#e4cfb3" stroke-width="2" d="M548,-492C564.3,-492 567.775,-497.437 584,-499 624.701,-502.92 635.24,-502.243 676,-499 790.865,-489.86 821.535,-490.786 932,-458 944.851,-454.186 948.863,-446.833 957.896,-443.596"/>
<polygon fill="#e4cfb3" stroke="#e4cfb3" points="958.669,-447.018 968,-442 957.576,-440.103 958.669,-447.018"/>
</g>
<!-- v5&#45;&gt;v14 -->
<g id="edge5" class="edge"><title>v5:mI5&#45;&gt;v14:mI14</title>
<path fill="none" stroke="#e4cfb3" stroke-width="2" d="M548,-492C566.751,-492 566.488,-507.296 584,-514 675.383,-548.985 919.149,-594 1017,-594 1017,-594 1017,-594 1291,-594 1381.3,-594 1397.48,-554.602 1476,-510 1489.36,-502.408 1491.92,-491.232 1501.98,-486.854"/>
<polygon fill="#e4cfb3" stroke="#e4cfb3" points="1502.8,-490.261 1512,-485 1501.53,-483.378 1502.8,-490.261"/>
</g>
<!-- v6&#45;&gt;v8 -->
<g id="edge29" class="edge"><title>v6:mI6&#45;&gt;v8:mI8</title>
<path fill="none" stroke="#656acb" stroke-width="2" d="M548,-101C560.931,-101 670.391,-262.638 703.684,-296.733"/>
<polygon fill="#656acb" stroke="#656acb" points="701.907,-299.777 712,-303 706.12,-294.187 701.907,-299.777"/>
</g>
<!-- v6&#45;&gt;v12 -->
<g id="edge9" class="edge"><title>v6:mI6&#45;&gt;v12:mI12</title>
<path fill="none" stroke="#656acb" stroke-width="2" d="M548,-101C641.068,-101 663.932,-88 757,-88 757,-88 757,-88 1019,-88 1101.91,-88 1131.74,-71.3415 1204,-112 1222.66,-122.499 1217.38,-146.891 1230.11,-154.612"/>
<polygon fill="#656acb" stroke="#656acb" points="1229.46,-158.055 1240,-157 1231.1,-151.25 1229.46,-158.055"/>
</g>
<!-- v7&#45;&gt;v8 -->
<g id="edge30" class="edge"><title>v7:mI7&#45;&gt;v8:mI8</title>
<path fill="none" stroke="#379d89" stroke-width="2" d="M676,-455C741.492,-455 653.674,-319.731 701.799,-304.408"/>
<polygon fill="#379d89" stroke="#379d89" points="702.572,-307.834 712,-303 701.615,-300.9 702.572,-307.834"/>
</g>
<!-- v7&#45;&gt;v10 -->
<g id="edge1" class="edge"><title>v7:mI7&#45;&gt;v10:mI10</title>
<path fill="none" stroke="#379d89" stroke-width="2" d="M676,-455C802.481,-455 836.328,-442.677 957.924,-442.027"/>
<polygon fill="#379d89" stroke="#379d89" points="958.009,-445.527 968,-442 957.991,-438.527 958.009,-445.527"/>
</g>
<!-- v7&#45;&gt;v13 -->
<g id="edge10" class="edge"><title>v7:mI7&#45;&gt;v13:mI13</title>
<path fill="none" stroke="#379d89" stroke-width="2" d="M676,-455C692.492,-455 695.888,-449.521 712,-446 825.091,-421.284 853.017,-411.391 968,-398 1144.88,-377.4 1192.66,-378.932 1365.77,-378.998"/>
<polygon fill="#379d89" stroke="#379d89" points="1366,-382.498 1376,-379 1366,-375.498 1366,-382.498"/>
</g>
<!-- v7&#45;&gt;v14 -->
<g id="edge4" class="edge"><title>v7:mI7&#45;&gt;v14:mI14</title>
<path fill="none" stroke="#379d89" stroke-width="2" d="M676,-455C692.73,-455 695.578,-462.801 712,-466 905.135,-503.62 956.235,-505 1153,-505 1153,-505 1153,-505 1291,-505 1373.46,-505 1394.14,-500.899 1476,-491 1488.08,-489.54 1493.16,-486.895 1501.8,-485.664"/>
<polygon fill="#379d89" stroke="#379d89" points="1502.25,-489.142 1512,-485 1501.79,-482.157 1502.25,-489.142"/>
</g>
<!-- v8&#45;&gt;v9 -->
<g id="edge33" class="edge"><title>v8:mI8&#45;&gt;v9:mI9</title>
<path fill="none" stroke="#3b4ac1" stroke-width="2" d="M804,-303C816,-303 821.25,-303 829.875,-303"/>
<polygon fill="#3b4ac1" stroke="#3b4ac1" points="830,-306.5 840,-303 830,-299.5 830,-306.5"/>
</g>
<!-- v9&#45;&gt;v10 -->
<g id="edge2" class="edge"><title>v9:mI9&#45;&gt;v10:mI10</title>
<path fill="none" stroke="#a8d753" stroke-width="2" d="M932,-303C991.952,-303 914.71,-425.678 958.049,-440.533"/>
<polygon fill="#a8d753" stroke="#a8d753" points="957.596,-444.004 968,-442 958.617,-437.079 957.596,-444.004"/>
</g>
<!-- v9&#45;&gt;v11 -->
<g id="edge3" class="edge"><title>v9:mI9&#45;&gt;v11:mI11</title>
<path fill="none" stroke="#a8d753" stroke-width="2" d="M932,-303C1020.13,-303 1013.02,-197.732 1093.71,-189.508"/>
<polygon fill="#a8d753" stroke="#a8d753" points="1094.18,-192.989 1104,-189 1093.84,-185.998 1094.18,-192.989"/>
</g>
<!-- v10&#45;&gt;v11 -->
<g id="edge35" class="edge"><title>v10:mI10&#45;&gt;v11:mI11</title>
<path fill="none" stroke="#8c70b5" stroke-width="2" d="M1068,-442C1121.02,-442 1056.92,-221.486 1094.39,-192.199"/>
<polygon fill="#8c70b5" stroke="#8c70b5" points="1095.62,-195.478 1104,-189 1093.41,-188.836 1095.62,-195.478"/>
</g>
<!-- v10&#45;&gt;v14 -->
<g id="edge40" class="edge"><title>v10:mI10&#45;&gt;v14:mI14</title>
<path fill="none" stroke="#8c70b5" stroke-width="2" d="M1068,-442C1262.87,-442 1312.08,-483.543 1501.97,-484.963"/>
<polygon fill="#8c70b5" stroke="#8c70b5" points="1501.99,-488.463 1512,-485 1502.01,-481.463 1501.99,-488.463"/>
</g>
<!-- v11&#45;&gt;v12 -->
<g id="edge36" class="edge"><title>v11:mI11&#45;&gt;v12:mI12</title>
<path fill="none" stroke="#a3ae99" stroke-width="2" d="M1204,-189C1221.23,-189 1220.18,-168.279 1230.27,-160.185"/>
<polygon fill="#a3ae99" stroke="#a3ae99" points="1231.58,-163.437 1240,-157 1229.41,-156.784 1231.58,-163.437"/>
</g>
<!-- v12&#45;&gt;v13 -->
<g id="edge37" class="edge"><title>v12:mI12&#45;&gt;v13:mI13</title>
<path fill="none" stroke="#a18d95" stroke-width="2" d="M1340,-157C1436.25,-157 1287.85,-362.829 1365.94,-378.106"/>
<polygon fill="#a18d95" stroke="#a18d95" points="1365.73,-381.601 1376,-379 1366.35,-374.628 1365.73,-381.601"/>
</g>
<!-- v12&#45;&gt;v14 -->
<g id="edge39" class="edge"><title>v12:mI12&#45;&gt;v14:mI14</title>
<path fill="none" stroke="#a18d95" stroke-width="2" d="M1340,-157C1439.56,-157 1433.23,-245.093 1476,-335 1503.84,-393.527 1449.95,-475.444 1501.89,-484.228"/>
<polygon fill="#a18d95" stroke="#a18d95" points="1501.76,-487.729 1512,-485 1502.3,-480.749 1501.76,-487.729"/>
</g>
<!-- v13&#45;&gt;v14 -->
<g id="edge38" class="edge"><title>v13:mI13&#45;&gt;v14:mI14</title>
<path fill="none" stroke="#b08baa" stroke-width="2" d="M1476,-379C1521.67,-379 1471.9,-468.323 1501.92,-482.977"/>
<polygon fill="#b08baa" stroke="#b08baa" points="1501.51,-486.464 1512,-485 1502.88,-479.601 1501.51,-486.464"/>
</g>
</g>
</svg>
