<?xml version="1.0" encoding="UTF-8" standalone="no"?>
<!DOCTYPE svg PUBLIC "-//W3C//DTD SVG 1.1//EN"
 "http://www.w3.org/Graphics/SVG/1.1/DTD/svg11.dtd">
<!-- Generated by graphviz version 2.34.0 (20130907.0111)
 -->
<!-- Title: NetworkGraph01 Pages: 1 -->
<svg width="1064pt" height="220pt"
 viewBox="0.00 0.00 1064.00 219.61" xmlns="http://www.w3.org/2000/svg" xmlns:xlink="http://www.w3.org/1999/xlink">
<g id="graph0" class="graph" transform="scale(1 1) rotate(0) translate(4 215.608)">
<title>NetworkGraph01</title>
<polygon fill="white" stroke="white" points="-4,4 -4,-215.608 1060,-215.608 1060,4 -4,4"/>
<!-- v1 -->
<g id="node1" class="node"><title>v1</title>
<polygon fill="#f2f4f7" stroke="#d94fa3" stroke-width="2" points="0,-98.1075 0,-167.108 74,-167.108 74,-98.1075 0,-98.1075"/>
<text text-anchor="middle" x="12" y="-151.908" font-family="Arial" font-size="14.00"> </text>
<polyline fill="none" stroke="#d94fa3" stroke-width="2" points="24,-144.108 24,-167.108 "/>
<text text-anchor="middle" x="36.5" y="-151.908" font-family="Arial" font-size="14.00"> </text>
<polyline fill="none" stroke="#d94fa3" stroke-width="2" points="49,-144.108 49,-167.108 "/>
<text text-anchor="middle" x="61.5" y="-151.908" font-family="Arial" font-size="14.00"> </text>
<polyline fill="none" stroke="#d94fa3" stroke-width="2" points="0,-144.108 74,-144.108 "/>
<text text-anchor="middle" x="37" y="-128.908" font-family="Arial" font-size="14.00">1. 23423</text>
<polyline fill="none" stroke="#d94fa3" stroke-width="2" points="0,-121.108 74,-121.108 "/>
<text text-anchor="middle" x="12" y="-105.908" font-family="Arial" font-size="14.00"> </text>
<polyline fill="none" stroke="#d94fa3" stroke-width="2" points="24,-98.1075 24,-121.108 "/>
<text text-anchor="middle" x="36.5" y="-105.908" font-family="Arial" font-size="14.00"> </text>
<polyline fill="none" stroke="#d94fa3" stroke-width="2" points="49,-98.1075 49,-121.108 "/>
<text text-anchor="middle" x="61.5" y="-105.908" font-family="Arial" font-size="14.00"> </text>
</g>
<!-- v2 -->
<g id="node2" class="node"><title>v2</title>
<polygon fill="#f2f4f7" stroke="#57e79c" stroke-width="2" points="113,-142.108 113,-211.108 173,-211.108 173,-142.108 113,-142.108"/>
<text text-anchor="middle" x="123" y="-195.908" font-family="Arial" font-size="14.00"> </text>
<polyline fill="none" stroke="#57e79c" stroke-width="2" points="133,-188.108 133,-211.108 "/>
<text text-anchor="middle" x="143" y="-195.908" font-family="Arial" font-size="14.00"> </text>
<polyline fill="none" stroke="#57e79c" stroke-width="2" points="153,-188.108 153,-211.108 "/>
<text text-anchor="middle" x="163" y="-195.908" font-family="Arial" font-size="14.00"> </text>
<polyline fill="none" stroke="#57e79c" stroke-width="2" points="113,-188.108 173,-188.108 "/>
<text text-anchor="middle" x="143" y="-172.908" font-family="Arial" font-size="14.00">2. 4</text>
<polyline fill="none" stroke="#57e79c" stroke-width="2" points="113,-165.108 173,-165.108 "/>
<text text-anchor="middle" x="123" y="-149.908" font-family="Arial" font-size="14.00"> </text>
<polyline fill="none" stroke="#57e79c" stroke-width="2" points="133,-142.108 133,-165.108 "/>
<text text-anchor="middle" x="143" y="-149.908" font-family="Arial" font-size="14.00"> </text>
<polyline fill="none" stroke="#57e79c" stroke-width="2" points="153,-142.108 153,-165.108 "/>
<text text-anchor="middle" x="163" y="-149.908" font-family="Arial" font-size="14.00"> </text>
</g>
<!-- v1&#45;&gt;v2 -->
<g id="edge5" class="edge"><title>v1:mI1&#45;&gt;v2:mI2</title>
<path fill="none" stroke="#d94fa3" stroke-width="2" d="M74,-132.608C95.5998,-132.608 89.5854,-163.354 102.124,-173.443"/>
<polygon fill="#d94fa3" stroke="#d94fa3" points="101.409,-176.889 112,-176.608 103.545,-170.223 101.409,-176.889"/>
</g>
<!-- v4 -->
<g id="node4" class="node"><title>v4</title>
<polygon fill="#f2f4f7" stroke="#d45383" stroke-width="2" points="110.5,-54.1075 110.5,-123.108 175.5,-123.108 175.5,-54.1075 110.5,-54.1075"/>
<text text-anchor="middle" x="121" y="-107.908" font-family="Arial" font-size="14.00"> </text>
<polyline fill="none" stroke="#d45383" stroke-width="2" points="131.5,-100.108 131.5,-123.108 "/>
<text text-anchor="middle" x="142.5" y="-107.908" font-family="Arial" font-size="14.00"> </text>
<polyline fill="none" stroke="#d45383" stroke-width="2" points="153.5,-100.108 153.5,-123.108 "/>
<text text-anchor="middle" x="164.5" y="-107.908" font-family="Arial" font-size="14.00"> </text>
<polyline fill="none" stroke="#d45383" stroke-width="2" points="110.5,-100.108 175.5,-100.108 "/>
<text text-anchor="middle" x="143" y="-84.9075" font-family="Arial" font-size="14.00">4. 4324</text>
<polyline fill="none" stroke="#d45383" stroke-width="2" points="110.5,-77.1075 175.5,-77.1075 "/>
<text text-anchor="middle" x="121" y="-61.9075" font-family="Arial" font-size="14.00"> </text>
<polyline fill="none" stroke="#d45383" stroke-width="2" points="131.5,-54.1075 131.5,-77.1075 "/>
<text text-anchor="middle" x="142.5" y="-61.9075" font-family="Arial" font-size="14.00"> </text>
<polyline fill="none" stroke="#d45383" stroke-width="2" points="153.5,-54.1075 153.5,-77.1075 "/>
<text text-anchor="middle" x="164.5" y="-61.9075" font-family="Arial" font-size="14.00"> </text>
</g>
<!-- v1&#45;&gt;v4 -->
<g id="edge7" class="edge"><title>v1:mI1&#45;&gt;v4:mI4</title>
<path fill="none" stroke="#d94fa3" stroke-width="2" d="M74,-132.608C95.1216,-132.608 88.4307,-101.861 100.426,-91.7719"/>
<polygon fill="#d94fa3" stroke="#d94fa3" points="101.604,-95.0691 110,-88.6075 99.4068,-88.4227 101.604,-95.0691"/>
</g>
<!-- v3 -->
<g id="node3" class="node"><title>v3</title>
<polygon fill="#f2f4f7" stroke="#a875e1" stroke-width="2" points="212,-142.108 212,-211.108 294,-211.108 294,-142.108 212,-142.108"/>
<text text-anchor="middle" x="225.5" y="-195.908" font-family="Arial" font-size="14.00"> </text>
<polyline fill="none" stroke="#a875e1" stroke-width="2" points="239,-188.108 239,-211.108 "/>
<text text-anchor="middle" x="252.5" y="-195.908" font-family="Arial" font-size="14.00"> </text>
<polyline fill="none" stroke="#a875e1" stroke-width="2" points="266,-188.108 266,-211.108 "/>
<text text-anchor="middle" x="280" y="-195.908" font-family="Arial" font-size="14.00"> </text>
<polyline fill="none" stroke="#a875e1" stroke-width="2" points="212,-188.108 294,-188.108 "/>
<text text-anchor="middle" x="253" y="-172.908" font-family="Arial" font-size="14.00">3. 324324</text>
<polyline fill="none" stroke="#a875e1" stroke-width="2" points="212,-165.108 294,-165.108 "/>
<text text-anchor="middle" x="225.5" y="-149.908" font-family="Arial" font-size="14.00"> </text>
<polyline fill="none" stroke="#a875e1" stroke-width="2" points="239,-142.108 239,-165.108 "/>
<text text-anchor="middle" x="252.5" y="-149.908" font-family="Arial" font-size="14.00"> </text>
<polyline fill="none" stroke="#a875e1" stroke-width="2" points="266,-142.108 266,-165.108 "/>
<text text-anchor="middle" x="280" y="-149.908" font-family="Arial" font-size="14.00"> </text>
</g>
<!-- v2&#45;&gt;v3 -->
<g id="edge6" class="edge"><title>v2:mI2&#45;&gt;v3:mI3</title>
<path fill="none" stroke="#57e79c" stroke-width="2" d="M174,-176.608C186.931,-176.608 192.436,-176.608 201.886,-176.608"/>
<polygon fill="#57e79c" stroke="#57e79c" points="202,-180.108 212,-176.608 202,-173.108 202,-180.108"/>
</g>
<!-- v6 -->
<g id="node6" class="node"><title>v6</title>
<polygon fill="#f2f4f7" stroke="#eee3bd" stroke-width="2" points="330.5,-104.108 330.5,-173.108 395.5,-173.108 395.5,-104.108 330.5,-104.108"/>
<text text-anchor="middle" x="341" y="-157.908" font-family="Arial" font-size="14.00"> </text>
<polyline fill="none" stroke="#eee3bd" stroke-width="2" points="351.5,-150.108 351.5,-173.108 "/>
<text text-anchor="middle" x="362.5" y="-157.908" font-family="Arial" font-size="14.00"> </text>
<polyline fill="none" stroke="#eee3bd" stroke-width="2" points="373.5,-150.108 373.5,-173.108 "/>
<text text-anchor="middle" x="384.5" y="-157.908" font-family="Arial" font-size="14.00"> </text>
<polyline fill="none" stroke="#eee3bd" stroke-width="2" points="330.5,-150.108 395.5,-150.108 "/>
<text text-anchor="middle" x="363" y="-134.908" font-family="Arial" font-size="14.00">6. 4324</text>
<polyline fill="none" stroke="#eee3bd" stroke-width="2" points="330.5,-127.108 395.5,-127.108 "/>
<text text-anchor="middle" x="341" y="-111.908" font-family="Arial" font-size="14.00"> </text>
<polyline fill="none" stroke="#eee3bd" stroke-width="2" points="351.5,-104.108 351.5,-127.108 "/>
<text text-anchor="middle" x="362.5" y="-111.908" font-family="Arial" font-size="14.00"> </text>
<polyline fill="none" stroke="#eee3bd" stroke-width="2" points="373.5,-104.108 373.5,-127.108 "/>
<text text-anchor="middle" x="384.5" y="-111.908" font-family="Arial" font-size="14.00"> </text>
</g>
<!-- v3&#45;&gt;v6 -->
<g id="edge9" class="edge"><title>v3:mI3&#45;&gt;v6:mI6</title>
<path fill="none" stroke="#a875e1" stroke-width="2" d="M294,-176.608C313.084,-176.608 309.428,-151.037 320.34,-141.847"/>
<polygon fill="#a875e1" stroke="#a875e1" points="321.632,-145.106 330,-138.608 319.406,-138.469 321.632,-145.106"/>
</g>
<!-- v5 -->
<g id="node5" class="node"><title>v5</title>
<polygon fill="#f2f4f7" stroke="#449b5e" stroke-width="2" points="223,-54.1075 223,-123.108 283,-123.108 283,-54.1075 223,-54.1075"/>
<text text-anchor="middle" x="233" y="-107.908" font-family="Arial" font-size="14.00"> </text>
<polyline fill="none" stroke="#449b5e" stroke-width="2" points="243,-100.108 243,-123.108 "/>
<text text-anchor="middle" x="253" y="-107.908" font-family="Arial" font-size="14.00"> </text>
<polyline fill="none" stroke="#449b5e" stroke-width="2" points="263,-100.108 263,-123.108 "/>
<text text-anchor="middle" x="273" y="-107.908" font-family="Arial" font-size="14.00"> </text>
<polyline fill="none" stroke="#449b5e" stroke-width="2" points="223,-100.108 283,-100.108 "/>
<text text-anchor="middle" x="253" y="-84.9075" font-family="Arial" font-size="14.00">5. 4</text>
<polyline fill="none" stroke="#449b5e" stroke-width="2" points="223,-77.1075 283,-77.1075 "/>
<text text-anchor="middle" x="233" y="-61.9075" font-family="Arial" font-size="14.00"> </text>
<polyline fill="none" stroke="#449b5e" stroke-width="2" points="243,-54.1075 243,-77.1075 "/>
<text text-anchor="middle" x="253" y="-61.9075" font-family="Arial" font-size="14.00"> </text>
<polyline fill="none" stroke="#449b5e" stroke-width="2" points="263,-54.1075 263,-77.1075 "/>
<text text-anchor="middle" x="273" y="-61.9075" font-family="Arial" font-size="14.00"> </text>
</g>
<!-- v4&#45;&gt;v5 -->
<g id="edge8" class="edge"><title>v4:mI4&#45;&gt;v5:mI5</title>
<path fill="none" stroke="#d45383" stroke-width="2" d="M176,-88.6075C192.611,-88.6075 199.1,-88.6075 211.915,-88.6075"/>
<polygon fill="#d45383" stroke="#d45383" points="212,-92.1076 222,-88.6075 212,-85.1076 212,-92.1076"/>
</g>
<!-- v7 -->
<g id="node7" class="node"><title>v7</title>
<polygon fill="#f2f4f7" stroke="#b4eaef" stroke-width="2" points="432.5,-41.1075 432.5,-110.108 539.5,-110.108 539.5,-41.1075 432.5,-41.1075"/>
<text text-anchor="middle" x="450" y="-94.9075" font-family="Arial" font-size="14.00"> </text>
<polyline fill="none" stroke="#b4eaef" stroke-width="2" points="467.5,-87.1075 467.5,-110.108 "/>
<text text-anchor="middle" x="485.5" y="-94.9075" font-family="Arial" font-size="14.00"> </text>
<polyline fill="none" stroke="#b4eaef" stroke-width="2" points="503.5,-87.1075 503.5,-110.108 "/>
<text text-anchor="middle" x="521.5" y="-94.9075" font-family="Arial" font-size="14.00"> </text>
<polyline fill="none" stroke="#b4eaef" stroke-width="2" points="432.5,-87.1075 539.5,-87.1075 "/>
<text text-anchor="middle" x="486" y="-71.9075" font-family="Arial" font-size="14.00">7. 432432432</text>
<polyline fill="none" stroke="#b4eaef" stroke-width="2" points="432.5,-64.1075 539.5,-64.1075 "/>
<text text-anchor="middle" x="450" y="-48.9075" font-family="Arial" font-size="14.00"> </text>
<polyline fill="none" stroke="#b4eaef" stroke-width="2" points="467.5,-41.1075 467.5,-64.1075 "/>
<text text-anchor="middle" x="485.5" y="-48.9075" font-family="Arial" font-size="14.00"> </text>
<polyline fill="none" stroke="#b4eaef" stroke-width="2" points="503.5,-41.1075 503.5,-64.1075 "/>
<text text-anchor="middle" x="521.5" y="-48.9075" font-family="Arial" font-size="14.00"> </text>
</g>
<!-- v4&#45;&gt;v7 -->
<g id="edge13" class="edge"><title>v4:mI4&#45;&gt;v7:mI7</title>
<path fill="none" stroke="#d45383" stroke-width="2" d="M176,-88.6075C201.267,-88.6075 189.167,-55.4276 212,-44.6075 298.095,-3.80906 330.934,-70.5975 421.828,-75.344"/>
<polygon fill="#d45383" stroke="#d45383" points="421.913,-78.8473 432,-75.6075 422.094,-71.8496 421.913,-78.8473"/>
</g>
<!-- v5&#45;&gt;v6 -->
<g id="edge10" class="edge"><title>v5:mI5&#45;&gt;v6:mI6</title>
<path fill="none" stroke="#449b5e" stroke-width="2" d="M284,-88.6075C310.186,-88.6075 302.84,-126.208 320.119,-136.196"/>
<polygon fill="#449b5e" stroke="#449b5e" points="319.455,-139.637 330,-138.608 321.115,-132.836 319.455,-139.637"/>
</g>
<!-- v5&#45;&gt;v7 -->
<g id="edge11" class="edge"><title>v5:mI5&#45;&gt;v7:mI7</title>
<path fill="none" stroke="#449b5e" stroke-width="2" d="M284,-88.6075C346.549,-88.6075 364.149,-76.9425 421.957,-75.7122"/>
<polygon fill="#449b5e" stroke="#449b5e" points="422.037,-79.2116 432,-75.6075 421.964,-72.212 422.037,-79.2116"/>
</g>
<!-- v6&#45;&gt;v7 -->
<g id="edge12" class="edge"><title>v6:mI6&#45;&gt;v7:mI7</title>
<path fill="none" stroke="#eee3bd" stroke-width="2" d="M396,-138.608C423.966,-138.608 406.249,-91.2306 422.081,-78.6461"/>
<polygon fill="#eee3bd" stroke="#eee3bd" points="423.464,-81.8831 432,-75.6075 421.413,-75.1901 423.464,-81.8831"/>
</g>
<!-- v8 -->
<g id="node8" class="node"><title>v8</title>
<polygon fill="#f2f4f7" stroke="#78da67" stroke-width="2" points="576,-73.1075 576,-142.108 636,-142.108 636,-73.1075 576,-73.1075"/>
<text text-anchor="middle" x="586" y="-126.908" font-family="Arial" font-size="14.00"> </text>
<polyline fill="none" stroke="#78da67" stroke-width="2" points="596,-119.108 596,-142.108 "/>
<text text-anchor="middle" x="606" y="-126.908" font-family="Arial" font-size="14.00"> </text>
<polyline fill="none" stroke="#78da67" stroke-width="2" points="616,-119.108 616,-142.108 "/>
<text text-anchor="middle" x="626" y="-126.908" font-family="Arial" font-size="14.00"> </text>
<polyline fill="none" stroke="#78da67" stroke-width="2" points="576,-119.108 636,-119.108 "/>
<text text-anchor="middle" x="606" y="-103.908" font-family="Arial" font-size="14.00">8. 32</text>
<polyline fill="none" stroke="#78da67" stroke-width="2" points="576,-96.1075 636,-96.1075 "/>
<text text-anchor="middle" x="586" y="-80.9075" font-family="Arial" font-size="14.00"> </text>
<polyline fill="none" stroke="#78da67" stroke-width="2" points="596,-73.1075 596,-96.1075 "/>
<text text-anchor="middle" x="606" y="-80.9075" font-family="Arial" font-size="14.00"> </text>
<polyline fill="none" stroke="#78da67" stroke-width="2" points="616,-73.1075 616,-96.1075 "/>
<text text-anchor="middle" x="626" y="-80.9075" font-family="Arial" font-size="14.00"> </text>
</g>
<!-- v7&#45;&gt;v8 -->
<g id="edge14" class="edge"><title>v7:mI7&#45;&gt;v8:mI8</title>
<path fill="none" stroke="#b4eaef" stroke-width="2" d="M540,-75.6075C557.226,-75.6075 556.178,-96.3282 566.266,-104.422"/>
<polygon fill="#b4eaef" stroke="#b4eaef" points="565.407,-107.824 576,-107.608 567.584,-101.171 565.407,-107.824"/>
</g>
<!-- v9 -->
<g id="node9" class="node"><title>v9</title>
<polygon fill="#f2f4f7" stroke="#44dab0" stroke-width="2" points="672,-10.1075 672,-79.1075 732,-79.1075 732,-10.1075 672,-10.1075"/>
<text text-anchor="middle" x="682" y="-63.9075" font-family="Arial" font-size="14.00"> </text>
<polyline fill="none" stroke="#44dab0" stroke-width="2" points="692,-56.1075 692,-79.1075 "/>
<text text-anchor="middle" x="702" y="-63.9075" font-family="Arial" font-size="14.00"> </text>
<polyline fill="none" stroke="#44dab0" stroke-width="2" points="712,-56.1075 712,-79.1075 "/>
<text text-anchor="middle" x="722" y="-63.9075" font-family="Arial" font-size="14.00"> </text>
<polyline fill="none" stroke="#44dab0" stroke-width="2" points="672,-56.1075 732,-56.1075 "/>
<text text-anchor="middle" x="702" y="-40.9075" font-family="Arial" font-size="14.00">9. 32</text>
<polyline fill="none" stroke="#44dab0" stroke-width="2" points="672,-33.1075 732,-33.1075 "/>
<text text-anchor="middle" x="682" y="-17.9075" font-family="Arial" font-size="14.00"> </text>
<polyline fill="none" stroke="#44dab0" stroke-width="2" points="692,-10.1075 692,-33.1075 "/>
<text text-anchor="middle" x="702" y="-17.9075" font-family="Arial" font-size="14.00"> </text>
<polyline fill="none" stroke="#44dab0" stroke-width="2" points="712,-10.1075 712,-33.1075 "/>
<text text-anchor="middle" x="722" y="-17.9075" font-family="Arial" font-size="14.00"> </text>
</g>
<!-- v7&#45;&gt;v9 -->
<g id="edge15" class="edge"><title>v7:mI7&#45;&gt;v9:mI9</title>
<path fill="none" stroke="#b4eaef" stroke-width="2" d="M540,-75.6075C556.865,-75.6075 559.695,-67.92 576,-63.6075 614.599,-53.3984 626.577,-45.9219 661.928,-44.764"/>
<polygon fill="#b4eaef" stroke="#b4eaef" points="662.056,-48.2625 672,-44.6075 661.947,-41.2634 662.056,-48.2625"/>
</g>
<!-- v8&#45;&gt;v9 -->
<g id="edge16" class="edge"><title>v8:mI8&#45;&gt;v9:mI9</title>
<path fill="none" stroke="#78da67" stroke-width="2" d="M636,-107.608C663.966,-107.608 646.249,-60.2306 662.081,-47.6461"/>
<polygon fill="#78da67" stroke="#78da67" points="663.464,-50.8831 672,-44.6075 661.413,-44.1901 663.464,-50.8831"/>
</g>
<!-- v10 -->
<g id="node10" class="node"><title>v10</title>
<polygon fill="#f2f4f7" stroke="#cdc54e" stroke-width="2" points="768,-73.1075 768,-142.108 828,-142.108 828,-73.1075 768,-73.1075"/>
<text text-anchor="middle" x="778" y="-126.908" font-family="Arial" font-size="14.00"> </text>
<polyline fill="none" stroke="#cdc54e" stroke-width="2" points="788,-119.108 788,-142.108 "/>
<text text-anchor="middle" x="798" y="-126.908" font-family="Arial" font-size="14.00"> </text>
<polyline fill="none" stroke="#cdc54e" stroke-width="2" points="808,-119.108 808,-142.108 "/>
<text text-anchor="middle" x="818" y="-126.908" font-family="Arial" font-size="14.00"> </text>
<polyline fill="none" stroke="#cdc54e" stroke-width="2" points="768,-119.108 828,-119.108 "/>
<text text-anchor="middle" x="798" y="-103.908" font-family="Arial" font-size="14.00">10. 32</text>
<polyline fill="none" stroke="#cdc54e" stroke-width="2" points="768,-96.1075 828,-96.1075 "/>
<text text-anchor="middle" x="778" y="-80.9075" font-family="Arial" font-size="14.00"> </text>
<polyline fill="none" stroke="#cdc54e" stroke-width="2" points="788,-73.1075 788,-96.1075 "/>
<text text-anchor="middle" x="798" y="-80.9075" font-family="Arial" font-size="14.00"> </text>
<polyline fill="none" stroke="#cdc54e" stroke-width="2" points="808,-73.1075 808,-96.1075 "/>
<text text-anchor="middle" x="818" y="-80.9075" font-family="Arial" font-size="14.00"> </text>
</g>
<!-- v8&#45;&gt;v10 -->
<g id="edge2" class="edge"><title>v8:mI8&#45;&gt;v10:mI10</title>
<path fill="none" stroke="#78da67" stroke-width="2" d="M636,-107.608C691.115,-107.608 707.396,-107.608 757.808,-107.608"/>
<polygon fill="#78da67" stroke="#78da67" points="758,-111.108 768,-107.608 758,-104.108 758,-111.108"/>
</g>
<!-- v9&#45;&gt;v10 -->
<g id="edge4" class="edge"><title>v9:mI9&#45;&gt;v10:mI10</title>
<path fill="none" stroke="#44dab0" stroke-width="2" d="M732,-44.6075C759.966,-44.6075 742.249,-91.9844 758.081,-104.569"/>
<polygon fill="#44dab0" stroke="#44dab0" points="757.413,-108.025 768,-107.608 759.464,-101.332 757.413,-108.025"/>
</g>
<!-- v11 -->
<g id="node11" class="node"><title>v11</title>
<polygon fill="#f2f4f7" stroke="#d8794e" stroke-width="2" points="864,-23.1075 864,-92.1075 954,-92.1075 954,-23.1075 864,-23.1075"/>
<text text-anchor="middle" x="879" y="-76.9075" font-family="Arial" font-size="14.00"> </text>
<polyline fill="none" stroke="#d8794e" stroke-width="2" points="894,-69.1075 894,-92.1075 "/>
<text text-anchor="middle" x="909" y="-76.9075" font-family="Arial" font-size="14.00"> </text>
<polyline fill="none" stroke="#d8794e" stroke-width="2" points="924,-69.1075 924,-92.1075 "/>
<text text-anchor="middle" x="939" y="-76.9075" font-family="Arial" font-size="14.00"> </text>
<polyline fill="none" stroke="#d8794e" stroke-width="2" points="864,-69.1075 954,-69.1075 "/>
<text text-anchor="middle" x="909" y="-53.9075" font-family="Arial" font-size="14.00">11. 423423</text>
<polyline fill="none" stroke="#d8794e" stroke-width="2" points="864,-46.1075 954,-46.1075 "/>
<text text-anchor="middle" x="879" y="-30.9075" font-family="Arial" font-size="14.00"> </text>
<polyline fill="none" stroke="#d8794e" stroke-width="2" points="894,-23.1075 894,-46.1075 "/>
<text text-anchor="middle" x="909" y="-30.9075" font-family="Arial" font-size="14.00"> </text>
<polyline fill="none" stroke="#d8794e" stroke-width="2" points="924,-23.1075 924,-46.1075 "/>
<text text-anchor="middle" x="939" y="-30.9075" font-family="Arial" font-size="14.00"> </text>
</g>
<!-- v9&#45;&gt;v11 -->
<g id="edge1" class="edge"><title>v9:mI9&#45;&gt;v11:mI11</title>
<path fill="none" stroke="#44dab0" stroke-width="2" d="M732,-44.6075C787.381,-44.6075 803.178,-56.081 853.766,-57.4703"/>
<polygon fill="#44dab0" stroke="#44dab0" points="853.954,-60.9731 864,-57.6075 854.048,-53.9737 853.954,-60.9731"/>
</g>
<!-- v12 -->
<g id="node12" class="node"><title>v12</title>
<polygon fill="#f2f4f7" stroke="#e3637a" stroke-width="2" points="990.5,-23.1075 990.5,-92.1075 1055.5,-92.1075 1055.5,-23.1075 990.5,-23.1075"/>
<text text-anchor="middle" x="1001" y="-76.9075" font-family="Arial" font-size="14.00"> </text>
<polyline fill="none" stroke="#e3637a" stroke-width="2" points="1011.5,-69.1075 1011.5,-92.1075 "/>
<text text-anchor="middle" x="1022.5" y="-76.9075" font-family="Arial" font-size="14.00"> </text>
<polyline fill="none" stroke="#e3637a" stroke-width="2" points="1033.5,-69.1075 1033.5,-92.1075 "/>
<text text-anchor="middle" x="1044.5" y="-76.9075" font-family="Arial" font-size="14.00"> </text>
<polyline fill="none" stroke="#e3637a" stroke-width="2" points="990.5,-69.1075 1055.5,-69.1075 "/>
<text text-anchor="middle" x="1023" y="-53.9075" font-family="Arial" font-size="14.00">12. 234</text>
<polyline fill="none" stroke="#e3637a" stroke-width="2" points="990.5,-46.1075 1055.5,-46.1075 "/>
<text text-anchor="middle" x="1001" y="-30.9075" font-family="Arial" font-size="14.00"> </text>
<polyline fill="none" stroke="#e3637a" stroke-width="2" points="1011.5,-23.1075 1011.5,-46.1075 "/>
<text text-anchor="middle" x="1022.5" y="-30.9075" font-family="Arial" font-size="14.00"> </text>
<polyline fill="none" stroke="#e3637a" stroke-width="2" points="1033.5,-23.1075 1033.5,-46.1075 "/>
<text text-anchor="middle" x="1044.5" y="-30.9075" font-family="Arial" font-size="14.00"> </text>
</g>
<!-- v9&#45;&gt;v12 -->
<g id="edge3" class="edge"><title>v9:mI9&#45;&gt;v12:mI12</title>
<path fill="none" stroke="#44dab0" stroke-width="2" d="M732,-44.6075C831.624,-44.6075 863.973,29.0545 954,-13.6075 973.087,-22.6524 967.763,-47.3222 980.262,-55.1735"/>
<polygon fill="#44dab0" stroke="#44dab0" points="979.45,-58.5781 990,-57.6075 981.147,-51.787 979.45,-58.5781"/>
</g>
<!-- v10&#45;&gt;v11 -->
<g id="edge19" class="edge"><title>v10:mI10&#45;&gt;v11:mI11</title>
<path fill="none" stroke="#cdc54e" stroke-width="2" d="M828,-107.608C851.104,-107.608 841.355,-72.0118 854.192,-60.8882"/>
<polygon fill="#cdc54e" stroke="#cdc54e" points="855.627,-64.099 864,-57.6075 853.406,-57.4605 855.627,-64.099"/>
</g>
<!-- v10&#45;&gt;v12 -->
<g id="edge18" class="edge"><title>v10:mI10&#45;&gt;v12:mI12</title>
<path fill="none" stroke="#cdc54e" stroke-width="2" d="M828,-107.608C884.063,-107.608 903.923,-126.814 954,-101.608 972.866,-92.1111 967.691,-67.7447 980.244,-60.0051"/>
<polygon fill="#cdc54e" stroke="#cdc54e" points="981.124,-63.393 990,-57.6075 979.454,-56.5953 981.124,-63.393"/>
</g>
<!-- v11&#45;&gt;v12 -->
<g id="edge17" class="edge"><title>v11:mI11&#45;&gt;v12:mI12</title>
<path fill="none" stroke="#d8794e" stroke-width="2" d="M954,-57.6075C966,-57.6075 971.25,-57.6075 979.875,-57.6075"/>
<polygon fill="#d8794e" stroke="#d8794e" points="980,-61.1076 990,-57.6075 980,-54.1076 980,-61.1076"/>
</g>
</g>
</svg>
